<?xml version="1.0" encoding="UTF-8" standalone="no"?>
<!-- Created with Inkscape (http://www.inkscape.org/) -->

<svg
   xmlns:dc="http://purl.org/dc/elements/1.1/"
   xmlns:cc="http://creativecommons.org/ns#"
   xmlns:rdf="http://www.w3.org/1999/02/22-rdf-syntax-ns#"
   xmlns:svg="http://www.w3.org/2000/svg"
   xmlns="http://www.w3.org/2000/svg"
   xmlns:sodipodi="http://sodipodi.sourceforge.net/DTD/sodipodi-0.dtd"
   xmlns:inkscape="http://www.inkscape.org/namespaces/inkscape"
   version="1.1"
   id="svg2"
   width="297mm"
   height="210mm"
   viewBox="0 0 1122.5197 793.70079"
   sodipodi:docname="box2.svg"
   inkscape:version="0.92.3 (2405546, 2018-03-11)"
   inkscape:export-filename="D:\D\aa\PROJECTS\restaurant\png\box2.png"
   inkscape:export-xdpi="750"
   inkscape:export-ydpi="750">
  <metadata
     id="metadata8">
    <rdf:RDF>
      <cc:Work
         rdf:about="">
        <dc:format>image/svg+xml</dc:format>
        <dc:type
           rdf:resource="http://purl.org/dc/dcmitype/StillImage" />
        <dc:title></dc:title>
      </cc:Work>
    </rdf:RDF>
  </metadata>
  <defs
     id="defs6" />
  <sodipodi:namedview
     pagecolor="#000000"
     bordercolor="#666666"
     borderopacity="1"
     objecttolerance="10"
     gridtolerance="10"
     guidetolerance="10"
     inkscape:pageopacity="0"
     inkscape:pageshadow="2"
     inkscape:window-width="1280"
     inkscape:window-height="961"
     id="namedview4"
     showgrid="false"
     inkscape:zoom="1.4075477"
     inkscape:cx="608.04778"
     inkscape:cy="410.01273"
     inkscape:window-x="-8"
     inkscape:window-y="-8"
     inkscape:window-maximized="1"
     inkscape:current-layer="g817"
     units="mm" />
  <g
     id="g817"
     transform="translate(22.843215,207.39147)">
    <path
       style="fill:#cccccc;stroke-width:0.96353942"
       d="m 566.55153,468.40047 c -8.68462,-3.12187 -39.32751,-14.03373 -68.0953,-24.24861 -193.32635,-68.6463 -204.33725,-72.63448 -206.34715,-74.73936 -1.81585,-1.90166 -2.1356,-3.76941 -2.68582,-15.68827 -0.77395,-16.76519 -5.14457,-99.57251 -7.09452,-134.41507 -0.7963,-14.22874 -2.16572,-40.89879 -3.04317,-59.2668 -0.87744,-18.36801 -1.96252,-34.30032 -2.41128,-35.40514 -0.55799,-1.37372 -19.01251,-11.89906 -58.3749,-33.29347 -31.65744,-17.20658 -58.41755,-32.055355 -59.46692,-32.99726 -1.68063,-1.508544 -1.72054,-1.781121 -0.3351,-2.287902 0.86505,-0.316433 19.70966,3.865589 41.87691,9.293358 46.59279,11.40853 44.35644,10.94609 43.92453,9.082814 -0.1799,-0.776116 -14.50211,-22.418176 -31.82714,-48.093484 -17.32503,-25.67529706 -31.50005,-47.130984 -31.50005,-47.679305 0,-1.231459 -3.67853,-0.221688 41.44931,-11.378026 20.89735,-5.166168 75.74368,-18.730659 121.88071,-30.143312 46.13703,-11.412654 84.68566,-20.928133 85.66363,-21.145511 2.23117,-0.495929 -1.26875,-5.250582 49.04663,66.630291 33.92089,48.459601 42.13152,59.621548 42.92965,58.360812 0.54279,-0.857383 18.5806,-25.961458 40.08403,-55.786821 27.98839,-38.820046 39.6808,-54.311535 41.15134,-54.522153 3.35299,-0.480231 286.75273,46.108598 288.21682,47.380714 1.11178,0.966017 -1.41801,5.555919 -14.7049,26.6797408 -8.82622,14.0321522 -15.80766,25.7418202 -15.5143,26.0214642 0.29338,0.279654 17.29699,-6.301303 37.78581,-14.624342 20.48882,-8.3230387 37.46822,-14.9270641 37.73201,-14.6756121 0.26379,0.251452 0.23751,1.05859 -0.0584,1.793638 -0.2959,0.735048 -26.71802,23.2958601 -58.71582,50.1351401 -31.99781,26.83927 -58.93699,49.980986 -59.86489,51.426036 -1.40988,2.19567 -1.9903,8.37833 -3.53261,37.62971 -1.01505,19.2513 -2.35163,43.89239 -2.97016,54.75796 -0.61855,10.86558 -2.5324,47.77253 -4.253,82.01545 l -3.12837,62.25985 -2.39044,2.42555 c -2.38993,2.42499 -12.49486,8.634 -109.59888,67.34347 -28.49639,17.22904 -63.58028,38.45203 -77.96418,47.16221 -19.62085,11.8814 -26.89198,15.81566 -29.1132,15.75251 -1.62837,-0.0463 -10.06627,-2.63841 -18.75088,-5.76027 z"
       id="path831"
       inkscape:connector-curvature="0" />
    <path
       style="fill:#cccccc;stroke-width:0.96353942"
       d="M 582.34175,473.10588 C 580.71338,472.55834 549.1823,461.41231 512.27267,448.33694 344.76661,388.99729 294.1083,370.69216 292.5933,368.95689 c -1.2341,-1.41353 -1.70565,-5.044 -2.16848,-16.69541 -0.56446,-14.20955 -3.04378,-62.53137 -6.12172,-119.31155 -0.78534,-14.48744 -2.37831,-44.54418 -3.53996,-66.79274 -1.77426,-33.98166 -2.37498,-40.81205 -3.75568,-42.70329 -1.3081,-1.79183 -48.70289,-28.272972 -111.62606,-62.369469 -2.98534,-1.617676 -4.90145,-3.111802 -4.25804,-3.320275 0.64341,-0.208474 19.34978,4.092134 41.56969,9.556893 22.21992,5.464759 41.34489,9.93593 42.49996,9.93593 1.15506,0 2.10012,-0.446469 2.10012,-0.992172 0,-0.545704 -14.43323,-22.503638 -32.07386,-48.795418 -17.64063,-26.2917921 -32.07388,-48.07036 -32.07388,-48.396829 0,-0.326469 1.0623,-0.593581 2.36067,-0.593581 2.56283,0 13.49447,-2.623767 54.87885,-13.171786 34.93171,-8.903368 114.10493,-28.2209 115.66381,-28.2209 2.54556,0 -0.30483,0.973343 -9.57148,3.268443 -5.39516,1.336236 -10.80678,3.052483 -12.02583,3.813882 -1.21903,0.761397 -3.67539,1.393773 -5.45855,1.405279 -1.78316,0.0115 -4.23673,0.75234 -5.4524,1.6463 l -2.21029,1.625381 2.37046,2.822229 2.37045,2.822228 3.63854,-3.879513 c 3.55224,-3.787495 3.70644,-3.847223 6.50133,-2.518141 2.91659,1.386956 4.07768,3.490399 1.38246,2.504509 -1.02719,-0.375743 -1.48032,0.06524 -1.48032,1.440639 0,1.134736 -0.63287,1.982135 -1.48033,1.982135 -0.81418,0 -1.48034,0.635001 -1.48034,1.411114 0,1.4883 1.17088,1.862897 2.33985,0.748586 0.38225,-0.36439 1.8996,-0.681891 3.37186,-0.705557 2.17053,-0.03489 2.67684,-0.478979 2.67684,-2.34787 0,-1.658359 0.66638,-2.45609 2.3758,-2.84407 1.30669,-0.296575 2.71879,-1.376067 3.13803,-2.398872 0.50805,-1.239547 0.79267,-1.389109 0.85353,-0.44853 0.16602,2.565773 3.59907,5.991173 5.09317,5.081814 4.90551,-2.985668 12.71824,-4.069931 12.71824,-1.765056 0,1.278074 0.32743,1.273863 2.98965,-0.03845 3.09736,-1.526814 4.04229,-1.333575 7.37268,1.507735 2.63303,2.24636 9.15896,1.433615 12.86533,-1.602265 1.50614,-1.233672 3.66859,-2.284755 4.80544,-2.33574 1.13684,-0.05099 3.12611,-0.156818 4.42059,-0.235186 1.29448,-0.07836 2.84883,-0.989154 3.45412,-2.023971 0.60527,-1.034817 1.2008,-2.047645 1.32337,-2.250729 0.12259,-0.203082 0.88031,0.150863 1.68383,0.786546 0.80353,0.635684 1.92764,0.880844 2.49805,0.544803 1.79879,-1.059734 2.36942,2.342943 0.59977,3.576439 -1.02697,0.715822 -1.40944,1.77258 -1.00509,2.77703 1.22201,3.035617 4.73859,1.427713 5.51654,-2.522354 0.24075,-1.22243 1.29391,-1.862717 3.31359,-2.014544 1.62836,-0.12241 4.91879,-0.709131 7.31204,-1.303823 3.01465,-0.749101 4.66692,-0.780474 5.37854,-0.10213 0.71162,0.67835 0.51179,0.979134 -0.65055,0.979134 -2.18771,0 -2.1292,1.200393 0.15457,3.17053 1.67712,1.446812 1.94333,1.453087 3.14392,0.07411 1.09504,-1.257735 1.08238,-1.641626 -0.0767,-2.32444 -0.76356,-0.449841 -1.06348,-1.127507 -0.6665,-1.505925 0.39697,-0.378419 1.31555,0.08603 2.04128,1.032105 0.91531,1.193241 1.53461,1.388325 2.02181,0.636882 0.98461,-1.518639 3.12802,-1.347796 4.95635,0.395054 0.85296,0.81307 1.55082,1.024737 1.55082,0.470372 0,-1.645686 2.39542,-1.148893 4.21202,0.873546 1.92363,2.141594 5.65688,2.531671 5.65688,0.591073 0,-0.709726 -2.13227,-4.413901 -4.73835,-8.231499 -5.044,-7.388792 -7.37174,-11.290385 -4.43608,-7.435401 0.97502,1.280353 3.1163,4.032026 4.75839,6.114828 3.9461,5.005126 24.04761,32.879755 48.86262,67.7574264 11.04387,15.5222646 21.21585,29.7937216 22.60441,31.7143746 2.75979,3.817349 4.70189,4.471509 5.69184,1.917188 0.35092,-0.905465 5.14697,-7.784645 10.65791,-15.287068 5.51093,-7.502434 23.05437,-31.6324861 38.98543,-53.62235 15.93105,-21.989865 29.34595,-40.228123 29.81088,-40.529466 0.46494,-0.301341 4.04827,-0.001 7.96293,0.667394 3.91468,0.668409 28.21234,4.653494 53.9948,8.855748 42.01896,6.848619 202.96099,33.227284 219.08922,35.909087 3.52813,0.586655 6.54089,1.14902 6.69502,1.249698 0.15413,0.100682 -7.24535,12.1984249 -16.44329,26.8838832 l -16.72347,26.7008268 -11.18959,4.573342 c -56.74258,23.191471 -108.55871,44.9058 -116.27725,48.727744 -5.16527,2.557659 -8.72526,4.458972 -7.91108,4.225127 1.92407,-0.55259 86.11629,-34.948839 91.28719,-37.294856 5.97734,-2.711894 34.01168,-14.125927 38.40599,-15.636805 2.12571,-0.730865 21.1333,-8.357082 42.23911,-16.947142 21.10581,-8.590061 38.59303,-15.409689 38.8605,-15.1547301 0.26745,0.2549484 -25.51886,22.3500471 -57.30293,49.1002221 -31.78408,26.750164 -58.42477,49.808223 -59.20155,51.240093 -1.04616,1.92845 -1.93498,12.7025 -3.42827,41.55577 -1.10877,21.42377 -2.48556,46.36067 -3.05951,55.41533 -0.57396,9.05465 -2.35129,44.14286 -3.94964,77.97379 -2.00318,42.39972 -3.27024,61.92909 -4.07818,62.85708 -1.28225,1.47277 -4.3725,3.41611 -34.37584,21.61745 -121.64583,73.79571 -178.93095,108.31019 -180.63567,108.83356 -0.79488,0.24406 -2.77754,-0.004 -4.4059,-0.55179 z M 210.53154,-0.47686806 c 3.06027,-0.78177604 2.90186,-4.48755204 -0.32324,-7.56184704 -3.25537,-3.1031539 -2.66007,-6.8971059 1.08221,-6.8971059 1.34664,0 2.44842,-0.423335 2.44842,-0.940742 0,-0.517409 0.59732,-0.940744 1.32737,-0.940744 0.73007,0 2.1137,-0.828228 3.07472,-1.840507 1.44462,-1.521637 2.8499,-1.799589 8.11128,-1.604326 4.165,0.154572 6.65868,0.690778 7.21694,1.551833 0.68544,1.057206 1.35155,1.099123 3.3909,0.213382 1.39583,-0.60625 2.53789,-1.696977 2.53789,-2.423837 0,-0.726859 0.88819,-1.542972 1.97377,-1.813582 1.15454,-0.287803 1.97378,-1.283188 1.97378,-2.398183 0,-2.064027 2.15731,-3.051013 6.95285,-3.180987 3.04568,-0.08255 5.57128,-2.684256 4.38376,-4.515864 -0.32853,-0.506716 0.0688,-0.921301 0.88301,-0.921301 0.81418,0 1.70825,0.351544 1.98683,0.781206 0.74389,1.147372 9.19859,0.611649 10.83994,-0.68686 1.09257,-0.86435 1.52215,-0.841614 1.91916,0.10158 0.32528,0.772789 0.53986,0.615839 0.58941,-0.431108 0.043,-0.909974 0.85035,-1.64896 1.80496,-1.652247 0.94988,-0.0033 2.52017,-1.33404 3.48951,-2.957263 l 1.76245,-2.951313 -4.89448,0.552574 c -2.69196,0.303917 -5.70557,0.933589 -6.6969,1.399271 -0.99131,0.465684 -2.7956,1.336126 -4.00951,1.934317 -1.21392,0.598191 -3.88509,1.087619 -5.93595,1.087619 -2.05085,0 -5.38602,0.846668 -7.41148,1.881486 -2.02545,1.034816 -4.42989,1.881485 -5.3432,1.881485 -1.44487,0 -5.06598,0.937736 -10.18924,2.638639 -0.81418,0.270305 -2.59058,0.577502 -3.94756,0.682658 -3.81178,0.295391 -13.8228,2.267849 -18.75088,3.694464 -6.29277,1.821675 -12.63829,3.336161 -17.5655,4.192357 -6.11825,1.063159 -6.59612,1.953609 -3.4255,6.383042 6.38773,8.9238349 10.13524,11.9850939 10.13524,8.2792699 0,-0.776113 0.44409,-1.411115 0.98688,-1.411115 0.54279,0 0.9869,0.589709 0.9869,1.310465 0,0.720756 0.66614,1.554139 1.48033,1.85196 0.81418,0.297824 1.48032,1.105118 1.48032,1.793987 0,1.252981 1.88847,3.52163104 2.91133,3.49743204 0.29853,-0.0074 1.54201,-0.268109 2.76328,-0.580095 z M 235.9589,-23.746106 c -2.06664,-1.440504 -1.246,-3.419373 1.41802,-3.419373 2.26563,0 3.31101,2.352125 1.63475,3.67825 -0.89486,0.70794 -1.77248,0.633516 -3.05277,-0.258877 z m -20.24619,12.158405 c 0,-1.99235 -1.58046,-2.581539 -2.89003,-1.077388 -0.87082,1.000216 -0.83898,1.424368 0.1349,1.796859 2.17936,0.833565 2.75513,0.683211 2.75513,-0.719471 z m 69.08218,-20.281491 c 0,-4.411949 -2.00577,-5.097903 -3.81831,-1.305825 -0.8876,1.856981 -0.89678,2.7761 -0.0376,3.762972 2.21182,2.540428 3.85592,1.492735 3.85592,-2.457147 z m 26.64599,-4.177824 c 0,-0.745577 -0.4441,-1.617229 -0.98689,-1.937006 -0.54279,-0.319776 -0.98689,0.290242 -0.98689,1.355595 0,1.065353 0.4441,1.937006 0.98689,1.937006 0.54279,0 0.98689,-0.610017 0.98689,-1.355595 z m -18.10836,-4.311455 c -0.1157,-3.667845 -0.4806,-4.656066 -1.62941,-4.412658 -0.81418,0.172506 -1.37328,0.806336 -1.24242,1.408508 0.15916,0.732453 -0.72909,0.910502 -2.68349,0.537899 -1.60677,-0.306329 -3.62042,-0.301269 -4.47476,0.01124 -3.54154,1.295475 3.31639,7.026227 8.54975,7.144494 1.3227,0.02988 1.60135,-0.852807 1.48033,-4.689485 z m 28.2971,-0.355806 c 0.29208,-0.725528 0.26942,-1.568525 -0.0503,-1.873324 -0.69598,-0.663433 -3.2302,1.193506 -3.2302,2.366912 0,1.34583 2.70381,0.939013 3.28052,-0.493588 z m -20.05763,-3.854945 c 0,-2.479666 -2.12996,-3.121761 -4.87098,-1.468408 -1.17425,0.708286 -1.1958,1.108565 -0.12588,2.337453 2.07791,2.386663 4.99686,1.879007 4.99686,-0.869045 z m 13.81644,-2.884714 c 0,-2.078831 -0.37715,-2.372979 -2.71395,-2.116672 -3.10356,0.340406 -3.29828,2.029871 -0.28581,2.479773 1.10709,0.165339 2.01287,0.694506 2.01287,1.175929 0,0.481422 0.22205,0.875313 0.49344,0.875313 0.2714,0 0.49345,-1.086454 0.49345,-2.414343 z m 71.09069,-5.049755 c -1.57266,-2.80114 -1.21995,-3.346777 0.95217,-1.472959 2.11463,1.824233 2.57023,3.2926 1.02161,3.2926 -0.5237,0 -1.4119,-0.818838 -1.97378,-1.819641 z m -27.85264,-11.052651 c 0.71241,-0.271753 1.56359,-0.238332 1.89154,0.07428 0.32793,0.312601 -0.25496,0.534945 -1.29529,0.494096 -1.14968,-0.04513 -1.38352,-0.268055 -0.59625,-0.568365 z m 6.10637,-1.633412 c 3.95672,-1.539322 8.41155,-1.993354 5.92133,-0.603497 -0.81418,0.454418 -3.25673,1.078456 -5.42789,1.386749 l -3.94755,0.560533 z m 8.69695,-2.12956 c 0.71241,-0.271753 1.5636,-0.238331 1.89154,0.07428 0.32794,0.312602 -0.25495,0.534946 -1.29528,0.494097 -1.14969,-0.04513 -1.38352,-0.268056 -0.59626,-0.568365 z m 3.94756,-0.940742 c 0.71241,-0.271753 1.56359,-0.238331 1.89154,0.07428 0.32793,0.312601 -0.25495,0.534945 -1.29529,0.494096 -1.14968,-0.04513 -1.38352,-0.268055 -0.59625,-0.568366 z m 10.79409,-2.80263 c 0.67849,-0.260973 1.78874,-0.260973 2.46722,0 0.67849,0.260974 0.12336,0.474497 -1.23361,0.474497 -1.35697,0 -1.91209,-0.213523 -1.23361,-0.474497 z"
       id="path829"
       inkscape:connector-curvature="0" />
    <path
       style="fill:#cccccc;stroke-width:0.96353942"
       d="M 582.34175,473.10588 C 580.71338,472.55834 549.1823,461.41231 512.27267,448.33694 344.98343,389.0741 294.10736,370.6911 292.59759,368.96193 c -1.23365,-1.41291 -1.70413,-5.11396 -2.18209,-17.16578 -0.95488,-24.07745 -7.5431,-152.22862 -8.06858,-156.94631 -0.25933,-2.32833 -1.20109,-19.05004 -2.0928,-37.15934 -1.53673,-31.20914 -1.73078,-33.03406 -3.72141,-34.99839 -1.15509,-1.13981 -26.96973,-15.6543 -57.36589,-32.254448 -51.08929,-27.901165 -61.76468,-34.089322 -56.25264,-32.607638 8.1711,2.196451 148.12579,35.806212 170.95389,41.054136 6.53301,1.50187 7.17309,1.51184 7.63957,0.118997 0.28003,-0.83611 2.84463,-2.207616 5.69912,-3.047803 9.93545,-2.924384 108.59034,-35.410427 132.49859,-43.630428 7.05625,-2.426039 17.26106,-5.874132 22.67735,-7.662414 5.41628,-1.788294 10.6113,-3.910099 11.54446,-4.715114 1.55039,-1.337483 1.90234,-1.252159 4.08181,0.989585 2.93754,3.021439 4.19798,3.081266 5.82812,0.276622 1.76661,-3.039417 36.7071,-49.4088861 39.82886,-52.856826 l 2.55526,-2.822229 -2.21506,3.181267 c -2.59796,3.7312119 -1.74496,6.0520929 2.39773,6.5237909 2.08728,0.237663 2.83654,-0.236172 3.71892,-2.351858 0.61537,-1.475494 1.30785,-2.128738 1.5628,-1.474253 0.33622,0.863094 2.22567,1.01861 7.11397,0.585534 6.64395,-0.588617 6.66082,-0.584011 9.20355,2.513083 l 2.54741,3.102781 4.52974,-1.649038 c 4.42102,-1.609453 4.60958,-1.602014 7.85477,0.309842 3.89451,2.294393 4.69983,2.429413 3.99123,0.669161 -0.28555,-0.709344 0.17248,-1.542727 1.01786,-1.851961 1.0707,-0.391653 1.53705,-3.43e-4 1.53705,1.28972 0,1.186569 0.6678,1.85196 1.85867,1.85196 1.0564,0 2.0919,0.85013104 2.39898,1.96953104 0.49804,1.81542796 1.06147,1.93284196 7.20144,1.50067496 4.86577,-0.342491 7.2561,-0.09728 8.86861,0.909911 1.80398,1.126739 2.97497,1.18176 6.40621,0.301033 3.19935,-0.821218 3.86475,-1.296247 2.79557,-1.99578396 -0.96764,-0.633088 -0.33105,-0.727021 2.05095,-0.302617 3.68046,0.65575496 5.66166,2.42089496 6.56462,5.84874966 0.6897,2.6182881 2.33858,2.7034118 4.5556,0.2351859 2.26442,-2.5209856 3.19958,-2.3824897 6.29838,0.9327685 2.02971,2.1714815 2.93308,2.574908 3.95518,1.766302 0.9856,-0.7797277 1.73819,-0.7207887 2.94034,0.230232 1.3956,1.104093 1.81528,0.991644 3.08103,-0.8255481 1.87878,-2.6972643 3.7331,-2.6558274 7.62008,0.1702895 2.14924,1.5626456 3.56766,2.0085966 4.53415,1.4255116 0.77357,-0.4666852 2.441,-0.855007 3.7054,-0.8629183 2.06711,-0.012992 2.23522,0.2938714 1.66718,3.0430083 -0.45115,2.183417 -0.34973,2.664732 0.35478,1.683703 0.85962,-1.197012 1.21641,-1.183893 2.77381,0.102034 0.98302,0.811627 3.2481,1.942739 5.0335,2.513592 2.95668,0.945338 3.32158,0.848892 4.09147,-1.081373 1.27201,-3.189194 3.12353,-4.236651 7.28539,-4.12154 2.31682,0.06401 4.11582,-0.421034 4.67259,-1.259975 0.49794,-0.750301 0.91215,-0.9006061 0.92047,-0.334052 0.008,0.566576 -0.8731,1.796353 -1.95867,2.73285 -2.4024,2.072478 -2.56799,4.233345 -0.32443,4.233345 0.90714,0 2.47198,0.709666 3.47742,1.577031 1.40145,1.20899 2.09903,1.318767 2.98904,0.470372 1.79936,-1.715222 4.42835,-1.307813 4.99969,0.774826 0.35949,1.310433 1.36791,1.894078 3.32249,1.922998 5.66642,0.08387 12.48208,2.395291 13.3034,4.51171 0.98863,2.54754 2.26374,2.567884 4.87601,0.07785 1.32965,-1.267474 2.63019,-1.715971 3.70084,-1.276252 2.73432,1.123011 13.19709,2.539798 17.9344,2.428542 4.93974,-0.116019 9.48029,1.57924 12.07973,4.510052 2.17242,2.449383 4.87167,2.470043 7.1646,0.05482 2.38843,-2.515778 5.70391,-2.407047 6.92092,0.226968 1.11372,2.41047 6.22535,3.80046 13.44944,3.657274 2.94246,-0.05831 5.0147,0.408327 5.79546,1.305088 0.66841,0.767729 2.20631,1.395873 3.41756,1.395873 2.77623,0 7.78712,4.328566 7.0708,6.107998 -0.73559,1.827269 -3.35495,3.024069 -41.09518,18.776671 -32.91869,13.740108 -61.18192,26.688944 -61.18531,28.03211 -9.7e-4,0.388057 0.55335,0.703033 1.23184,0.699949 1.13906,-0.0053 73.95804,-29.769629 105.84377,-43.263165 7.59905,-3.215801 18.25744,-7.540427 23.68533,-9.610276 10.45835,-3.988156 81.30526,-32.6085789 82.77993,-33.4410665 4.36291,-2.4629766 -7.67815,8.0142215 -55.75573,48.5143595 -30.73095,25.887467 -56.79929,48.188895 -57.92965,49.558725 -1.13036,1.36983 -2.3502,4.36581 -2.71076,6.65773 -0.36055,2.29192 -1.03377,4.16713 -1.49605,4.16713 -0.46227,0 -2.38596,1.2935 -4.27487,2.87443 -2.73036,2.28521 -3.49603,3.68331 -3.73517,6.82039 -0.27722,3.63676 -0.50405,3.92614 -2.89477,3.69308 -2.7008,-0.26327 -3.7771,1.45463 -3.80732,6.07699 -0.0191,2.92834 -1.77225,3.58565 -4.15738,1.55879 -2.03498,-1.72929 -2.04237,-1.72109 -1.40341,1.55415 0.35329,1.81093 0.82099,4.26532 1.03933,5.45419 0.21834,1.18888 0.81731,2.67056 1.33108,3.29261 1.259,1.5244 1.13245,4.41604 -0.19496,4.4549 -0.58803,0.0172 -2.11627,0.86289 -3.39611,1.87928 -1.63414,1.29778 -2.10467,2.33879 -1.58031,3.49649 0.41066,0.90667 0.66237,2.50252 0.55938,3.54631 -0.10299,1.0438 0.65507,2.75968 1.6846,3.81309 1.32487,1.35557 1.73398,2.81104 1.39995,4.9805 -0.39077,2.53801 -0.10981,3.1555 1.63355,3.59009 3.00332,0.74866 3.73631,4.62025 1.593,8.41405 -1.42079,2.51487 -1.52816,3.40045 -0.54865,4.5255 2.40524,2.76262 4.87136,2.65786 8.89215,-0.37776 2.98486,-2.25352 3.97316,-3.7283 4.30086,-6.41788 0.45075,-3.69979 -0.0126,14.91194 -0.80289,32.2562 -0.25937,5.6915 -0.92145,21.7782 -1.47131,35.74824 -2.51686,63.94498 -4.24437,96.02528 -5.23383,97.19418 -1.15081,1.35946 -4.40547,3.40332 -34.25207,21.50958 -121.64583,73.79567 -178.93094,108.31015 -180.63566,108.83352 -0.79488,0.24406 -2.77755,-0.004 -4.40591,-0.55178 z M 801.92442,171.80164 c 0,-0.7761 0.4441,-1.41111 0.98689,-1.41111 0.54279,0 0.98689,0.63501 0.98689,1.41111 0,0.77612 -0.4441,1.41112 -0.98689,1.41112 -0.54279,0 -0.98689,-0.635 -0.98689,-1.41112 z m 7.97302,-1.01913 c 0.0473,-1.09591 0.28121,-1.31883 0.59624,-0.56837 0.28508,0.6791 0.25003,1.49049 -0.0779,1.80309 -0.32793,0.3126 -0.56118,-0.24303 -0.51833,-1.23472 z m -12.40981,-5.08304 c -0.34722,-1.04287 -1.44939,-2.31348 -2.44926,-2.82357 -1.13876,-0.58095 -1.63471,-1.59528 -1.3275,-2.71506 0.26972,-0.98319 0.0245,-2.06205 -0.54476,-2.39747 -0.66718,-0.39306 -0.72014,-1.39965 -0.14898,-2.83167 0.4874,-1.222 0.61846,-2.47701 0.29125,-2.78893 -0.3272,-0.3119 -0.10849,-0.5671 0.48596,-0.5671 2.0631,0 4.33414,3.05905 3.79401,5.11046 -0.29218,1.10975 0.11979,3.21396 0.91552,4.67601 0.79572,1.46204 1.44678,3.21989 1.44678,3.90632 0,2.11984 -1.79606,2.43414 -2.46302,0.43101 z M 727.90779,19.512332 c 0,-0.776116 0.4441,-1.67275 0.98689,-1.992521 0.54279,-0.319781 0.98689,0.05366 0.98689,0.8297 0,0.776115 -0.4441,1.672749 -0.98689,1.99253 -0.54279,0.319782 -0.98689,-0.05366 -0.98689,-0.829709 z"
       id="path827"
       inkscape:connector-curvature="0" />
    <path
       style="fill:#ffffff;stroke-width:0.96353942"
       d="m 594.05135,208.02285 c -0.94613,1.77443 -2.7077,3.45365 -3.9146,3.73161 -1.5179,0.34958 -2.43233,1.5096 -2.96631,3.76297 -0.86734,3.6601 -1.0296,74.99123 -0.24923,109.56152 0.2803,12.41786 0.98871,45.22621 1.57424,72.9076 0.0231,19.64667 1.2272,39.61116 1.76809,59.12432 l -4.44605,18.90824 c -1.03871,-0.0275 -4.10906,-0.84839 -6.823,-1.82521 l 3e-5,1.1e-4 C 576.28057,473.21707 540.08644,460.3747 498.56311,445.65525 351.32473,393.46134 295.0706,373.20839 293.69562,371.89778 c -0.94466,-0.90056 -1.3922,-3.54004 -1.3922,-8.21111 0,-3.78626 -0.44228,-14.23357 -0.98285,-23.21629 -0.90837,-15.09473 -2.50373,-50.0683 -4.95046,-108.52492 -0.54141,-12.93522 -1.20682,-25.08988 -1.47872,-27.01037 -0.27187,-1.92048 -1.37991,-19.91218 -2.46228,-39.98158 -1.72809,-32.04205 -2.18832,-36.77643 -3.77579,-38.84163 -1.39861,-1.81947 -56.53881,-32.902213 -104.85427,-59.106715 -2.22264,-1.205473 -3.88787,-2.337905 -3.70051,-2.516507 0.18737,-0.178603 25.10934,5.781878 55.38215,13.245505 30.27279,7.463628 55.92851,13.570231 57.01268,13.570231 3.2907,0 52.5947,12.035656 57.47807,14.031036 2.50779,1.02469 30.2238,8.27262 61.59114,16.10651 74.67971,18.651 73.65906,18.38684 76.35416,19.76177 1.27853,0.65225 13.21951,7.75141 26.53553,15.77591 60.05285,36.18909 77.00947,46.07228 77.00947,44.88509 0,-0.46178 -14.19749,-9.47419 -77.96418,-49.49078 l -25.16567,-15.79264 -60.69363,-15.10491 c -33.3815,-8.3077 -61.69286,-15.52259 -62.91414,-16.03308 -2.21674,-0.92661 -3.07198,-2.84998 -1.26725,-2.84998 0.81432,0 28.58593,-9.257694 140.1718,-46.726368 10.04159,-3.3718 19.75025,-6.951333 21.57479,-7.954512 1.98568,-1.091756 4.11572,-1.582418 5.30616,-1.222245 1.44498,0.437173 2.57962,-0.104675 4.14953,-1.981419 1.99738,-2.387814 2.41697,-2.504635 5.54962,-1.54508 3.86695,1.184474 76.29972,16.527048 124.77616,26.429844 17.91202,3.65909 34.12167,7.03165 36.02143,7.494607 1.89975,0.462946 11.55892,2.446097 21.46482,4.407004 9.90589,1.960906 18.01071,3.814138 18.01071,4.118266 0,0.304138 -2.77563,1.991802 -6.16806,3.750372 -6.32242,3.277433 -8.26158,4.952605 -65.36502,56.466171 -43.86585,39.57181 -58.09395,52.70417 -57.60582,53.16948"
       id="path825"
       inkscape:connector-curvature="0"
       sodipodi:nodetypes="cscscccccscssscscccsscscssscscssccccscsscsc" />
    <path
       style="fill:#ff6600;stroke-width:0.96353942"
       d="m 442.69703,233.09202 c -2.98533,-0.96079 -13.19963,-3.93775 -22.69844,-6.61546 -9.49879,-2.67774 -17.73553,-5.42779 -18.30385,-6.11125 -0.60724,-0.73028 -1.53555,-13.543 -2.25137,-31.07419 -0.67527,-16.53809 -1.67818,-30.65109 -2.25059,-31.67065 -0.5679,-1.01151 -3.55683,-2.97707 -6.64206,-4.36794 -3.08525,-1.39087 -7.15874,-3.65012 -9.05221,-5.02057 -4.21298,-3.04928 -17.9091,-11.25546 -48.3461,-28.96712 -12.75554,-7.4226 -24.57301,-14.63278 -26.26105,-16.0226 -1.68804,-1.38982 -5.60027,-3.907397 -8.69382,-5.594586 -3.09358,-1.687209 -5.47878,-3.206696 -5.3005,-3.376658 0.3107,-0.296153 6.19291,0.958488 33.34715,7.112694 11.76802,2.66711 13.04052,3.20109 27.63287,11.5958 19.87074,11.43124 59.18307,33.67559 80.42859,45.50944 l 16.7743,9.34333 0.75722,5.01562 c 0.41647,2.7586 0.63979,17.75485 0.49627,33.32502 -0.29859,32.39087 0.49313,30.17918 -9.63641,26.91912 z m 251.40475,-39.7244 c 0.30544,-17.02736 0.95562,-29.81904 1.61513,-31.77621 0.87184,-2.58725 8.36492,-9.4579 35.64498,-32.68403 30.41883,-25.89844 34.83555,-29.336961 37.00831,-28.81195 1.35698,0.3279 4.02157,0.8612 5.92134,1.18511 1.89976,0.3239 3.4541,1.04217 3.4541,1.59615 0,0.55398 -9.99223,9.79256 -22.20498,20.53018 -12.21274,10.73762 -22.95788,20.65247 -23.87807,22.03301 -1.77501,2.66301 -3.042,16.01893 -4.3032,45.36204 l -0.62949,14.64571 -15.91827,7.93212 c -8.75503,4.36267 -16.21139,8.05724 -16.56967,8.21015 -0.35829,0.15291 -0.42136,-12.54712 -0.14018,-28.22228 z m -106.65224,12.54271 c -0.32298,-1.53945 -1.54423,-3.64887 -2.71386,-4.68758 -1.16964,-1.03873 -14.31157,-9.43197 -29.20432,-18.65165 -14.89274,-9.21967 -38.49018,-23.95973 -52.43875,-32.75568 L 477.73157,133.8228 464.90202,130.97754 C 449.031,127.45776 399.73376,115.78417 391.86919,113.74795 l -37.69729,-9.76017 c 43.10787,-12.55589 160.84944,-53.867275 173.19253,-59.673807 1.96673,0.78333 16.31328,3.164912 28.4079,5.726575 32.80105,6.947329 112.17204,24.325537 141.65042,30.456772 14.24821,2.963494 25.55059,6.874878 25.55059,6.874878 0.18591,0.384334 -1.43706,1.484641 -3.19348,2.350443 -1.75642,0.865812 -11.19663,8.814201 -20.97827,17.663089 -9.78164,8.84889 -37.43578,33.81964 -61.45365,55.49053 -33.08074,29.84818 -43.86102,40.11251 -44.46141,42.33344 -1.11265,4.11583 -4.62548,4.56849 -5.43699,0.70063 z"
       id="path823"
       inkscape:connector-curvature="0"
       sodipodi:nodetypes="sccsccsssccccsccssscsccsscscccsccsscssccssscsssc" />
    <path
       style="fill:#000000;stroke-width:0.96353942"
       d="m 552.82565,448.96068 c -7.32765,-2.57119 -31.08698,-10.86245 -52.79853,-18.42501 -21.71154,-7.56256 -40.03067,-14.16401 -40.70914,-14.66987 -0.88373,-0.6589 -1.17417,-4.0222 -1.02402,-11.85831 l 0.20959,-10.93854 0.3163,10.02346 c 0.21749,6.89289 0.72724,10.34858 1.63212,11.06445 1.96714,1.55626 49.18435,17.92624 50.11855,17.37588 0.4432,-0.2611 0.80581,-10.76961 0.80581,-23.35222 0,-17.16884 -0.30782,-23.11424 -1.2336,-23.82624 -2.30042,-1.76919 -50.05547,-17.10736 -51.55528,-16.55874 -1.09618,0.40098 -1.48997,-0.10953 -1.48997,-1.93164 0,-2.39457 0.09,-2.43292 2.71394,-1.15701 5.31738,2.58557 49.00425,16.65776 50.27296,16.19368 1.01611,-0.37169 1.29195,-5.40016 1.29195,-23.55033 0,-21.8234 -0.10728,-23.17998 -1.97377,-24.9592 -2.25818,-2.1526 -1.63044,-2.32542 2.93556,-0.80812 2.65662,0.88279 2.94558,1.22513 1.6276,1.92823 -1.41154,0.75299 -1.60249,3.63449 -1.60249,24.18089 0,21.05765 0.16795,23.46142 1.72705,24.71844 2.31831,1.8691 50.99112,17.89482 53.24366,17.53067 1.2178,-0.19686 1.77537,0.3039 1.77537,1.59448 0,2.2039 0.38501,2.25881 -10.36233,-1.47793 -26.59517,-9.24687 -44.43569,-14.76574 -44.98641,-13.91632 -0.70116,1.08145 -0.55714,44.50942 0.15348,46.27464 0.56115,1.39395 50.71923,19.30566 52.44988,18.73011 0.8215,-0.2732 1.30157,-3.72263 1.51609,-10.89399 l 0.31394,-10.49422 0.21095,11.99448 c 0.16004,9.09987 -0.0867,11.98103 -1.02265,11.93881 -0.67849,-0.0305 -7.22896,-2.15935 -14.55661,-4.73053 z m -3.82411,-14.80416 c -1.33568,-1.78808 -2.88977,-2.89887 -3.66105,-2.61675 -0.73708,0.26962 -3.01828,-0.0636 -5.06932,-0.74049 -4.30484,-1.42067 -5.04992,-4.25198 -1.50868,-5.73296 1.22127,-0.51075 2.2205,-1.46325 2.2205,-2.11667 0,-1.84244 -0.84912,-1.47319 -5.92133,2.57493 -2.59321,2.06963 -5.20841,3.76297 -5.81157,3.76297 -1.93495,0 -1.17375,-2.41901 1.44391,-4.58862 2.06563,-1.71208 2.31649,-2.36305 1.34195,-3.4824 -0.81739,-0.93884 -0.99923,-3.19501 -0.57174,-7.09382 0.53237,-4.85528 0.33008,-6.07678 -1.34195,-8.10303 -1.08285,-1.31226 -1.96882,-2.96383 -1.96882,-3.67017 0,-2.22572 1.86215,-1.39658 3.45411,1.53798 0.84206,1.55223 1.96371,2.82223 2.49257,2.82223 1.65319,0 1.82179,0.0409 6.08868,1.47593 2.29226,0.77094 4.48104,1.88494 4.86396,2.47554 0.49873,0.76924 1.41014,0.62795 3.21294,-0.49806 3.03883,-1.89801 3.57307,-1.94658 3.57307,-0.32479 0,0.68592 -1.10471,2.23642 -2.4549,3.44555 -1.89434,1.69643 -2.20144,2.48955 -1.34486,3.47339 0.69428,0.79744 0.90996,3.37823 0.57585,6.89055 -0.4439,4.66642 -0.20437,6.01528 1.41708,7.98022 1.07319,1.30056 1.80258,3.10057 1.62086,4.00003 -0.26026,1.28824 -0.82307,0.97587 -2.65126,-1.47156 z m 2.83723,-10.98379 c 0,-5.33089 0.39822,-8.93706 0.98688,-8.93706 0.54279,0 0.99369,1.79917 1.002,3.99816 0.0208,5.51164 1.10113,6.93105 3.41789,4.49075 2.29587,-2.41827 4.155,-2.42662 4.95555,-0.0222 0.34456,1.03482 1.04063,1.88149 1.54684,1.88149 1.65695,0 0.96442,4.37412 -0.95466,6.02965 -1.79415,1.54776 -1.99047,1.47329 -4.55079,-1.72651 -3.01324,-3.76587 -4.42994,-3.62001 -4.42994,0.45607 0,1.52168 -0.4441,2.7667 -0.98689,2.7667 -0.58866,0 -0.98688,-3.60617 -0.98688,-8.93705 z m -25.02801,-0.18237 c -0.3471,-0.33088 -0.6311,-4.34103 -0.6311,-8.91148 0,-6.75941 0.2762,-8.3099 1.48034,-8.3099 1.20548,0 1.48033,1.56174 1.48033,8.41116 0,7.72523 -0.69811,10.3654 -2.32957,8.81022 z m -46.36845,-3.88986 c -0.89831,-0.94622 -1.61916,-2.53372 -1.60191,-3.52779 0.0296,-1.70228 0.10761,-1.71165 1.34242,-0.16111 2.75947,3.46518 3.56064,1.8504 3.56064,-7.17663 v -8.82293 l -3.20739,-1.12787 c -1.76405,-0.6203 -5.10965,-1.94305 -7.43466,-2.93941 -3.62558,-1.55371 -4.08697,-2.06147 -3.24151,-3.56735 1.35843,-2.41957 7.03356,-4.82329 11.38767,-4.82329 2.41793,0 5.0666,0.94836 7.97371,2.85498 4.5674,2.99552 11.29929,10.62303 11.29929,12.80256 0,1.71266 -4.89166,1.60263 -7.34357,-0.1652 -1.05363,-0.75965 -2.94105,-1.38119 -4.19427,-1.38119 -2.21687,0 -2.27861,0.23703 -2.27861,8.7489 0,8.53511 -0.7856,11.0067 -3.49853,11.0067 -0.62149,0 -1.86498,-0.77417 -2.76328,-1.72037 z m 37.83197,-3.18896 c -0.53455,-1.18043 -1.50942,-2.8623 -2.16637,-3.73747 -0.97133,-1.29396 -0.85101,-1.95303 0.64404,-3.52779 2.48301,-2.6154 3.75598,-2.4396 5.76082,0.79564 2.30232,3.71526 2.13215,5.24389 -0.78673,7.06699 -2.37746,1.48494 -2.51998,1.46026 -3.45176,-0.59737 z m 20.24149,-28.46021 c -14.55449,-4.88904 -14.80853,-5.02199 -15.11258,-7.909 -0.25639,-2.43451 0.0388,-2.93637 1.72706,-2.93637 1.93783,0 2.03631,-0.51761 2.03631,-10.70381 0,-9.96524 -0.14893,-10.79806 -2.1583,-12.06984 l -2.15829,-1.36604 2.89845,-3.91965 c 1.59416,-2.15581 3.56462,-3.80995 4.37879,-3.67586 1.68666,0.27778 6.85032,8.76389 6.88518,11.31528 0.0149,1.09115 -0.58729,1.58984 -1.70401,1.41111 -1.54973,-0.24805 -1.75551,0.84842 -2.0042,10.67899 l -0.27715,10.95542 4.64723,1.50942 c 8.02888,2.6078 7.79126,2.89785 7.43263,-9.07277 -0.28289,-9.44297 -0.54093,-10.75049 -2.39263,-12.12345 l -2.07554,-1.53893 3.21573,-3.87034 c 1.76866,-2.12868 3.74924,-3.87033 4.40132,-3.87033 0.93785,0 7.53055,11.07667 7.53055,12.6524 0,0.21292 -0.99923,0.52242 -2.2205,0.68775 -2.1304,0.28841 -2.23176,0.72336 -2.49794,10.71963 -0.27547,10.34553 -0.2598,10.42667 2.2205,11.50393 1.87037,0.81236 2.49794,1.79903 2.49794,3.92731 0,1.69332 -0.4987,2.8071 -1.23362,2.7551 -0.67847,-0.048 -7.8951,-2.32498 -16.03693,-5.05995 z m -45.89032,2.32502 c 0,-0.5174 0.47032,-0.94074 1.04515,-0.94074 0.57482,0 0.77066,0.42334 0.43519,0.94074 -0.33546,0.51741 -0.80578,0.94075 -1.04513,0.94075 -0.23936,0 -0.43521,-0.42334 -0.43521,-0.94075 z m -8.56595,-21.94572 c -7.49848,-2.51217 -8.20975,-3.14374 -4.89391,-4.34548 2.29453,-0.83158 2.6041,-1.45941 2.6041,-5.28134 0,-4.02308 -0.38709,-4.68979 -5.33892,-9.19552 -3.6437,-3.31546 -5.67879,-6.05279 -6.40928,-8.62094 -1.41624,-4.97902 -1.37771,-13.35514 0.0654,-14.2053 1.89727,-1.11774 4.77462,3.25376 4.77462,7.25395 0,2.01231 0.4071,3.65875 0.90465,3.65875 1.36554,0 1.84772,-2.00415 1.3014,-5.40926 -0.62674,-3.90636 0.35723,-3.90139 12.10383,0.0611 l 8.882,2.99623 0.28496,7.11755 c 0.34839,8.7015 -1.54222,11.81058 -7.75807,12.75806 l -3.87608,0.59087 v 5.03217 c 0,4.32954 0.34448,5.24732 2.46723,6.57315 2.33019,1.45542 3.34328,3.29303 1.72705,3.13264 -0.4071,-0.0403 -3.4846,-0.9929 -6.8389,-2.11667 z m 256.7684,-2.51359 c -0.33547,-0.51741 0.1086,-0.94074 0.98688,-0.94074 0.87825,0 1.32236,0.42333 0.9869,0.94074 -0.33547,0.51741 -0.77957,0.94074 -0.9869,0.94074 -0.20732,0 -0.65142,-0.42333 -0.98688,-0.94074 z M 566.2052,349.71787 c -1.60083,-1.11582 -1.65049,-1.3342 -0.30342,-1.3342 0.88589,0 1.90343,0.4515 2.26123,1.00333 1.04602,1.61338 0.10926,1.77168 -1.95781,0.33087 z m 170.70399,-4.86199 c 1.96523,-4.51459 6.3404,-9.71768 9.69038,-11.5241 2.33237,-1.2577 2.91193,-1.25378 5.33082,0.036 1.49266,0.79595 2.71394,2.24193 2.71394,3.21328 0,1.89048 -6.21002,6.64247 -12.8944,9.86697 -5.88439,2.83859 -6.65865,2.58392 -4.84074,-1.59223 z M 550.85187,344.6207 c -1.804,-1.11132 -0.24582,-1.11132 2.46723,0 1.30145,0.5331 1.46953,0.8261 0.49344,0.86021 -0.81419,0.0284 -2.14648,-0.35865 -2.96067,-0.86021 z m -18.25743,-5.64446 c -7.59904,-2.50555 -13.36069,-4.58888 -12.80366,-4.62963 0.55704,-0.0408 7.44059,2.01005 15.29677,4.55734 7.8562,2.54727 13.61784,4.6306 12.80366,4.62963 -0.81419,-9.4e-4 -7.69773,-2.0518 -15.29677,-4.55734 z m 232.92358,-4.67609 c -0.32562,-0.50222 0.13223,-2.24817 1.01743,-3.87992 1.43479,-2.64484 1.77105,-2.81278 3.09845,-1.54742 1.32741,1.26534 1.30546,1.68639 -0.20229,3.87992 -1.78552,2.59764 -2.9374,3.05308 -3.91359,1.54742 z m 11.56035,-0.76097 c 0.25259,-0.92073 -0.13971,-2.20742 -0.87177,-2.8593 -1.85763,-1.65414 -1.66227,-5.5446 0.3318,-6.60837 1.55923,-0.83178 1.55923,-1.03784 0,-3.30624 -1.88602,-2.74384 -2.127,-3.8106 -0.66643,-2.95013 0.54803,0.32287 2.16226,-0.28715 3.58718,-1.3556 1.42495,-1.06844 3.13985,-1.94262 3.8109,-1.94262 1.76661,0 2.89415,9.18783 1.34579,10.96625 -0.96695,1.11062 -0.84925,1.98339 0.59104,4.38252 l 1.79843,2.99572 -3.41582,-3.07395 c -3.30633,-2.97541 -4.76639,-3.13845 -4.76639,-0.53223 0,0.68988 0.63994,1.25433 1.42209,1.25433 2.08229,0 2.87468,1.75796 1.5027,3.33379 -1.75925,2.02066 -5.24499,1.79359 -4.66952,-0.30417 z M 476.3418,321.4744 c -9.4489,-3.06812 -16.68197,-4.92083 -18.01072,-4.6133 -1.56483,0.36215 -2.2205,0.0919 -2.2205,-0.91514 0,-0.78597 0.34195,-1.42904 0.75987,-1.42904 0.41793,0 9.1889,2.71893 19.49105,6.04206 10.30214,3.32313 18.06503,6.04218 17.25085,6.04234 -0.81418,1.7e-4 -8.58593,-2.30695 -17.27055,-5.12692 z m 314.32805,-0.83794 c -0.98674,-1.13336 -0.90999,-1.86392 0.39536,-3.76297 2.89637,-4.21372 5.33904,-2.03403 2.89391,2.58233 -1.59351,3.00851 -1.673,3.03705 -3.28927,1.18064 z m -46.45461,-6.94137 c 0.57951,-1.03218 1.05365,-3.92839 1.05365,-6.43602 0,-4.19874 -0.23338,-4.64328 -2.95113,-5.62115 -3.9652,-1.42671 -5.13813,-4.74074 -4.21147,-11.89907 0.8318,-6.42542 2.41887,-7.30985 3.28221,-1.82906 0.64959,4.12372 1.69107,2.66544 2.11881,-2.96671 0.25738,-3.38921 0.74177,-3.96476 5.70914,-6.78376 7.11324,-4.03679 7.8951,-3.98103 7.8951,0.56307 0,6.68368 -2.04162,13.15733 -5.51907,17.5 -2.88284,3.60014 -3.36292,4.93716 -3.36292,9.36561 0,3.00874 0.43643,5.16595 1.04514,5.16595 1.70922,0 0.031,1.78919 -3.14826,3.35636 -2.86879,1.41414 -2.93071,1.40069 -1.9112,-0.41522 z m 18.81764,-3.41151 c 0.67572,-0.77611 1.67267,-1.41111 2.21546,-1.41111 0.55051,0 0.44365,0.62395 -0.24168,1.41111 -0.67571,0.77611 -1.67267,1.41111 -2.21545,1.41111 -0.55052,0 -0.44365,-0.62395 0.24167,-1.41111 z m 8.882,-11.45002 c 0,-0.86473 0.68916,-2.29814 1.53148,-3.18536 1.68797,-1.77799 2.4193,-17.33687 1.00777,-21.44014 -0.82534,-2.39926 1.86256,-10.49126 3.48487,-10.49126 0.50953,0 1.44727,1.08971 2.08387,2.42157 0.91457,1.91339 0.87475,2.85111 -0.18968,4.46853 -0.81091,1.23215 -1.52798,5.88528 -1.80142,11.68958 -0.50048,10.6232 -0.15838,11.15754 5.04831,7.88507 2.69584,-1.69437 2.78665,-2.02267 3.1199,-11.27875 0.18879,-5.24346 -0.0615,-9.77202 -0.55615,-10.06345 -1.37791,-0.81177 -1.09154,-2.66481 1.17933,-7.63158 l 2.07873,-4.54653 1.57959,3.10806 c 1.326,2.60909 1.3721,3.42477 0.28715,5.08084 -0.71314,1.08851 -1.53332,6.13941 -1.8298,11.2685 -0.46491,8.04262 -0.31098,9.4535 1.14194,10.46624 2.8177,1.96399 0.85494,4.12482 -8.26622,9.10039 -4.75947,2.59629 -8.93393,4.72051 -9.27661,4.72051 -0.34268,0 -0.62306,-0.7075 -0.62306,-1.57222 z"
       id="path819"
       inkscape:connector-curvature="0"
       sodipodi:nodetypes="cssscccssccsccssccsccssccsccsccccccscsccccscscccsscccccsscccsccssscsssccccsccscssscssscccccccccssccccccscccsccsscscsccsscssccscscssscccccscccccscsccscccccsscccsccccccccccscccccccsccccssccccsssccccsccsscccsscsscccssscsccscccsccscsccccss" />
    <path
       style="fill:#ff6600;stroke-width:0.96353942"
       d="m 694.20358,147.51246 c 1.35697,-0.87516 3.60994,-1.85388 5.00658,-2.17493 1.39666,-0.32104 4.22344,-1.67311 6.28175,-3.0046 2.05831,-1.3315 5.13453,-2.67817 6.83607,-2.99263 1.70153,-0.31444 3.98189,-1.36896 5.06747,-2.34337 1.08558,-0.9744 4.86043,-3.97182 8.38856,-6.66091 3.52812,-2.6891 22.37377,-18.44178 41.87922,-35.005959 47.23048,-40.108523 46.44079,-39.459296 50.13163,-41.213926 5.43769,-2.58509 32.56922,-12.98403 32.94402,-12.626752 0.19385,0.184803 -8.41221,8.1383 -19.12461,17.674438 -24.24657,21.584219 -53.27709,47.872719 -56.28701,50.970519 l -2.26838,2.3346 c -21.94266,16.36331 -26.68835,22.06744 -37.79092,31.34508 -2.74245,3.10682 -3.10817,6.48343 -4.3777,40.41873 -0.41648,11.13275 -1.10547,20.77849 -1.53109,21.43497 -0.96799,1.49299 -35.7237,18.14646 -36.44218,17.46155 -0.28922,-0.27569 -0.27117,-14.22367 0.0401,-30.99551 0.4646,-25.0329 0.33064,-30.49423 -0.74801,-30.49423"
       id="path825-3"
       inkscape:connector-curvature="0"
       sodipodi:nodetypes="ccccccsscscccscscc" />
    <path
       style="fill:none;stroke:#000000;stroke-width:1px;stroke-linecap:butt;stroke-linejoin:miter;stroke-opacity:1"
       d="m 275.54809,127.35508 121.02058,32.32793"
       id="path824"
       inkscape:connector-curvature="0"
       sodipodi:nodetypes="cc" />
    <path
       style="fill:none;stroke:#010000;stroke-width:1px;stroke-linecap:butt;stroke-linejoin:miter;stroke-opacity:1"
       d="M 588.95664,211.93874 692.20908,161.63953"
       id="path826"
       inkscape:connector-curvature="0"
       sodipodi:nodetypes="cc" />
    <path
       style="fill:none;stroke:#ffffff;stroke-width:1px;stroke-linecap:butt;stroke-linejoin:miter;stroke-opacity:1"
       d="M 727.69443,85.95091 C 935.67474,2.55784 936.67948,2.55784 936.67948,2.55784"
       id="path828"
       inkscape:connector-curvature="0" />
    <path
       style="fill:none;stroke:#050000;stroke-width:1px;stroke-linecap:butt;stroke-linejoin:miter;stroke-opacity:1"
       d="m 735.26796,143.81402 82.85269,-37.7684"
       id="path830"
       inkscape:connector-curvature="0" />
    <path
       style="fill:none;stroke:#000000;stroke-width:1px;stroke-linecap:butt;stroke-linejoin:miter;stroke-opacity:1"
       d="m 451.07995,171.83226 137.87669,40.10648"
       id="path832"
       inkscape:connector-curvature="0"
       sodipodi:nodetypes="cc" />
    <path
       style="fill:none;stroke:#000000;stroke-width:1px;stroke-linecap:butt;stroke-linejoin:miter;stroke-opacity:1"
       d="m 585.81749,476.01911 3.13915,-264.08037"
       id="path834"
       inkscape:connector-curvature="0"
       sodipodi:nodetypes="cc" />
    <path
       style="fill:none;stroke:#000000;stroke-width:1px;stroke-linecap:butt;stroke-linejoin:miter;stroke-opacity:1"
       d="M 354.17189,103.98778 527.36442,44.31397 722.97334,87.3722"
       id="path836"
       inkscape:connector-curvature="0" />
    <path
       style="fill:none;stroke:#000000;stroke-width:1px;stroke-linecap:butt;stroke-linejoin:miter;stroke-opacity:1"
       d="M 530.424,165.89729 527.36442,44.31397"
       id="path838"
       inkscape:connector-curvature="0" />
  </g>
</svg>
