<?xml version="1.0" encoding="UTF-8" standalone="no"?>
<!-- Created with Inkscape (http://www.inkscape.org/) -->

<svg
   xmlns:dc="http://purl.org/dc/elements/1.1/"
   xmlns:cc="http://creativecommons.org/ns#"
   xmlns:rdf="http://www.w3.org/1999/02/22-rdf-syntax-ns#"
   xmlns:svg="http://www.w3.org/2000/svg"
   xmlns="http://www.w3.org/2000/svg"
   xmlns:sodipodi="http://sodipodi.sourceforge.net/DTD/sodipodi-0.dtd"
   xmlns:inkscape="http://www.inkscape.org/namespaces/inkscape"
   version="1.1"
   id="svg2"
   width="900"
   height="906"
   viewBox="0 0 900 906"
   sodipodi:docname="check1.svg"
   inkscape:version="0.92.3 (2405546, 2018-03-11)"
   inkscape:export-filename="D:\D\aa\PROJECTS\restaurant\png\check1.png"
   inkscape:export-xdpi="750"
   inkscape:export-ydpi="750">
  <metadata
     id="metadata8">
    <rdf:RDF>
      <cc:Work
         rdf:about="">
        <dc:format>image/svg+xml</dc:format>
        <dc:type
           rdf:resource="http://purl.org/dc/dcmitype/StillImage" />
        <dc:title></dc:title>
      </cc:Work>
    </rdf:RDF>
  </metadata>
  <defs
     id="defs6" />
  <sodipodi:namedview
     pagecolor="#ffffff"
     bordercolor="#666666"
     borderopacity="1"
     objecttolerance="10"
     gridtolerance="10"
     guidetolerance="10"
     inkscape:pageopacity="0"
     inkscape:pageshadow="2"
     inkscape:window-width="1280"
     inkscape:window-height="961"
     id="namedview4"
     showgrid="false"
     inkscape:zoom="0.4205298"
     inkscape:cx="424.2999"
     inkscape:cy="213.99319"
     inkscape:window-x="-8"
     inkscape:window-y="-8"
     inkscape:window-maximized="1"
     inkscape:current-layer="g817" />
  <g
     id="g817"
     transform="translate(2.3779559,2.3779491)">
    <path
       style="fill:#00d455;stroke-width:0.94560546"
       d="m 315.67806,733.36445 c -8.13162,-1.0447 -15.13886,-3.08715 -18.5651,-5.41137 -3.94538,-2.67631 -14.70631,-16.82189 -34.12738,-44.86156 -33.35382,-48.15543 -55.23016,-75.1362 -92.43326,-114.00084 -24.11431,-25.19128 -30.84826,-35.37491 -30.86612,-46.67832 -0.0129,-8.20337 3.97412,-15.98796 12.64131,-24.68155 10.99434,-11.02782 32.60206,-24.49596 48.36321,-30.14489 5.1143,-1.833 7.92366,-2.17786 17.36543,-2.13168 9.64426,0.0471 12.31015,0.41845 18.53852,2.58184 21.77549,7.5636 48.66786,25.81607 66.31216,45.00758 15.50481,16.86441 33.9023,41.5203 49.34707,66.13381 7.80139,12.43268 8.59393,13.41699 10.27265,12.75824 0.56308,-0.22096 3.94847,-6.71845 7.52309,-14.43886 3.57461,-7.72042 14.86706,-30.9694 25.09435,-51.66442 70.8164,-143.29783 142.94457,-259.95559 230.87841,-373.41527 36.99762,-47.73747 60.7937,-73.83109 89.17562,-97.785611 16.10443,-13.592316 20.98562,-16.410734 34.34405,-19.830361 14.76916,-3.780791 59.5671,-10.594887 81.93631,-12.463125 4.3883,-0.366509 8.45171,-1.04703 9.02975,-1.512284 0.57813,-0.465245 5.95155,-0.946932 11.94094,-1.070416 10.37477,-0.213885 10.96087,-0.122351 12.38925,1.934758 0.82472,1.187594 1.89293,1.912457 2.37381,1.61081 0.4913,-0.308144 0.87447,1.354393 0.87447,3.794423 0,2.388582 -0.33135,4.342877 -0.7363,4.342877 -0.40494,0 -1.47343,1.266411 -2.37437,2.814246 -0.90103,1.547835 -8.01091,8.466668 -15.79982,15.375184 C 795.90468,96.87779 744.92662,154.58531 686.42466,233.8636 614.6342,331.1496 555.50825,427.42248 505.35704,528.6902 c -20.47435,41.34278 -31.37258,65.25583 -54.48425,119.55005 -10.09567,23.71682 -30.31562,65.1945 -34.66416,71.10741 -5.4412,7.39858 -18.0753,11.97939 -38.91233,14.10862 -11.49867,1.17502 -52.23034,1.11425 -61.61824,-0.0915 z"
       id="path823"
       inkscape:connector-curvature="0"
       sodipodi:nodetypes="ccsscsscssscssscccccccsscsssscccc"
       inkscape:export-xdpi="750"
       inkscape:export-ydpi="750" />
    <path
       style="fill:#333333;stroke-width:0.94560546"
       d="m 79.258324,878.88328 c -2.065079,-0.37523 -3.121085,-0.77127 -2.34668,-0.88011 0.774404,-0.10882 -0.915206,-0.81987 -3.754689,-1.58011 -18.500749,-4.95334 -34.519255,-21.23453 -38.617038,-39.25031 -0.61146,-2.68829 -1.409548,-4.70103 -1.773518,-4.47274 -0.363979,0.22828 -0.92905,-1.56388 -1.255727,-3.9826 -0.892236,-6.60608 -0.607565,-513.64616 0.290857,-518.05405 0.427143,-2.0957 0.860396,-3.16736 0.962777,-2.38148 0.102381,0.78589 0.770012,-1.01467 1.483618,-4.00124 4.668439,-19.53823 20.628522,-35.63833 39.897349,-40.24736 5.319568,-1.27242 31.745367,-1.44926 218.426297,-1.46164 116.80602,-0.008 212.37461,0.22378 212.37461,0.51449 0,0.29071 -1.77765,3.1842 -3.95021,6.42998 -2.17265,3.24578 -8.53056,13.18873 -14.1288,22.09545 l -10.17868,16.19403 -197.05112,0.47629 -197.051144,0.4763 -2.602628,2.64127 -2.602618,2.64127 v 256.3032 256.30319 l 3.065496,2.77963 3.065488,2.77963 H 337.36381 c 194.81372,0 254.42428,-0.26468 256.31308,-1.13805 5.4718,-2.53008 5.13651,10.27086 5.13651,-196.07561 V 445.30514 l 7.57855,-13.02326 c 4.16818,-7.1628 13.98904,-23.45529 21.82413,-36.20554 l 14.24557,-23.18227 0.28282,228.46541 c 0.20895,168.72545 0,229.83539 -0.79045,233.70466 -1.3989,6.82792 -6.46248,17.45349 -10.91394,22.9022 -7.52093,9.20576 -20.00602,17.11979 -29.41733,18.64702 -2.14524,0.34814 -3.41414,0.93802 -2.81977,1.31084 0.59446,0.37283 -1.16649,0.95175 -3.91314,1.28649 -6.88966,0.83967 -510.970061,0.51959 -515.631516,-0.32741 z"
       id="path819"
       inkscape:connector-curvature="0" />
  </g>
</svg>
