<?xml version="1.0" encoding="UTF-8" standalone="no"?>
<!-- Created with Inkscape (http://www.inkscape.org/) -->

<svg
   xmlns:dc="http://purl.org/dc/elements/1.1/"
   xmlns:cc="http://creativecommons.org/ns#"
   xmlns:rdf="http://www.w3.org/1999/02/22-rdf-syntax-ns#"
   xmlns:svg="http://www.w3.org/2000/svg"
   xmlns="http://www.w3.org/2000/svg"
   xmlns:sodipodi="http://sodipodi.sourceforge.net/DTD/sodipodi-0.dtd"
   xmlns:inkscape="http://www.inkscape.org/namespaces/inkscape"
   version="1.1"
   id="svg2"
   width="512"
   height="512"
   viewBox="0 0 512 512"
   sodipodi:docname="commande2.svg"
   inkscape:version="0.92.3 (2405546, 2018-03-11)">
  <metadata
     id="metadata8">
    <rdf:RDF>
      <cc:Work
         rdf:about="">
        <dc:format>image/svg+xml</dc:format>
        <dc:type
           rdf:resource="http://purl.org/dc/dcmitype/StillImage" />
        <dc:title></dc:title>
      </cc:Work>
    </rdf:RDF>
  </metadata>
  <defs
     id="defs6" />
  <sodipodi:namedview
     pagecolor="#ffffff"
     bordercolor="#666666"
     borderopacity="1"
     objecttolerance="10"
     gridtolerance="10"
     guidetolerance="10"
     inkscape:pageopacity="0"
     inkscape:pageshadow="2"
     inkscape:window-width="1280"
     inkscape:window-height="961"
     id="namedview4"
     showgrid="false"
     inkscape:zoom="0.921875"
     inkscape:cx="162.13862"
     inkscape:cy="219.66055"
     inkscape:window-x="-8"
     inkscape:window-y="-8"
     inkscape:window-maximized="1"
     inkscape:current-layer="g817" />
  <g
     id="g817"
     transform="translate(-26.033896,58.57627)">
    <path
       style="fill:#ff6600"
       d="m 113.07574,277.90997 c -4.5859,-2.29423 -9.47706,-5.85725 -13.384362,-9.75 l -6.157485,-6.13454 86.286657,-0.5 c 94.20568,-0.54589 88.16342,-0.12261 88.19804,-6.17857 0.0354,-6.19641 6.79923,-5.82143 -105.0045,-5.82143 H 61.137143 l -7.89206,-2.4931 c -4.34063,-1.37121 -9.87636,-3.95871 -12.30162,-5.75 l -4.40957,-3.2569 122.750007,-0.25395 c 67.5125,-0.13968 177.9875,-0.13968 245.5,0 l 122.75,0.25395 -4.40956,3.2569 c -2.42526,1.79129 -7.96099,4.37879 -12.30163,5.75 -6.73724,2.12829 -9.82333,2.4951 -21.09043,2.50675 -7.25911,0.008 -14.09838,0.26363 -15.19838,0.56915 -1.1,0.30552 -3.575,2.62979 -5.5,5.16504 -6.02029,7.92879 -18.3058,20.46966 -22.94578,23.42271 l -4.44578,2.82945 H 280.97248 120.30261 Z M 92.410593,209.27543 C 99.787918,117.6482 172.58207,41.651496 261.90992,32.319036 c 7.37462,-0.77046 11.89786,-1.71035 12.85964,-2.67213 2.04543,-2.04543 1.09844,-9.58468 -1.6311,-12.98572 -4.52152,-5.63385 -5.30456,-7.2121604 -5.30456,-10.6919604 0,-4.33428 2.70001,-7.53926 8.866,-10.5241603 4.65657,-2.25421 5.56771,-4.3933 2.31153,-5.42677 -4.87717,-1.5479603 -16.93577,3.75054 -20.00985,8.7922403 -2.30138,3.77444 -2.45275,7.24237 -0.46768,10.71489 1.98511,3.4725804 1.83987,4.2522604 -0.55351,2.9713604 -5.19105,-2.7781604 -7.40932,-11.2418704 -4.44754,-16.9693307 8.21234,-15.8809103 48.78976,-15.8809103 57.0021,0 4.69376,9.0767203 -0.81764,17.1181607 -15.10024,22.0320907 -6.51733,2.24229 -7.36369,3.11833 -7.3855,7.64445 -0.0239,4.96104 1.67061,5.81558 14.10867,7.11504 89.19774,9.31887 162.53058,85.861144 169.53658,176.956394 l 0.63449,8.25 H 282.03765 91.746343 Z m 45.906167,-13.17572 c 0.78414,-0.78415 1.7277,-4.37318 2.09678,-7.97562 1.76746,-17.25144 13.62512,-46.4023 28.50543,-70.07773 20.37826,-32.423014 43.90924,-53.971084 67.61493,-61.917154 2.75,-0.92179 6.125,-2.31879 7.5,-3.10445 l 2.5,-1.42846 -3.5,-0.1414 c -6.19725,-0.25036 -9.29774,0.22165 -17.97679,2.73674 -30.90842,8.95691 -60.44632,32.76428 -83.54129,67.333794 -12.93359,19.35953 -22.22591,39.14703 -26.29794,56 -4.8263,19.97471 -4.81263,20 10.81601,20 8.06607,0 11.22366,-0.36651 12.28287,-1.42572 z m 32.14571,-0.14571 c 0.90756,-0.90756 1.57143,-3.27035 1.57143,-5.59291 0,-6.18208 3.68516,-22.861 7.19303,-32.5555 11.70712,-32.35419 42.03577,-73.926714 62.25833,-85.339624 7.1462,-4.03306 7.48262,-6.44817 0.78778,-5.65527 -15.11147,1.78973 -34.2634,14.80311 -49.43823,33.592344 -20.9084,25.88846 -36.59588,60.64154 -40.29047,89.25699 -0.84703,6.56053 0.72729,7.8654 9.48956,7.8654 4.90043,0 7.30556,-0.44841 8.42857,-1.57143 z"
       id="path821"
       inkscape:connector-curvature="0"
       sodipodi:nodetypes="sccsssccscssccscssscccsssscscccccssscsscccscssscccssssccscssscsc" />
    <path
       style="fill:#000000"
       d="m 74.949157,377.82673 v -61.50822 l 2.25,-0.52206 c 4.87064,-1.13009 49.681873,-7.09141 50.041863,-6.65715 0.55763,0.67267 23.70814,106.17279 23.70814,108.04131 0,1.4891 -7.4827,3.67419 -74.250003,21.68234 -1.65282,0.44579 -1.75,-2.94382 -1.75,-61.03622 z m 48.938343,36.44769 c 9.22788,-4.94896 9.22788,-19.3965 0,-24.34546 -6.84877,-3.67304 -15.62279,-1.26989 -19.11108,5.23439 -5.100603,9.51062 1.54304,20.93834 12.17274,20.93834 1.94216,0 5.06441,-0.82227 6.93834,-1.82727 z m 46.5678,-16.42273 c -1.12975,-3.27585 -14.58734,-76.08437 -14.31624,-77.45402 0.33397,-1.68733 8.20672,-5.30793 35.3101,-16.23877 30.20321,-12.181 24.27671,-11.26416 76.37884,-11.81597 46.88227,-0.49654 51.01856,-0.23031 54.38045,3.50012 2.91549,3.23511 3.11008,6.71769 0.54217,9.70307 -2.08642,2.42561 -5.26158,3.43451 -28.82309,9.15851 -33.57191,8.15592 -38.34468,9.71085 -39.83295,12.97725 -2.42471,5.32166 -0.81388,9.82473 4.27509,11.95104 4.29332,1.79387 46.59298,3.88909 60.57949,3.00067 8.78719,-0.55816 11.88656,-1.2384 19,-4.1701 4.675,-1.92672 27.175,-10.97057 50,-20.09743 42.19598,-16.87259 49.00385,-18.93823 53.85659,-16.34112 3.09618,1.65703 3.03056,8.91557 -0.10659,11.78894 -3.44102,3.15168 -29.29091,20.85538 -71.25,48.79666 l -38,25.30486 -47,1.15833 c -78.1695,1.92651 -83.70903,2.28502 -99.73415,6.45453 -15.79255,4.109 -14.70122,3.94283 -15.25971,2.32343 z"
       id="path819"
       inkscape:connector-curvature="0"
       sodipodi:nodetypes="scccsssscsssccsscssssscsscscssc" />
  </g>
</svg>
