<?xml version="1.0" encoding="UTF-8" standalone="no"?>
<!-- Created with Inkscape (http://www.inkscape.org/) -->

<svg
   xmlns:dc="http://purl.org/dc/elements/1.1/"
   xmlns:cc="http://creativecommons.org/ns#"
   xmlns:rdf="http://www.w3.org/1999/02/22-rdf-syntax-ns#"
   xmlns:svg="http://www.w3.org/2000/svg"
   xmlns="http://www.w3.org/2000/svg"
   xmlns:sodipodi="http://sodipodi.sourceforge.net/DTD/sodipodi-0.dtd"
   xmlns:inkscape="http://www.inkscape.org/namespaces/inkscape"
   version="1.1"
   id="svg2"
   width="978"
   height="790"
   viewBox="0 0 978 790"
   sodipodi:docname="commande3.svg"
   inkscape:version="0.92.3 (2405546, 2018-03-11)"
   inkscape:export-filename="D:\D\aa\PROJECTS\restaurant\png\commande3.png"
   inkscape:export-xdpi="750"
   inkscape:export-ydpi="750">
  <metadata
     id="metadata8">
    <rdf:RDF>
      <cc:Work
         rdf:about="">
        <dc:format>image/svg+xml</dc:format>
        <dc:type
           rdf:resource="http://purl.org/dc/dcmitype/StillImage" />
        <dc:title></dc:title>
      </cc:Work>
    </rdf:RDF>
  </metadata>
  <defs
     id="defs6" />
  <sodipodi:namedview
     pagecolor="#ffffff"
     bordercolor="#666666"
     borderopacity="1"
     objecttolerance="10"
     gridtolerance="10"
     guidetolerance="10"
     inkscape:pageopacity="0"
     inkscape:pageshadow="2"
     inkscape:window-width="1280"
     inkscape:window-height="961"
     id="namedview4"
     showgrid="false"
     inkscape:zoom="0.80777096"
     inkscape:cx="489"
     inkscape:cy="395"
     inkscape:window-x="-8"
     inkscape:window-y="-8"
     inkscape:window-maximized="1"
     inkscape:current-layer="g817" />
  <g
     id="g817"
     transform="translate(34.663291,49.51899)"
     style="fill:#000000">
    <path
       style="fill:#ff6600;stroke-width:0.76337945"
       d="m 693.5237,559.92592 c -8.01344,-1.03376 -5.55839,1.18433 -52.84818,-47.74963 -32.38879,-33.51478 -44.68426,-45.76775 -45.92672,-45.76775 -0.93319,0 -3.40233,0.89682 -5.48698,1.99292 -14.97287,7.87268 -38.24513,14.73398 -59.4856,17.53796 -9.61549,1.26936 -34.5356,1.27497 -44.21558,0.0104 -43.11218,-5.63403 -80.70639,-24.19832 -111.19666,-54.90971 -32.11854,-32.35147 -50.76464,-71.30133 -57.14679,-119.37402 -1.35998,-10.24388 -1.18249,-38.46746 0.31068,-49.40425 6.08767,-44.58922 24.61671,-83.56299 54.43953,-114.50745 30.00783,-31.13643 65.9449,-49.785269 109.24274,-56.689369 11.65036,-1.85773 40.87328,-1.85212 53.06258,0.0104 73.42909,11.218579 132.59811,62.649549 155.82912,135.449969 3.01868,9.45995 5.93756,22.5151 7.68207,34.35944 1.79821,12.20992 1.79172,42.60268 -0.0114,54.66949 -2.92867,19.59399 -7.42375,35.98878 -14.46094,52.74286 -2.21459,5.27225 -4.02646,9.98941 -4.02646,10.48258 0,0.49315 19.67521,21.37382 43.72248,46.40146 29.55492,30.75968 44.15651,46.4933 45.06176,48.55539 3.19302,7.27336 1.99986,17.9788 -3.28315,29.45883 -8.18459,17.78522 -27.72871,38.90948 -45.58556,49.27119 -8.56741,4.97132 -19.7601,8.22316 -25.67662,7.45996 z M 518.87303,429.83743 c 48.86122,-4.48717 90.80327,-34.30779 112.06879,-79.68046 20.93414,-44.66549 17.7616,-97.70039 -8.31808,-139.05484 -38.16242,-60.51383 -112.28529,-82.05006 -174.53393,-50.71041 -56.32127,28.35546 -86.93964,92.51632 -74.53147,156.18081 8.40019,43.1 36.53495,80.51009 74.90618,99.60088 22.69127,11.28956 46.32372,15.87584 70.40851,13.66402 z"
       id="path825"
       inkscape:connector-curvature="0"
       sodipodi:nodetypes="ccscscssssscccccsccscccsccssss" />
    <path
       style="fill:#000000;stroke-width:0.76337945"
       d="m 264.61396,558.62592 v -13.57579 l 22.79579,-0.22666 c 12.53769,-0.12466 23.01395,-0.45351 23.28059,-0.73077 0.26666,-0.27727 0.97699,-2.72672 1.57852,-5.44321 2.89332,-13.06608 9.86285,-30.36764 14.1799,-35.20101 l 1.79405,-2.00861 h 63.66958 63.66956 l 1.99122,2.45543 c 4.53042,5.5866 11.50644,23.24966 13.8494,35.0663 0.57524,2.90116 1.3777,4.74611 2.28296,5.24882 0.8359,0.46419 10.13511,0.77519 23.17831,0.77519 h 21.78234 v 13.60805 13.60803 H 391.64007 264.61396 Z M 123.34893,483.60914 c -6.3938,-1.60476 -11.84999,-5.90417 -15.01352,-11.83049 l -2.22306,-4.16449 V 280.60076 93.587371 l 1.86648,-3.79219 c 2.39618,-4.86844 7.31518,-9.34095 12.47768,-11.34513 4.05153,-1.5729 4.93748,-1.58087 169.85308,-1.5273 l 165.78032,0.0538 -10.86655,3.71806 c -13.62843,4.66306 -20.26059,7.44667 -30.76036,12.91056 -10.95433,5.70042 -22.01063,12.775479 -31.0564,19.873369 -4.04419,3.17331 -8.06157,6.20192 -8.9275,6.73021 -1.23,0.7504 -25.64564,0.96304 -111.60058,0.972 -77.36209,0.008 -110.47534,0.2609 -111.53917,0.85166 -3.79919,2.10973 -3.63469,-5.04832 -3.63019,157.96013 0.003,102.82219 0.25606,152.79298 0.78431,154.76664 1.5087,5.63688 -6.38813,5.25006 107.17646,5.25006 h 102.04406 l 6.47121,6.36336 c 12.76011,12.54745 27.14622,23.43344 43.37998,32.82569 4.22484,2.44433 7.68152,4.59951 7.68152,4.78927 0,0.59259 -289.52446,0.21721 -291.89777,-0.37846 z m 51.33505,-119.80491 v -32.65931 h 31.47549 31.47549 v 32.65931 32.6593 h -31.47549 -31.47549 z m 81.6864,-0.0115 v -32.67038 l 23.29863,0.20548 23.29862,0.20547 2.48261,10.10884 c 2.7951,11.38118 6.52781,22.78277 10.90615,33.31291 2.73997,6.58979 2.96158,7.66032 2.96322,14.31524 l 0.002,7.19286 h -31.476 -31.4755 v -32.67001 z m 207.02633,-7.13817 -36.15935,-23.44313 v -41.90138 -41.90136 l 2.06089,1.26799 c 1.1335,0.6974 17.57382,11.30853 36.53407,23.58031 l 34.47316,22.31229 0.19387,41.78229 c 0.10663,22.98023 -0.062,41.77412 -0.37471,41.76419 -0.31271,-0.0103 -16.84029,-10.56746 -36.72793,-23.4612 z m 54.13258,22.55656 c -0.2073,-0.56172 -0.28922,-19.35783 -0.18206,-41.76915 l 0.19484,-40.74782 36.3467,-23.82977 36.34671,-23.82979 0.19393,41.60376 c 0.15221,32.65292 -0.009,41.79636 -0.74941,42.49898 -0.71067,0.67441 -65.74751,43.38386 -70.83175,46.51494 -0.53473,0.32933 -1.10503,0.13859 -1.31896,-0.44112 z M 174.68398,280.60076 v -32.65931 h 31.47549 31.47549 v 32.65931 32.65931 h -31.47549 -31.47549 z m 81.6864,0 v -32.65931 h 23.09104 23.09103 l -0.93079,5.63762 c -2.00748,12.15898 -2.75259,25.89362 -2.32022,42.76814 l 0.43337,16.91286 h -21.68222 -21.68221 z m 216.64351,-21.99858 c -19.13217,-12.49245 -34.7794,-23.06348 -34.77162,-23.49117 0.0219,-1.20477 70.12238,-44.84619 71.41323,-44.45867 1.85594,0.55715 71.15482,43.61844 71.3805,44.35477 0.25985,0.84786 -70.58395,46.36572 -72.11223,46.33282 -0.61827,-0.0133 -16.77772,-10.24529 -35.90988,-22.73775 z M 175.19178,229.54671 c -0.27929,-0.2898 -0.5078,-15.16528 -0.5078,-33.05663 v -32.52969 h 31.48362 31.48364 l -0.19549,32.85371 -0.1955,32.8537 -30.78032,0.20291 c -16.92918,0.11161 -31.00884,-0.0343 -31.28815,-0.324 z m 81.67822,-0.008 c -0.27479,-0.28509 -0.49962,-15.15673 -0.49962,-33.04808 v -32.52969 h 31.50443 31.50444 l -0.23467,16.13524 -0.23468,16.13525 -3.16427,7.19966 c -1.74035,3.95981 -4.43653,11.1332 -5.99151,15.94085 -1.55497,4.80766 -3.09351,9.17861 -3.41896,9.71321 -0.45344,0.74483 -6.24433,0.972 -24.77865,0.972 -13.3028,0 -24.41173,-0.23328 -24.68651,-0.51841 z M 673.28154,154.046 C 649.21138,121.4072 613.20692,95.184691 573.7483,81.554661 l -13.4895,-4.65962 50.58563,0.18135 50.58562,0.18136 3.64089,1.85974 c 4.62445,2.36214 8.1679,6.03886 10.78544,11.19109 l 2.06083,4.05642 0.22538,32.464909 c 0.12395,17.85569 -0.0481,32.4649 -0.38242,32.4649 -0.33429,0 -2.34967,-2.36197 -4.47863,-5.24881 z"
       id="path819"
       inkscape:connector-curvature="0" />
  </g>
</svg>
