<?xml version="1.0" encoding="UTF-8" standalone="no"?>
<!-- Created with Inkscape (http://www.inkscape.org/) -->

<svg
   xmlns:dc="http://purl.org/dc/elements/1.1/"
   xmlns:cc="http://creativecommons.org/ns#"
   xmlns:rdf="http://www.w3.org/1999/02/22-rdf-syntax-ns#"
   xmlns:svg="http://www.w3.org/2000/svg"
   xmlns="http://www.w3.org/2000/svg"
   xmlns:sodipodi="http://sodipodi.sourceforge.net/DTD/sodipodi-0.dtd"
   xmlns:inkscape="http://www.inkscape.org/namespaces/inkscape"
   version="1.1"
   id="svg2"
   width="1024"
   height="680"
   viewBox="0 0 1024 680"
   sodipodi:docname="delivery.svg"
   inkscape:version="0.92.3 (2405546, 2018-03-11)">
  <metadata
     id="metadata8">
    <rdf:RDF>
      <cc:Work
         rdf:about="">
        <dc:format>image/svg+xml</dc:format>
        <dc:type
           rdf:resource="http://purl.org/dc/dcmitype/StillImage" />
        <dc:title></dc:title>
      </cc:Work>
    </rdf:RDF>
  </metadata>
  <defs
     id="defs6" />
  <sodipodi:namedview
     pagecolor="#ffffff"
     bordercolor="#666666"
     borderopacity="1"
     objecttolerance="10"
     gridtolerance="10"
     guidetolerance="10"
     inkscape:pageopacity="0"
     inkscape:pageshadow="2"
     inkscape:window-width="1280"
     inkscape:window-height="961"
     id="namedview4"
     showgrid="false"
     inkscape:zoom="0.77148437"
     inkscape:cx="512"
     inkscape:cy="340"
     inkscape:window-x="-8"
     inkscape:window-y="-8"
     inkscape:window-maximized="1"
     inkscape:current-layer="g817" />
  <g
     id="g817"
     transform="translate(-17.28814,-20.169488)">
    <path
       style="fill:#fe0266"
       d="m 712.56805,339.79791 c 0,-0.47816 1.8576,-3.20242 4.128,-6.05392 8.3475,-10.48399 16.3015,-26.79257 20.9841,-43.02509 4.4928,-15.57426 4.4317,-44.96316 -0.1297,-62.37791 -5.2168,-19.91741 -15.6211,-37.42898 -31.9241,-53.73198 -24.7066,-24.70664 -52.2282,-35.99166 -87.5583,-35.90266 -43.6949,0.11007 -83.0292,22.5816 -105.0078,59.99055 -11.4065,19.41447 -16.4631,39.5747 -16.484,65.72038 l -0.01,10.25 h -8.441 c -5.6605,0 -8.7038,-0.41175 -9.239,-1.25 -1.2875,-2.01657 -0.4355,-27.82406 1.2355,-37.42514 1.8913,-10.86723 7.1104,-26.71789 12.0133,-36.48499 19.6557,-39.1561 53.3277,-65.55536 97.4312,-76.38725 9.8459,-2.41817 38.9045,-3.03755 51.5734,-1.09928 28.7099,4.39244 53.8603,17.25966 76.1038,38.93567 21.7693,21.21383 34.5083,44.17889 40.3164,72.67967 2.5317,12.42305 2.7548,36.46922 0.4607,49.65033 -2.9131,16.7381 -12.8666,41.49187 -21.364,53.13099 l -3.1028,4.25 h -10.4938 c -5.7715,0 -10.4937,-0.39122 -10.4937,-0.86937 z m -38.839,-27.14353 c -2.3864,-1.08294 -17.8352,-9.70065 -34.3305,-19.15047 l -29.9917,-17.18148 0.3755,-49.07757 c 0.2588,-33.82075 0.7308,-49.90201 1.5186,-51.72956 2.4503,-5.68482 12.569,-5.71675 15.2855,-0.0482 0.9684,2.02085 1.4434,13.84271 1.8878,46.98687 0.507,37.8133 0.8131,44.42999 2.0938,45.26734 0.825,0.53937 11.6351,6.79758 24.0223,13.90711 25.3248,14.53487 30.5677,18.04483 32.154,21.52638 1.4982,3.28818 -0.5614,8.14319 -4.2675,10.05968 -3.5148,1.81759 -3.5071,1.81809 -8.7478,-0.56006 z"
       id="path825"
       inkscape:connector-curvature="0"
       sodipodi:nodetypes="csccsscccscccsscccccscccccsccscccccc" />
    <path
       style="fill:#000000"
       d="m 421.87342,556.28941 c -9.80538,-4.88623 -15.31796,-13.67703 -16.0279,-25.55938 -0.78446,-13.12944 4.58714,-23.73051 14.85405,-29.31511 4.3926,-2.38932 6.93776,-3.02202 13.55349,-3.36925 14.14189,-0.74226 24.73487,4.72426 30.0228,15.4933 2.5054,5.10231 2.85476,6.92438 2.84118,14.81769 -0.0187,10.84713 -2.53113,17.50251 -8.71705,23.09112 -6.49994,5.87231 -10.89997,7.36181 -21.82112,7.38692 -8.27908,0.019 -10.24096,-0.32054 -14.70545,-2.54529 z m 19.61306,-8.48559 c 21.12137,-4.87023 19.62525,-36.6573 -1.82235,-38.71815 -7.70571,-0.74042 -11.74027,0.46126 -16.60549,4.94587 -11.34824,10.46044 -7.06504,29.49032 7.57389,33.65017 4.58607,1.30319 5.67849,1.31548 10.85395,0.12211 z m 255.14605,9.37481 c -5.38739,-2.3318 -11.69956,-7.95468 -14.74438,-13.13432 -2.5349,-4.31218 -2.75562,-5.52867 -2.75562,-15.18765 0,-8.38725 0.37969,-11.20425 1.88701,-14 3.76831,-6.98938 7.72213,-10.92841 14.14168,-14.08874 6.04712,-2.97699 6.92048,-3.1332 15.19362,-2.71763 10.35419,0.5201 16.20271,2.76896 21.56776,8.29317 6.27141,6.45747 7.71125,10.67925 7.70055,22.57892 -0.009,9.71683 -0.21225,10.78797 -2.95966,15.57822 -3.71975,6.48556 -9.13308,10.99646 -15.46246,12.88478 -6.36228,1.89814 -19.96992,1.78363 -24.5685,-0.20675 z m 25.18829,-12.51552 c 1.94164,-1.48146 4.3345,-4.38838 5.31747,-6.45983 6.87566,-14.48937 -2.24505,-29.34662 -18.01558,-29.34662 -6.37894,0 -9.64125,1.41839 -14.17885,6.16468 -4.00169,4.18574 -5.31133,7.62306 -5.31133,13.94026 0,6.4775 2.90132,12.08335 8.27716,15.99291 4.01599,2.92061 4.61859,3.05466 12.30186,2.73659 6.9414,-0.28735 8.57612,-0.71372 11.60927,-3.02799 z M 311.91569,504.77929 c -2.62303,-0.78493 -3.41883,-1.71277 -4.31108,-5.02631 -1.37938,-5.12264 -0.44194,-9.55263 2.3592,-11.1486 1.55958,-0.88858 12.42069,-1.39003 38.66872,-1.78529 33.55248,-0.50526 36.82195,-0.70763 40.4868,-2.50604 5.32759,-2.61433 8.5132,-7.5365 8.5132,-13.15393 0,-5.3394 -1.79036,-9.0332 -6.29562,-12.98887 l -3.39779,-2.98329 -41.40329,-0.66383 c -22.77182,-0.36511 -49.39741,-0.66443 -59.168,-0.66515 l -17.7647,-10e-4 -1.98156,-3.25 c -2.48187,-4.07057 -2.51127,-7.38135 -0.10063,-11.33453 l 1.88094,-3.08454 74.67498,-0.66007 74.67498,-0.66008 3.39001,-2.58568 c 4.57452,-3.48916 7.89501,-10.45627 7.07264,-14.83992 -1.00428,-5.35327 -5.93156,-11.33349 -10.30507,-12.50722 -2.1241,-0.57006 -26.62616,-1.3559 -55.99128,-1.79579 -59.58251,-0.89254 -55.84603,-0.26496 -55.71176,-9.35738 0.13088,-8.86252 -4.51775,-8.18279 62.64828,-9.16054 32.60283,-0.47461 60.94174,-1.3017 62.97535,-1.83799 4.74653,-1.25171 9.43106,-5.95439 10.9364,-10.97878 1.58557,-5.29216 -0.005,-10.4612 -4.58577,-14.90085 -3.37058,-3.2669 -3.89664,-3.42596 -13.77626,-4.16542 -5.64952,-0.42284 -21.4238,-0.7941 -35.05397,-0.82501 -28.93061,-0.0656 -30.94991,-0.49047 -32.66868,-6.87347 -1.19569,-4.44048 -0.69291,-6.63652 2.27413,-9.93273 2.00649,-2.2291 2.29072,-2.25088 30.60098,-2.3443 15.71663,-0.0519 37.822,-0.39036 49.12305,-0.75222 23.09614,-0.73953 24.35754,-1.10649 27.93978,-8.12827 2.90301,-5.69037 2.62318,-10.891 -0.84074,-15.62517 -5.47535,-7.4832 -3.98758,-7.12059 -32.1464,-7.83493 -30.14881,-0.76483 -32.65065,-1.04382 -34.12884,-3.80585 -1.82842,-3.41644 -1.25121,-9.82369 1.09645,-12.17104 l 2.08851,-2.08822 h 98.72194 c 76.21538,0 99.66014,0.28549 102.83722,1.25227 5.06369,1.54086 12.68406,9.35766 14.4921,14.86565 1.56925,4.78056 2.5289,163.59644 1.09185,180.69501 -0.80159,9.53764 -1.25024,11.29301 -3.804,14.88338 -1.63858,2.30369 -5.71651,5.77242 -9.39523,7.99166 l -6.5,3.92123 -58,-0.30503 c -53.31287,-0.28037 -58.32266,-0.45048 -61.99274,-2.10499 -2.19601,-0.98999 -7.65019,-5.54067 -12.1204,-10.11262 -11.46041,-11.72125 -16.34069,-13.98066 -31.15352,-14.42302 -10.79076,-0.32225 -11.53954,-0.20876 -17.72739,2.68688 -4.44109,2.07824 -9.26984,5.68553 -15.44695,11.53956 -14.08558,13.34888 -8.72336,12.08055 -52.01302,12.30265 -21.78276,0.11176 -38.89653,-0.21151 -40.76282,-0.77 z m 337.13551,0.002 c -5.73838,-1.6662 -6.67057,-3.75831 -7.66022,-17.19169 -1.13716,-15.43586 -0.3624,-132.18781 0.90405,-136.23324 0.59508,-1.9009 2.20283,-3.64057 4.38833,-4.74845 3.11636,-1.57973 7.35705,-1.74717 43.94917,-1.73525 30.16088,0.01 41.13822,0.32931 43,1.2515 3.15796,1.56422 9.406,10.93342 34.70975,52.04872 l 20.29025,32.969 -0.11831,32.10724 c -0.0651,17.65898 -0.40258,33.40968 -0.75,35.00154 -0.34743,1.59187 -1.89903,3.83951 -3.448,4.99476 -2.5014,1.86559 -4.47091,2.14081 -17.61391,2.46137 l -14.79759,0.36092 -5.14042,-6.85568 c -6.49168,-8.65754 -15.05066,-15.79806 -22.13177,-18.46363 -4.67103,-1.75833 -7.2333,-2.01658 -17,-1.71337 -10.45504,0.32458 -11.97846,0.6205 -16.76558,3.25673 -6.97349,3.84025 -12.52773,8.69369 -17.22396,15.05074 -6.28414,8.50652 -6.31505,8.52469 -14.33189,8.42397 -3.94821,-0.0496 -8.56517,-0.4928 -10.2599,-0.98488 z m 103.30922,-81.76887 c 8.091,-0.57523 9.54244,-0.97069 11.78102,-3.20981 1.40423,-1.40456 2.81889,-4.19139 3.1437,-6.19294 0.69372,-4.27494 -3.13772,-11.917 -17.92536,-35.75331 -13.83711,-22.30414 -17.29588,-26.8291 -21.04126,-27.52739 -1.7523,-0.3267 -12.96422,-0.45419 -24.91539,-0.28331 l -21.7294,0.3107 -2.7706,2.77204 -2.7706,2.77205 v 29.22795 c 0,16.07538 0.34281,30.45247 0.76181,31.9491 1.079,3.85415 4.02563,5.10423 13.73819,5.82831 11.44717,0.8534 50.28041,0.92047 61.72789,0.10661 z M 231.8381,401.80906 c -3.50042,-1.40483 -5.58791,-7.26388 -4.14533,-11.63493 1.82626,-5.53362 4.96023,-6.31747 25.25842,-6.31747 10.14304,0 18.70718,0.46165 20.5625,1.10842 6.20607,2.16344 7.76241,10.44873 2.92914,15.59351 -2.11746,2.25393 -2.54453,2.29685 -22.23461,2.23468 -11.04163,-0.0349 -21.10818,-0.47775 -22.37012,-0.98421 z m -25.14276,-52.21714 c -3.21286,-1.6284 -4.61015,-6.96505 -3.12314,-11.92822 0.92747,-3.09565 1.74901,-3.90421 4.83874,-4.7623 5.08811,-1.4131 111.37934,-1.40635 116.46999,0.007 6.79075,1.88589 8.68279,10.19885 3.5619,15.64979 l -2.15893,2.29847 -58.57568,-0.0147 c -44.48106,-0.0112 -59.16213,-0.31197 -61.01288,-1.25 z m 70.39174,-52.18981 c -4.04864,-4.04863 -2.81237,-12.15013 2.20277,-14.43518 1.66045,-0.75655 15.62016,-1.11027 43.81715,-1.11027 h 41.38037 l 2.07258,2.63486 c 1.25547,1.59607 2.07258,4.10551 2.07258,6.36514 0,2.25963 -0.81711,4.76907 -2.07258,6.36514 l -2.07258,2.63486 H 322.0145 279.54162 Z"
       id="path819"
       inkscape:connector-curvature="0" />
  </g>
</svg>
