<?xml version="1.0" encoding="UTF-8" standalone="no"?>
<!-- Created with Inkscape (http://www.inkscape.org/) -->

<svg
   xmlns:dc="http://purl.org/dc/elements/1.1/"
   xmlns:cc="http://creativecommons.org/ns#"
   xmlns:rdf="http://www.w3.org/1999/02/22-rdf-syntax-ns#"
   xmlns:svg="http://www.w3.org/2000/svg"
   xmlns="http://www.w3.org/2000/svg"
   xmlns:sodipodi="http://sodipodi.sourceforge.net/DTD/sodipodi-0.dtd"
   xmlns:inkscape="http://www.inkscape.org/namespaces/inkscape"
   version="1.1"
   id="svg2"
   width="900"
   height="800"
   viewBox="0 0 900 800"
   sodipodi:docname="fourchette.svg"
   inkscape:version="0.92.3 (2405546, 2018-03-11)"
   inkscape:export-filename="D:\D\aa\PROJECTS\restaurant\png\fourchette2.png"
   inkscape:export-xdpi="750"
   inkscape:export-ydpi="750">
  <metadata
     id="metadata8">
    <rdf:RDF>
      <cc:Work
         rdf:about="">
        <dc:format>image/svg+xml</dc:format>
        <dc:type
           rdf:resource="http://purl.org/dc/dcmitype/StillImage" />
        <dc:title></dc:title>
      </cc:Work>
    </rdf:RDF>
  </metadata>
  <defs
     id="defs6" />
  <sodipodi:namedview
     pagecolor="#ffffff"
     bordercolor="#666666"
     borderopacity="1"
     objecttolerance="10"
     gridtolerance="10"
     guidetolerance="10"
     inkscape:pageopacity="0"
     inkscape:pageshadow="2"
     inkscape:window-width="1280"
     inkscape:window-height="961"
     id="namedview4"
     showgrid="false"
     showguides="true"
     inkscape:guide-bbox="true"
     inkscape:zoom="0.87777778"
     inkscape:cx="448.16854"
     inkscape:cy="394.90266"
     inkscape:window-x="-8"
     inkscape:window-y="-8"
     inkscape:window-maximized="1"
     inkscape:current-layer="g817">
    <sodipodi:guide
       position="502.49767,178.88917"
       orientation="0,1"
       id="guide987"
       inkscape:locked="false" />
    <sodipodi:guide
       position="434.49298,137.68436"
       orientation="1,0"
       id="guide989"
       inkscape:locked="false" />
    <sodipodi:guide
       position="479.71777,204.34905"
       orientation="1,0"
       id="guide991"
       inkscape:locked="false" />
  </sodipodi:namedview>
  <g
     id="g817"
     transform="translate(-180.6021,654.13912)">
    <path
       style="fill:#000000;stroke-width:0.8;stroke:none;stroke-opacity:1;stroke-miterlimit:4;stroke-dasharray:none;fill-opacity:1"
       d="m 615.09508,-33.02829 c 0,0 -0.29686,-15.098851 -0.73926,-32.233997 -1.10258,-42.705123 0.0577,-70.497493 -6.90616,-100.161353 -8.40633,-35.80883 -15.46035,-53.06028 -36.82746,-90.06602 -19.24491,-33.33026 -24.97941,-47.05822 -30.5862,-73.22095 -2.5544,-11.9195 -3.08936,-66.63592 -0.84714,-86.6466 0.73911,-6.59624 1.55714,-18.34248 1.81785,-26.10276 l 0.47401,-14.1096 -4.47037,0.17794 c -5.86255,0.23333 -25.70281,9.85036 -43.10608,20.89451 -25.14215,15.95523 -49.16318,39.0431 -66.94321,64.3426 -7.72343,10.98981 -19.14586,33.95201 -23.69268,47.62875 -10.58369,31.83553 -11.07449,34.9081 -11.09013,69.42894 -0.0146,31.52625 0.0199,31.87394 4.93191,50.08909 8.84616,32.80448 19.43328,54.26784 39.11756,79.30335 36.04724,45.846832 84.39236,75.393147 145.99818,89.227434 9.70637,1.448666 16.52208,1.448666 32.86918,1.448666 z"
       id="path829-8-9"
       inkscape:connector-curvature="0"
       sodipodi:nodetypes="cscsscsccsssccscc" />
    <path
       style="fill:#ff0000;stroke-width:1.43718159"
       d="m 627.14642,-358.44038 c -1.0047,-1.80942 -1.51539,-37.26538 -1.51539,-105.20926 0,-67.94389 0.51069,-103.39984 1.51539,-105.20926 1.25369,-2.25784 3.11882,-2.72916 10.79994,-2.72916 5.70933,0 9.82052,0.67914 10.67646,1.7637 1.65172,2.09288 1.53671,209.83548 -0.11755,212.4154 -0.66502,1.03713 -4.7375,1.69774 -10.466,1.69774 -7.77292,0 -9.63667,-0.46696 -10.89279,-2.72916 z m -43.96823,-3.38097 -6.5875,-1.65015 -0.87936,-13.40412 c -0.48366,-7.37226 -0.78134,-52.65319 -0.66153,-100.62428 0.17521,-70.1546 0.59259,-87.44343 2.13318,-88.36113 3.36339,-2.00354 18.08509,-3.10444 19.77195,-1.47857 1.5251,1.46995 2.67943,201.50329 1.18664,205.6318 -0.77353,2.13933 -6.1321,2.09866 -14.96338,-0.11358 z m 94.80922,0.97682 c -0.39535,-0.66881 -0.64444,-47.11302 -0.55354,-103.20936 0.17812,-109.91742 -0.11286,-105.87272 7.48473,-104.04439 1.61028,0.38751 4.90403,0.72295 7.31945,0.74544 9.02108,0.084 8.49921,-4.83248 8.86048,83.46994 0.18205,44.49749 -0.0264,89.6875 -0.4631,100.42225 -0.76317,18.75772 -0.92565,19.56593 -4.17246,20.75574 -5.33882,1.95642 -17.68396,3.19951 -18.47556,1.86038 z"
       id="path829-3"
       inkscape:connector-curvature="0"
       sodipodi:nodetypes="cscsccsccccsscscccssccsscs" />
    <path
       sodipodi:nodetypes="cscsscsccsssccscc"
       inkscape:connector-curvature="0"
       id="path1173"
       d="m 660.31987,-33.02829 c 0,0 0.29686,-15.098851 0.73926,-32.233997 1.10258,-42.705123 -0.0577,-70.497493 6.90616,-100.161353 8.40633,-35.80883 15.46035,-53.06028 36.82746,-90.06602 19.24491,-33.33026 24.97941,-47.05822 30.5862,-73.22095 2.5544,-11.9195 3.08936,-66.63592 0.84714,-86.6466 -0.73911,-6.59624 -1.55714,-18.34248 -1.81785,-26.10276 l -0.47401,-14.1096 4.47037,0.17794 c 5.86255,0.23333 25.70281,9.85036 43.10608,20.89451 25.14215,15.95523 49.16318,39.0431 66.94321,64.3426 7.72343,10.98981 19.14586,33.95201 23.69268,47.62875 10.58369,31.83553 11.07449,34.9081 11.09013,69.42894 0.0146,31.52625 -0.0199,31.87394 -4.93191,50.08909 -8.84616,32.80448 -19.43328,54.26784 -39.11756,79.30335 -36.04724,45.846832 -84.39236,75.393147 -145.99818,89.227434 -9.70637,1.448666 -16.52208,1.448666 -32.86918,1.448666 z"
       style="fill:#000000;stroke-width:0.8;stroke:none;stroke-opacity:1;stroke-miterlimit:4;stroke-dasharray:none;fill-opacity:1" />
  </g>
</svg>
