<?xml version="1.0" encoding="UTF-8" standalone="no"?>
<!-- Created with Inkscape (http://www.inkscape.org/) -->

<svg
   xmlns:dc="http://purl.org/dc/elements/1.1/"
   xmlns:cc="http://creativecommons.org/ns#"
   xmlns:rdf="http://www.w3.org/1999/02/22-rdf-syntax-ns#"
   xmlns:svg="http://www.w3.org/2000/svg"
   xmlns="http://www.w3.org/2000/svg"
   xmlns:sodipodi="http://sodipodi.sourceforge.net/DTD/sodipodi-0.dtd"
   xmlns:inkscape="http://www.inkscape.org/namespaces/inkscape"
   version="1.1"
   id="svg2"
   width="900"
   height="795"
   viewBox="0 0 900 795"
   sodipodi:docname="panier.svg"
   inkscape:version="0.92.3 (2405546, 2018-03-11)"
   inkscape:export-filename="D:\D\aa\PROJECTS\restaurant\png\panier2.png"
   inkscape:export-xdpi="750"
   inkscape:export-ydpi="750">
  <metadata
     id="metadata8">
    <rdf:RDF>
      <cc:Work
         rdf:about="">
        <dc:format>image/svg+xml</dc:format>
        <dc:type
           rdf:resource="http://purl.org/dc/dcmitype/StillImage" />
        <dc:title></dc:title>
      </cc:Work>
    </rdf:RDF>
  </metadata>
  <defs
     id="defs6" />
  <sodipodi:namedview
     pagecolor="#ffffff"
     bordercolor="#666666"
     borderopacity="1"
     objecttolerance="10"
     gridtolerance="10"
     guidetolerance="10"
     inkscape:pageopacity="0"
     inkscape:pageshadow="2"
     inkscape:window-width="1280"
     inkscape:window-height="961"
     id="namedview4"
     showgrid="false"
     inkscape:zoom="0.87777778"
     inkscape:cx="450"
     inkscape:cy="397.5"
     inkscape:window-x="-8"
     inkscape:window-y="-8"
     inkscape:window-maximized="1"
     inkscape:current-layer="g817" />
  <g
     id="g817"
     transform="translate(-4.5569643,-3.4177259)">
    <path
       style="fill:#a29e9e;stroke-width:0.73338962"
       d="m 286.03729,631.7081 c -6.5587,-2.28334 -69.294,19.16686 -73.25816,14.64366 -6.92707,-7.90391 -6.80577,-7.46687 -22.08642,-79.58056 -17.75982,-83.81364 -27.27316,-128.28872 -27.7883,-129.91102 -0.33616,-1.05863 -1.306,-1.27614 -5.70573,-1.27964 -14.36407,-0.0114 -23.21259,-4.21572 -27.87734,-13.24564 -2.57557,-4.98574 -2.88941,-6.67734 -4.37023,-23.55523 -0.77372,-8.81864 -1.78795,-18.07413 -2.25385,-20.56774 -0.63172,-3.38112 -0.63599,-5.73094 -0.0168,-9.24222 0.45664,-2.58961 8.63645,-35.77522 18.17736,-73.74581 12.42514,-49.44922 17.89889,-70.03865 19.29185,-72.56616 2.63775,-4.78611 9.60116,-11.18168 14.7876,-13.58171 l 4.2665,-1.97433 45.51026,-0.36441 c 25.03064,-0.20042 45.71601,-0.56787 45.96748,-0.81655 0.25148,-0.24867 3.45868,-21.2385 7.12712,-46.64407 4.26417,-29.53132 7.11576,-47.11197 7.9061,-48.74277 1.45859,-3.0097 5.79959,-5.39583 12.08061,-6.6404 3.7351,-0.74009 4.51476,-0.67454 7.01094,0.5895 1.71926,0.87061 21.75703,20.62223 51.66503,50.92723 28.58216,28.96155 49.78397,49.88149 51.09147,50.41224 1.75415,0.71203 15.24505,0.80391 62.70994,0.42705 l 60.47497,-0.48017 42.79828,-49.29918 c 23.53905,-27.11455 44.12965,-50.21035 45.7569,-51.324 4.48806,-3.07154 7.92448,-3.24407 11.62417,-0.58361 1.66248,1.1955 4.06457,2.70571 5.33796,3.35601 3.8549,1.96865 2.29745,-2.98013 22.61303,71.85262 2.99261,11.0233 5.81208,21.43623 6.2655,23.13983 l 0.82439,3.09746 h 28.34801 c 30.07502,0 33.46703,0.29431 39.81977,3.45499 4.98882,2.4821 11.83511,9.10929 14.05173,13.60207 1.77322,3.59405 34.86565,133.45871 36.6723,143.91316 0.69901,4.04493 0.52155,8.4612 -1.08614,27.03003 l -1.92167,22.19516 -2.64759,5.29038 c -2.93432,5.86335 -6.63018,9.38325 -12.61586,12.01523 -2.79929,1.23087 -5.64235,1.69323 -12.40975,2.01817 -6.72594,0.32293 -8.91804,0.67711 -9.37505,1.51471 -35.74776,3.05553 -27.62072,35.76324 -39.07326,82.54781 -4.12388,40.73345 -31.08396,107.6652 -42.02094,119.33147 C 506.86272,582.21267 407.9624,686.06445 286.03729,631.7081 Z M 263.25911,357.72312 c 0.20906,-0.33406 -1.62409,-15.83046 -4.07366,-34.43644 -4.99734,-37.9577 -5.24047,-38.91447 -10.53139,-41.4439 -3.69242,-1.76523 -6.9731,-1.4233 -9.15523,0.95422 -2.8198,3.07227 -2.82169,3.03448 1.69109,33.81029 0.60258,4.10943 1.60178,10.99672 2.22043,15.30509 0.61865,4.30837 1.43866,9.96517 1.82225,12.57068 0.38359,2.60551 0.90173,6.21313 1.15144,8.01695 0.85658,6.18776 0.31496,5.83051 8.8393,5.83051 4.21061,0 7.82671,-0.27333 8.03577,-0.6074 z m 39.92741,-0.30362 c 0.17732,-0.50106 -0.42444,-7.85281 -1.33724,-16.33722 l -1.65965,-15.4262 -8.808,-8.98905 c -4.8444,-4.94398 -9.06848,-9.09838 -9.38684,-9.23199 -0.76885,-0.32269 -0.72254,1.89959 0.19487,9.3531 0.83741,6.8034 2.29692,19.28546 3.70703,31.70339 0.5007,4.40932 1.23247,8.42691 1.62616,8.92797 0.4871,0.61996 3.05208,0.91102 8.02853,0.91102 5.18624,0 7.40649,-0.26492 7.63514,-0.91102 z m 27.33982,0.12825 c 0.58159,-0.92933 -2.54913,-4.44622 -3.46201,-3.88905 -0.34689,0.21173 -0.63072,0.95594 -0.63072,1.65381 0,2.3894 2.9783,4.01599 4.09273,2.23524 z m 51.91254,0.1196 c 0.86361,-0.5401 0.89369,-2.80099 0.19129,-14.3829 -0.45838,-7.55814 -1.36126,-23.08911 -2.00642,-34.51326 -1.26428,-22.3875 -1.48337,-23.40597 -5.70312,-26.51223 -2.81905,-2.07518 -7.36814,-1.92774 -9.78789,0.31722 -1.95881,1.81732 -3.59513,6.5476 -2.96012,8.55712 0.35747,1.13121 1.35446,15.34889 3.63883,51.89213 0.46357,7.41568 1.11153,13.89301 1.4399,14.39407 0.69965,1.06757 13.54171,1.27715 15.18753,0.24785 z m 40.56838,-0.48891 c 0.54519,-0.45685 -1.53333,-64.95497 -2.20858,-68.53431 -1.50219,-7.96275 -9.55278,-10.65198 -14.66719,-4.89946 -2.01473,2.2661 -2.20891,2.94534 -2.21341,7.74256 -0.003,2.8922 0.34353,10.99794 0.76945,18.01278 0.42591,7.01483 1.01311,20.55772 1.30491,30.09532 0.43306,14.15501 0.73236,17.4673 1.62903,18.02805 0.94693,0.59217 14.62002,0.19676 15.38579,-0.44494 z m 39.79108,-35.23584 c -0.20041,-34.89964 -0.23771,-35.70291 -1.75125,-37.7161 -3.35019,-4.45617 -10.53533,-4.45428 -13.88092,0.004 -1.51445,2.01798 -1.54237,2.62921 -1.34829,29.51695 0.10899,15.10096 0.39789,31.14592 0.64198,35.65545 l 0.4438,8.19915 h 8.04972 8.04973 l -0.20477,-35.65909 z m 40.29257,23.81588 c 0.23858,-6.51377 0.63481,-22.55791 0.88052,-35.65364 l 0.44674,-23.81042 -2.50442,-2.6988 c -2.04957,-2.20864 -3.04324,-2.71276 -5.47107,-2.77563 -3.54536,-0.0918 -6.43083,1.5956 -8.06496,4.71633 -1.01863,1.94532 -1.24226,7.11819 -1.60659,37.16263 l -0.42326,34.90275 h 8.15463 8.15463 z m 39.64029,11.66102 c 0.15922,-0.44459 1.34391,-25.49469 2.22037,-46.94941 1.0363,-25.36735 0.97391,-26.01968 -2.71674,-28.40781 -4.29515,-2.77928 -9.74146,-1.11428 -12.06479,3.68834 -1.30143,2.69023 -1.5519,6.15895 -2.59036,35.87399 -0.63228,18.09269 -1.14961,33.58909 -1.14961,34.43645 0,1.47494 0.34619,1.54064 8.11794,1.54064 4.46487,0 8.1473,-0.082 8.18319,-0.1822 z m 80.51896,-5.2839 c 0.73314,-7.30767 2.80126,-28.34382 3.31388,-33.70763 0.26899,-2.81458 0.15568,-4.55508 -0.29657,-4.55508 -0.80889,0 -16.52424,17.80642 -17.71775,20.07528 -0.41221,0.78359 -0.96854,5.03234 -1.2363,9.44167 -0.26776,4.40932 -0.68218,9.42191 -0.92094,11.13908 l -0.4341,3.12214 8.38997,-0.20688 8.38998,-0.20688 z m 39.87186,1.09322 c 0.29259,-2.20466 1.04791,-8.27203 1.67848,-13.48305 1.09118,-9.01738 1.54482,-12.62996 4.57596,-36.44068 1.82788,-14.35866 1.75912,-18.01953 -0.38067,-20.26794 -2.48473,-2.61085 -5.63867,-3.01004 -9.43659,-1.19437 -4.66828,2.23176 -5.76849,5.19074 -7.30273,19.64028 -0.70226,6.61398 -2.36187,21.70042 -3.68803,33.52542 -1.32615,11.825 -2.25748,21.75681 -2.06962,22.07068 0.18786,0.31388 3.88523,0.47786 8.21639,0.36441 l 7.87482,-0.20627 z m -92.41229,-0.29017 c 1.42064,-1.72454 5.07371,-6.02707 8.11794,-9.56118 l 5.53496,-6.42565 0.83743,-12.08608 c 0.46059,-6.64734 1.24193,-17.85861 1.7363,-24.91393 0.81566,-11.64046 0.78484,-13.0456 -0.33295,-15.1803 -2.33675,-4.46254 -9.80046,-5.42784 -13.09867,-1.69407 -2.75792,3.12213 -3.03987,5.07935 -4.69661,32.60296 -0.91735,15.24019 -1.873,30.57914 -2.12365,34.08656 -0.53611,7.5016 0.0669,7.97677 4.02525,3.17169 z M 341.93845,342.11441 c 0.019,-8.46698 -3.87799,-52.20005 -4.90244,-55.01621 -2.70458,-7.43478 -12.60927,-8.72042 -15.4503,-2.00547 -0.93679,2.21414 -0.98379,4.07473 -0.30907,12.23386 0.43765,5.29241 1.11282,12.01372 1.50036,14.93624 0.38756,2.92251 0.70463,7.43128 0.70463,10.01947 v 4.7058 l 8.64577,9.11189 c 4.75517,5.01153 8.90639,9.11188 9.22493,9.11188 0.31854,0 0.58229,-1.39386 0.58612,-3.09746 z m 278.17382,-46.27966 c 4.47153,-5.1108 8.13703,-9.80915 8.14554,-10.44076 0.0292,-2.16143 -3.39805,-4.51648 -6.5726,-4.51648 -6.15857,0 -9.27935,4.01941 -9.97749,12.85048 -0.25797,3.26317 -0.65061,7.1629 -0.87254,8.66608 -0.24753,1.67662 -0.10382,2.73305 0.37177,2.73305 0.42639,0 4.43379,-4.18156 8.90532,-9.29237 z M 296.70663,293.8091 c -0.45557,-5.94874 -1.85159,-9.10056 -5.08504,-11.4806 -3.37646,-2.4853 -10.20563,-1.60449 -10.20563,1.3163 0,1.13446 13.85849,15.65182 14.94147,15.65182 0.50302,0 0.62394,-1.90012 0.3492,-5.48752 z m 375.51382,-44.01349 c -0.76489,-1.22223 -4.78602,-3.08855 -5.59313,-2.59594 -1.33708,0.81608 -0.72359,1.77027 2.05116,3.19024 2.6717,1.36724 4.57019,1.04869 3.54197,-0.5943 z M 383.62817,205.54586 c 0,-1.14916 -82.42269,-84.80857 -83.55486,-84.80857 -1.24206,0 -0.93226,-1.80461 -7.50717,43.72881 -4.09928,28.38892 -5.61384,40.72236 -5.07969,41.36546 1.04811,1.2619 96.14172,0.97932 96.14172,-0.2857 z m 266.04695,-0.01 c 0,-0.44319 -6.07538,-22.93606 -17.76013,-65.75331 -2.77499,-10.16859 -5.23697,-18.67749 -5.47106,-18.90867 -0.23409,-0.23118 -1.03641,0.21739 -1.78292,0.99681 -5.2946,5.52799 -71.66314,82.71343 -71.66314,83.34295 0,0.56541 13.93938,0.79453 48.33863,0.79453 26.58624,0 48.33862,-0.21254 48.33862,-0.47232 z"
       id="path831"
       inkscape:connector-curvature="0"
       sodipodi:nodetypes="ccsccssscscscscscccscscscccsccsccsscccccccccsccssscsccscsccscscccsccsscccscccssccscccccsscccccssccccscccscsccssscssscsccccsccscscscscccscsscsscccccccscsscscsscsscssscccccssscscsscsscc" />
    <path
       style="fill:#666666;stroke-width:0;stroke:none;stroke-opacity:1;stroke-miterlimit:4;stroke-dasharray:none"
       d="m 239.35028,659.30083 c -9.55808,-1.12002 -18.72071,-5.93146 -25.87823,-13.58907 -5.77771,-6.18139 -7.54808,-10.42217 -10.94898,-26.22753 -5.56357,-25.85618 -20.0814,-94.61824 -27.44015,-129.96727 -9.75345,-46.85233 -11.04162,-52.69171 -11.83713,-53.65881 -0.38997,-0.47407 -4.17,-0.97678 -8.96308,-1.19199 -10.82149,-0.48589 -14.44792,-1.77759 -19.7921,-7.04972 -5.47162,-5.39785 -7.11425,-9.76643 -8.05629,-21.4258 -1.40827,-17.42966 -1.59214,-19.14915 -2.7019,-25.2669 -0.65472,-3.60928 -0.93999,-7.77644 -0.68347,-9.98408 0.24216,-2.08404 8.40509,-35.48383 18.13986,-74.22175 12.85617,-51.15901 18.24054,-71.41415 19.67646,-74.01957 2.63311,-4.77771 8.86519,-10.48355 14.09306,-12.90303 l 4.24541,-1.9648 46.49365,-0.15862 46.49364,-0.15863 0.5604,-1.6634 c 0.30823,-0.91488 3.38534,-21.30482 6.83804,-45.31097 3.4527,-24.00616 6.46547,-44.50404 6.69503,-45.55085 0.89326,-4.07324 1.95208,-5.72594 4.40997,-6.88345 l 2.55453,-1.20302 -0.49574,1.99837 c -0.27266,1.0991 -0.70916,2.08553 -0.97001,2.19207 -0.26084,0.10654 -0.34188,1.31361 -0.18007,2.68237 0.16181,1.36876 -0.21828,5.70913 -0.84463,9.64527 -0.62637,3.93614 -1.63881,10.60026 -2.24988,14.80916 -0.61109,4.2089 -1.61152,11.09619 -2.22322,15.30509 -0.61169,4.2089 -1.64986,11.42415 -2.30705,16.0339 -0.65718,4.60974 -1.6501,11.49703 -2.20649,15.30508 -1.33948,9.16778 -3.14333,22.29695 -4.05544,29.51695 -1.47032,11.63878 -4.389,32.98063 -5.58161,40.81356 -1.24023,8.14573 -1.05451,18.68321 0.37606,21.33684 0.37252,0.69101 1.93414,4.0441 3.47026,7.4513 1.53613,3.4072 3.40516,7.01483 4.15341,8.01695 0.74826,1.00212 10.39232,10.88728 21.43126,21.96702 11.03894,11.07974 27.04484,27.22304 35.56868,35.874 8.52383,8.65095 27.02478,27.29884 41.11321,41.43976 27.01028,27.11089 27.11169,27.18967 27.13997,21.08395 0.0102,-2.22083 -2.09156,-4.58103 -23.36523,-26.23729 -12.85709,-13.08831 -26.77662,-27.20913 -30.93229,-31.37958 l -7.55575,-7.58265 -0.43095,-4.80718 c -0.23702,-2.64395 -1.10178,-13.17032 -1.92168,-23.39193 -2.32517,-28.98729 -2.71929,-32.15667 -4.25059,-34.18216 -2.48964,-3.29313 -5.06969,-4.68789 -8.67168,-4.68789 -2.834,0 -3.78593,0.38455 -5.7477,2.32197 -2.29346,2.26498 -2.34666,2.46544 -2.16689,8.16578 0.10137,3.21408 0.68188,10.50499 1.29003,16.20203 1.25075,11.71678 1.41219,18.01078 0.46195,18.01078 -0.35569,0 -5.80938,-5.23148 -12.11931,-11.62552 l -11.4726,-11.62551 -0.4708,-4.22618 c -1.2559,-11.27376 -2.46022,-13.89323 -7.49383,-16.29965 -2.99453,-1.43159 -3.60869,-1.49168 -6.65044,-0.65063 -2.81401,0.77807 -3.45795,0.7623 -4.01695,-0.0984 -1.03822,-1.59849 -2.13836,-5.89777 -2.1429,-8.3743 -0.004,-2.5595 3.89135,-29.77239 5.52143,-38.56593 0.59446,-3.20678 1.58475,-9.43814 2.20066,-13.84746 0.61591,-4.40932 1.31299,-8.91206 1.54906,-10.00607 l 0.42921,-1.98913 48.96014,-0.19731 c 26.92808,-0.10853 49.18418,-0.4187 49.458,-0.68927 0.27382,-0.27057 0.21833,-0.97287 -0.1233,-1.56065 -0.55392,-0.95305 -17.5799,-18.28288 -67.96312,-69.17602 -8.62531,-8.7126 -15.68238,-16.16995 -15.68238,-16.57188 0,-0.75334 4.64556,-2.93679 6.24838,-2.93679 0.49619,0 20.91253,20.33389 45.36964,45.18644 l 44.46747,45.18644 h 66.70625 66.70624 l 39.96251,-46.09746 c 21.97938,-25.3536 41.32816,-47.53009 42.99729,-49.28109 6.92886,-7.26868 11.81778,-9.13692 15.03208,-5.74434 1.63759,1.72843 1.84014,2.40615 12.36113,41.36018 8.33632,30.86524 19.13878,69.70318 23.66393,85.07857 1.32704,4.50898 0.80421,8.30655 -2.63533,19.14177 -1.20883,3.80805 -2.20158,7.27294 -2.20611,7.69976 -0.008,0.75275 4.51192,3.23244 5.892,3.23244 2.30312,0 7.06905,-8.25499 8.17406,-14.15816 0.89992,-4.80759 -0.19328,-11.28094 -4.71206,-27.90235 -1.76662,-6.49812 -2.9879,-12.1729 -2.71395,-12.61064 0.35047,-0.56002 9.34701,-0.73044 30.35953,-0.57507 l 29.86145,0.2208 5.60133,2.73491 c 6.82532,3.33256 12.86804,9.38521 15.18942,15.2144 0.85752,2.1533 2.93328,9.49052 4.61279,16.30493 1.67951,6.8144 9.68635,38.7911 17.79297,71.05932 11.55772,46.00526 14.66609,59.37743 14.40016,61.94915 -0.18654,1.80382 -1.03418,10.98687 -1.88367,20.40678 -1.74259,19.32352 -2.90307,24.7915 -6.23922,29.39824 -5.75191,7.94254 -12.30357,10.68651 -25.51571,10.68651 -4.33703,0 -6.75546,0.30458 -7.23372,0.91102 -0.39516,0.50106 -1.08207,2.71483 -1.52647,4.91949 -0.4444,2.20466 -2.14068,10.40381 -3.76948,18.22034 -18.02522,86.50157 -17.72046,84.79458 -18.54203,103.85594 -0.36282,8.41779 -1.5169,21.8644 -2.56462,29.88135 -3.97111,30.38588 -6.29731,36.60792 -18.63371,49.84088 -7.2396,7.76574 -14.39678,12.67357 -22.59428,15.49339 l -6.00011,2.06395 -213.28036,-0.0897 c -117.30419,-0.0493 -215.43899,-0.34263 -218.07732,-0.65179 z M 559.67633,387.33051 c 16.41875,-18.92373 33.27921,-38.35572 37.4677,-43.1822 4.1885,-4.82648 8.00762,-8.77542 8.48694,-8.77542 0.95752,0 1.06372,3.3462 0.48574,15.30508 l -0.35225,7.28814 8.10829,0.20861 c 9.26527,0.23838 9.97283,-0.13536 9.97223,-5.2674 -3.2e-4,-2.67068 0.86531,-11.68489 2.957,-30.7927 0.40332,-3.68443 0.73332,-8.12982 0.73332,-9.87866 0,-3.09633 0.45478,-3.70402 17.34286,-23.17371 9.53858,-10.9967 17.34287,-20.23547 17.34287,-20.53059 0,-0.69398 -4.04045,-2.76047 -5.39732,-2.76047 -1.21426,0 -4.23478,3.19419 -16.37351,17.31501 -4.87077,5.66609 -9.38516,10.48932 -10.03198,10.71828 -1.50629,0.53319 -19.08954,20.84189 -20.71865,23.93008 -1.67877,3.18235 -23.96894,28.7434 -25.54732,29.29617 -1.49923,0.52505 -8.0752,8.1072 -9.71281,11.19895 -1.06439,2.00952 -21.83898,26.35108 -47.48823,55.64187 l -4.27582,4.88289 2.79984,1.45921 c 1.5399,0.80257 3.14836,1.47372 3.57434,1.49143 0.42598,0.0177 14.20803,-15.45084 30.62676,-34.37457 z M 263.58687,358.41748 c 0.81146,-0.50791 0.3065,-5.72504 -2.80293,-28.95918 -2.08598,-15.58681 -4.14416,-31.1268 -4.57372,-34.53333 -0.87708,-6.95536 -2.55824,-10.84727 -5.61374,-12.99592 -5.13333,-3.60977 -11.56782,-2.13522 -13.27978,3.04327 -0.76111,2.30226 -0.72722,4.12454 0.18974,10.20339 0.61398,4.07031 1.63531,11.00819 2.2696,15.41752 2.07992,14.45859 3.35161,23.21447 4.39284,30.24576 0.5639,3.80805 1.24612,8.72754 1.51602,10.9322 0.91615,7.48346 0.66777,7.28973 9.3295,7.27698 4.17048,-0.006 8.0281,-0.28994 8.57247,-0.63069 z m 39.88442,-0.02 c 0.86496,-0.54097 0.77969,-2.87066 -0.55349,-15.12071 -0.8668,-7.96468 -1.576,-15.46563 -1.576,-16.66879 0,-1.83608 -1.57285,-3.73767 -9.78832,-11.83424 -5.38357,-5.30566 -10.0811,-9.64666 -10.43895,-9.64666 -0.75699,0 -0.36612,4.9677 1.77765,22.59322 0.8532,7.01484 1.99296,16.64638 2.53278,21.40345 0.63953,5.63555 1.3335,8.86942 1.99173,9.28122 1.32134,0.82665 14.7309,0.82038 16.0546,-0.008 z m 29.60427,-0.88156 c 0,-0.448 -1.34206,-2.13992 -2.98237,-3.75982 -3.50392,-3.46034 -4.69681,-2.99642 -3.96212,1.54088 0.48937,3.02228 0.50311,3.0335 3.71784,3.0335 1.88554,0 3.22665,-0.33857 3.22665,-0.81456 z m 50.67242,-0.32419 c 0.24336,-0.6263 0.0557,-7.92355 -0.41698,-16.2161 -2.7054,-47.4604 -3.13102,-52.9785 -4.26893,-55.34665 -3.34456,-6.96045 -13.70283,-7.49832 -16.48874,-0.85621 -0.91732,2.18706 -0.46017,14.61432 1.52625,41.48991 0.39996,5.41144 1.02807,14.50018 1.39578,20.1972 0.36772,5.69702 0.88153,10.6985 1.14181,11.11441 0.28039,0.44804 3.77304,0.75619 8.57078,0.75619 6.66089,0 8.17606,-0.20204 8.54003,-1.13875 z m 39.87133,-0.0505 c 0.25416,-0.65411 -0.0178,-16.67564 -0.60432,-35.60341 -1.15518,-37.27784 -1.02764,-36.33373 -5.38323,-39.84735 -3.85491,-3.10973 -10.21188,-1.91811 -13.01358,2.43939 -1.45759,2.26701 -1.52226,3.04986 -1.0724,12.9803 0.26331,5.81229 0.88038,21.55467 1.37127,34.98306 0.49089,13.42839 1.15185,24.82521 1.46879,25.32627 0.40412,0.63888 2.99511,0.91101 8.6738,0.91101 6.80771,0 8.17116,-0.18944 8.55967,-1.18927 z m 40.0801,-33.97598 c -7.4e-4,-32.0387 -0.11587,-35.38745 -1.29149,-37.6643 -3.78794,-7.33619 -12.81448,-7.34123 -16.59654,-0.009 -1.18148,2.29045 -1.25258,5.05784 -0.88806,34.56685 0.21793,17.64238 0.56714,33.47091 0.77603,35.17451 l 0.37978,3.09746 h 8.81071 8.81072 l -10e-4,-35.16525 z m 39.49265,34.42236 c 0.2557,-0.40859 0.77755,-16.4874 1.15964,-35.73069 0.61368,-30.90621 0.56273,-35.23986 -0.43672,-37.14855 -1.52094,-2.90459 -4.22451,-4.5331 -7.67389,-4.62242 -3.68343,-0.0954 -6.36601,1.36065 -8.35121,4.53282 -1.55623,2.4867 -1.59695,3.27304 -1.9155,36.98982 -0.17901,18.94701 -0.12676,34.9605 0.1161,35.58551 0.36285,0.93379 1.88534,1.1364 8.53912,1.1364 4.70461,0 8.29235,-0.31127 8.56246,-0.74289 z m 40.35791,-4.72324 c 0.52279,-5.17872 1.78029,-30.91101 2.58513,-52.90007 0.49499,-13.52367 0.30178,-14.96527 -2.3577,-17.59167 -3.74314,-3.69658 -10.00126,-3.06633 -13.4128,1.35079 -1.8229,2.36022 -2.04451,3.36116 -2.53461,11.4484 -1.01372,16.72741 -2.30277,61.57678 -1.79324,62.39097 0.33922,0.54204 3.26646,0.74562 8.75391,0.60881 l 8.24429,-0.20553 z m 32.89306,-4.71895 8.79797,-10.18504 0.49627,-11.13276 c 0.27296,-6.12301 1.00832,-17.20011 1.63415,-24.61579 1.25126,-14.82685 1.08214,-17.25404 -1.3596,-19.51286 -3.97841,-3.68036 -8.52818,-3.70125 -12.72935,-0.0584 -3.41769,2.96344 -3.76054,5.1539 -5.51591,35.24081 -0.81853,14.02966 -1.69883,28.87013 -1.95623,32.97881 -0.40594,6.47985 -0.31532,7.47034 0.68337,7.47034 0.63325,0 5.11044,-4.58327 9.94933,-10.18505 z m 86.81409,8.54522 c 0.17941,-0.9019 0.87266,-6.39533 1.54055,-12.20762 0.66788,-5.81229 1.66641,-14.01144 2.21896,-18.22034 0.55255,-4.2089 1.53392,-12.08009 2.18083,-17.49153 0.64691,-5.41144 1.51078,-12.32744 1.9197,-15.36888 0.72988,-5.42871 0.60767,-6.70287 -0.95195,-9.92441 -1.11813,-2.30962 -5.26791,-4.07126 -8.16327,-3.46544 -3.6086,0.75506 -6.89788,3.59763 -8.17411,7.06399 -1.23183,3.34582 -8.88878,69.44331 -8.17639,70.58163 0.23145,0.36984 4.21401,0.67244 8.85014,0.67244 8.15286,0 8.44002,-0.0538 8.75554,-1.63984 z m -42.78659,-59.34073 c 5.10332,-5.88083 9.27875,-11.26312 9.27875,-11.96064 0,-1.66822 -3.8165,-4.7934 -6.58786,-5.39452 -3.53936,-0.7677 -8.49983,1.80313 -10.33546,5.35651 -2.16969,4.20003 -3.77709,22.69108 -1.97251,22.69108 0.18609,0 4.51378,-4.81159 9.61708,-10.69243 z m 30.27325,-91.28022 c 0.22978,-0.36717 -2.03144,-9.63221 -5.02495,-20.58899 -12.88347,-47.156 -16.21391,-59.44357 -16.84897,-62.16391 -0.85556,-3.66491 -1.39521,-4.27629 -6.14195,-6.95831 -3.22768,-1.82372 -4.22616,-2.07779 -5.81748,-1.4803 -1.05657,0.39671 -1.92104,1.1661 -1.92104,1.70976 0,1.0429 -8.62827,11.22779 -38.3757,45.29907 -18.40397,21.07902 -36.89972,42.63079 -36.89972,42.9966 0,0.2178 2.07561,0.40103 4.61247,0.40717 2.53685,0.006 5.11061,0.32908 5.71945,0.71766 1.44994,0.92536 100.11956,0.98538 100.69789,0.0612 z M 301.46595,115.52886 c 0.25453,-1.76766 2.04752,-2.53137 4.10895,-1.75016 1.03271,0.39135 1.0519,0.58697 0.1414,1.44105 -0.57944,0.54352 -1.8279,1.21801 -2.77436,1.49887 -1.49428,0.44343 -1.68861,0.28678 -1.47599,-1.18976 z"
       id="path829"
       inkscape:connector-curvature="0" />
    <path
       style="fill:#ffffff;stroke:none;stroke-width:1.83299994;stroke-miterlimit:4;stroke-dasharray:none;stroke-opacity:1"
       d="m 267.76306,659.17511 c -28.27692,-0.48579 -30.58763,-0.62418 -35.29648,-2.11381 -9.63054,-3.0466 -18.76655,-10.43965 -23.31474,-18.86677 -2.3989,-4.44481 -3.14236,-7.44588 -10.74258,-43.36401 -10.95233,-51.75999 -16.44124,-77.61959 -17.79012,-83.81356 -0.61105,-2.80593 -3.76001,-17.40042 -6.99769,-32.4322 -3.23767,-15.03178 -6.08433,-27.82246 -6.3259,-28.42373 -0.24157,-0.60127 -0.57114,-2.37653 -0.73238,-3.94501 -0.16124,-1.56848 -0.61814,-3.23849 -1.01534,-3.71113 -0.39719,-0.47263 -0.52575,-1.05332 -0.28568,-1.2904 0.24008,-0.23708 0.16029,-0.86284 -0.1773,-1.39057 -0.33759,-0.52773 -0.66613,-1.90158 -0.73009,-3.053 0,0 -3.55619,-2.2062 -8.09334,-2.23216 -22.68751,0.95851 -29.385,-12.79501 -29.70503,-26.05377 0,0 -2.05074,-20.56277 -0.62175,-16.43169 1.14412,3.30755 9.65409,6.47109 9.65409,6.47109 31.86956,2.68853 61.51971,-0.27166 85.31169,-1.53981 34.70419,-0.46466 64.43554,-1.01623 66.06968,-1.22569 2.65736,-0.34063 3.70965,-1.18671 9.96293,-8.01059 3.84546,-4.19637 9.98063,-10.86766 13.6337,-14.82509 3.65308,-3.95744 7.54825,-8.32292 8.65593,-9.70109 l 2.01399,-2.50575 -3.85897,-0.45778 c -2.12243,-0.25178 -5.59616,-0.46063 -7.71938,-0.46411 -3.39284,-0.006 -3.90781,-0.20495 -4.25178,-1.64617 -0.76566,-3.20808 -3.29302,-29.16339 -2.90077,-29.79016 0.21954,-0.35079 0.0475,-0.63781 -0.38239,-0.63781 -0.42986,0 -0.78156,-0.74247 -0.78156,-1.64995 0,-1.14626 -2.98817,-4.59489 -9.78832,-11.29661 -5.38357,-5.30566 -10.04886,-9.64666 -10.36731,-9.64666 -0.31845,0 -1.41442,-0.9019 -2.43548,-2.00423 -1.75011,-1.88941 -1.79289,-1.89985 -0.74663,-0.18221 0.62498,1.02603 1.60335,6.12048 2.23947,11.66102 2.04458,17.80826 3.34481,28.70803 4.08617,34.25424 0.40186,3.00635 0.74091,6.53199 0.75344,7.83474 l 0.0228,2.36865 h -9.61708 c -7.02584,0 -9.70593,-0.24547 -9.94679,-0.91102 -0.28546,-0.78879 -1.51814,-9.71298 -4.05195,-29.33474 -0.36234,-2.80594 -1.35916,-10.34916 -2.21515,-16.76272 -0.856,-6.41356 -1.88067,-14.28474 -2.27706,-17.49152 -0.95903,-7.75856 -3.05909,-11.77782 -7.33381,-14.03603 -4.20189,-2.21973 -8.10165,-1.87389 -11.12496,0.9866 -3.52063,3.33102 -3.53259,4.22929 -0.34827,26.16807 0.58181,4.00848 1.60169,11.05975 2.26641,15.66949 2.72111,18.87055 3.2442,22.47904 4.05195,27.95208 0.46457,3.14779 0.66157,6.1945 0.43777,6.77047 -0.34693,0.89282 -5.16858,1.01608 -32.70609,0.83606 -32.2881,-0.21107 -32.30038,-0.21174 -35.85333,-1.93927 -4.5968,-2.23509 -7.29536,-6.17257 -7.71168,-11.25219 -0.20845,-2.54329 0.93821,-10.58702 3.50018,-24.55359 2.0956,-11.42415 4.10396,-22.41102 4.46302,-24.41525 0.77033,-4.29984 2.59088,-13.83517 4.10492,-21.5 2.2795,-11.53995 3.32634,-17.31796 4.09338,-22.59322 1.55113,-10.66782 3.9924,-14.79463 10.4516,-17.66779 l 3.8406,-1.70836 33.54609,0.3957 33.54607,0.3957 0.5126,1.82203 c 0.45491,1.61704 0.52109,1.53504 0.58815,-0.72881 0.16133,-5.44601 3.64372,-25.98604 4.75724,-28.05932 0.7492,-1.39497 3.33108,-17.35635 7.13241,-44.09323 7.91926,-55.70039 7.34522,-52.95558 11.48232,-54.90388 l 2.55453,-1.20302 -0.49574,1.99837 c -0.27266,1.0991 -0.70916,2.08553 -0.97001,2.19207 -0.26084,0.10654 -0.34188,1.31361 -0.18007,2.68237 0.16181,1.36876 -0.21828,5.70913 -0.84463,9.64527 -1.35275,8.50083 -3.38368,22.32413 -6.78015,46.14815 -0.65718,4.60974 -1.6501,11.49703 -2.20649,15.30508 -1.33948,9.16778 -3.14333,22.29695 -4.05544,29.51695 -1.47032,11.63878 -4.389,32.98063 -5.58161,40.81356 -1.24023,8.14573 -1.05451,18.68321 0.37606,21.33684 0.37252,0.69101 1.93414,4.0441 3.47026,7.4513 1.53613,3.4072 3.40516,7.01483 4.15341,8.01695 0.74826,1.00212 10.39232,10.88728 21.43126,21.96702 11.03894,11.07974 27.04484,27.22594 35.56868,35.88042 45.90926,46.61297 67.43807,67.83211 68.12398,67.14409 0.39962,-0.40085 0.95068,-2.09156 1.22457,-3.75713 l 0.49799,-3.02831 -17.5193,-18.10728 c -32.6854,-33.78238 -34.84336,-35.85954 -36.0334,-34.68431 -0.30248,0.29872 -0.43927,0.17266 -0.30396,-0.28014 0.1353,-0.4528 -1.99657,-2.86042 -4.73747,-5.35029 -2.74092,-2.48985 -4.80514,-4.81196 -4.58719,-5.16024 0.21796,-0.34827 -0.12434,-6.95971 -0.76066,-14.69209 -0.63632,-7.73237 -1.64838,-20.4542 -2.249,-28.27072 -0.65637,-8.54187 -1.55611,-15.45264 -2.2552,-17.32186 -3.10217,-8.29458 -14.01006,-9.76024 -18.28101,-2.45638 -1.36307,2.33102 -1.38947,3.0066 -0.54109,13.84746 0.49054,6.26828 1.23498,14.29372 1.65431,17.83431 0.79489,6.71173 0.61215,7.80732 -1.07201,6.42699 -0.55453,-0.4545 -1.16025,-0.67622 -1.34605,-0.49272 -0.18582,0.18349 -4.13501,-3.42699 -8.776,-8.02328 -4.64099,-4.59629 -8.16498,-8.3569 -7.8311,-8.3569 0.33389,0 -0.22554,-0.97718 -1.24317,-2.17152 -1.40254,-1.64608 -1.96978,-3.36548 -2.34431,-7.10593 -0.77398,-7.72988 -1.73749,-10.47014 -4.71549,-13.4111 -3.37635,-3.33435 -7.07265,-4.20525 -11.14429,-2.62576 -2.56571,0.99531 -2.80308,0.99245 -2.4062,-0.0289 0.28785,-0.7408 0.14428,-0.95249 -0.41465,-0.61135 -0.57616,0.35166 -0.69649,0.114 -0.36899,-0.72882 0.28877,-0.74317 0.1898,-1.06987 -0.24392,-0.80515 -0.44308,0.27043 -0.6168,-0.47012 -0.44212,-1.88468 0.16526,-1.3382 0.0299,-1.97302 -0.31803,-1.49122 -0.34669,0.48012 -0.6232,-0.88207 -0.64651,-3.18491 -0.027,-2.67159 0.16122,-3.56583 0.56017,-2.66097 0.37232,0.84449 0.49691,-0.11597 0.32754,-2.5251 -0.17974,-2.55668 -0.0365,-3.5549 0.41834,-2.91525 0.45343,0.63767 0.57264,-0.25355 0.34611,-2.58743 -0.19007,-1.95808 -0.0867,-3.1465 0.2297,-2.64093 0.72911,1.16506 1.77104,-7.28178 1.18403,-9.59883 -0.23571,-0.93039 -0.19406,-1.19967 0.0926,-0.5984 0.2973,0.62368 1.01942,-2.03705 1.68128,-6.19491 l 1.16016,-7.28814 68.23687,-0.51556 c 37.53028,-0.28355 71.39179,-0.45543 75.24781,-0.38194 9.91959,0.18902 13.29199,0.17848 43.91067,-0.13725 l 27.30579,-0.28156 -14.75989,-0.60022 c -8.11794,-0.33012 -20.48115,-0.80682 -27.4738,-1.05933 l -12.71392,-0.45912 9.9051,-10.7499 9.90508,-10.7499 23.47267,-0.5728 c 23.96824,-0.58491 162.4079,-0.55916 163.37381,0.0304 1.34185,0.81898 -0.21796,-6.64434 -5.18539,-24.81093 -11.5941,-42.40128 -16.12006,-59.12742 -16.59461,-61.32697 -0.56284,-2.60885 -1.59271,-3.63227 -6.40802,-6.36785 -2.80278,-1.59226 -3.76069,-1.80932 -5.35046,-1.21241 -1.06506,0.39989 -1.93647,1.17188 -1.93647,1.71554 0,1.0429 -8.62827,11.22779 -38.3757,45.29907 -18.40397,21.07902 -36.89972,42.63079 -36.89972,42.9966 0,0.2178 2.07561,0.40103 4.61247,0.40717 2.53685,0.006 5.11061,0.32908 5.71945,0.71766 0.74557,0.47582 -2.08859,0.71013 -8.68055,0.71765 l -9.78756,0.0112 39.96251,-46.09746 c 21.97938,-25.3536 41.32816,-47.53009 42.99729,-49.28109 6.92886,-7.26868 11.81778,-9.13692 15.03208,-5.74434 1.63759,1.72843 1.84014,2.40615 12.36113,41.36018 8.33632,30.86524 19.13878,69.70318 23.66393,85.07857 1.32704,4.50898 0.80421,8.30655 -2.63533,19.14177 -1.20883,3.80805 -2.20158,7.27294 -2.20611,7.69976 -0.008,0.75275 4.51192,3.23244 5.892,3.23244 0.37632,0 1.39969,-0.73792 2.27415,-1.63983 l 1.58995,-1.63983 -1.30624,2.55085 c -1.01023,1.9728 -1.057,2.34668 -0.20636,1.64989 0.60492,-0.49552 2.39975,-3.6112 3.98851,-6.92372 2.86339,-5.97015 2.88815,-6.09721 2.83325,-14.54022 -0.0322,-4.94841 -0.38992,-8.91851 -0.85375,-9.47458 -0.43911,-0.52642 -2.0132,-5.54866 -3.49798,-11.16053 -1.48478,-5.61186 -2.86989,-10.78794 -3.07802,-11.5024 -0.35932,-1.2334 1.14343,-1.28862 29.75215,-1.09322 l 30.13058,0.20579 4.2199,1.95327 c 4.936,2.28472 11.00923,7.64469 13.59037,11.99427 1.29724,2.18604 6.87192,23.10156 19.43196,72.90643 9.68707,38.41252 18.03397,71.86367 18.54866,74.33587 0.75232,3.61353 0.75409,5.0939 0.009,7.54965 -0.50971,1.68012 -1.2237,6.87266 -1.58663,11.53899 -1.9222,24.71436 -2.1778,26.54961 -4.33716,31.14204 -4.79199,10.1913 -12.45994,14.14729 -27.42194,14.14729 -6.4438,0 -6.6436,0.0512 -7.3489,1.88319 -0.39876,1.03576 -0.528,2.198 -0.2872,2.58277 0.2408,0.38477 0.0486,1.1628 -0.42725,1.72895 -0.47579,0.56615 -0.65917,1.35837 -0.40753,1.76047 0.25164,0.4021 0.11155,1.31837 -0.31131,2.03616 -0.61206,1.03892 -6.88705,28.95408 -10.36881,46.1271 -0.36572,1.80382 -2.2612,10.88327 -3.51598,16.69556 -12.14277,57.71762 -7.47567,78.37589 -13.8575,101.28669 1.18635,24.27669 -23.62701,40.46243 -23.62701,40.46243 -10.84585,9.73879 -25.62201,12.45501 -27.11884,9.859 0.44877,0.71705 -354.28634,1.33697 -395.69237,0.62562 z m 291.91327,-271.8446 c 16.41875,-18.92373 33.27921,-38.35572 37.4677,-43.1822 6.82218,-7.86132 9.63055,-10.29842 9.22008,-8.00112 -0.0761,0.42586 -0.52179,5.63531 -0.99043,11.57654 -0.70449,8.93126 -0.68053,10.90962 0.13835,11.42217 1.76352,1.10381 16.61584,0.77659 17.7993,-0.39216 0.57609,-0.56891 1.27062,-3.27463 1.54339,-6.01271 0.27278,-2.73807 0.9759,-9.8978 1.56247,-15.91052 2.54646,-26.10247 2.51693,-25.9001 4.12896,-28.29411 l 1.55954,-2.31606 -2.2852,2.38015 c -1.25685,1.30907 -2.28519,1.94716 -2.28519,1.41795 0,-0.52921 7.80429,-9.95949 17.34286,-20.95619 9.53858,-10.9967 17.34287,-20.23547 17.34287,-20.53059 0,-0.69398 -4.04045,-2.76047 -5.39732,-2.76047 -1.21426,0 -4.23478,3.19419 -16.37351,17.31501 -4.87077,5.66609 -9.38516,10.48932 -10.03198,10.71828 -1.50629,0.53319 -19.08954,20.84189 -20.71865,23.93008 -1.67877,3.18235 -23.96894,28.7434 -25.54732,29.29617 -1.49923,0.52505 -8.0752,8.1072 -9.71281,11.19895 -1.06439,2.00952 -21.83898,26.35108 -47.48823,55.64187 l -4.27582,4.88289 2.79984,1.45921 c 1.5399,0.80257 3.14836,1.47372 3.57434,1.49143 0.42598,0.0177 14.20803,-15.45084 30.62676,-34.37457 z m -189.93912,8.13294 c -0.58286,-0.8218 -9.02643,-9.44641 -18.76348,-19.1658 -9.73705,-9.71939 -17.91735,-18.3363 -18.17844,-19.14869 -0.56348,-1.75328 -4.05555,-5.17483 -5.62101,-5.5075 -0.60738,-0.12907 -1.43762,-0.65191 -1.84499,-1.16187 -0.50555,-0.63287 -0.62353,0.75528 -0.37167,4.37288 l 0.369,5.30008 4.01967,0.22526 4.01967,0.22527 18.48916,18.16521 c 10.16904,9.99087 18.59101,18.17064 18.7155,18.17728 0.12449,0.007 -0.25055,-0.66032 -0.83341,-1.48212 z m 200.6737,-17.46066 c 17.10289,-19.80109 17.60563,-20.40109 17.09418,-20.40109 -0.55662,0 -33.76923,38.43362 -33.76923,39.07773 0,0.69498 -1.74624,2.65084 16.67505,-18.67664 z m -185.9139,-19.38181 c 0.44443,-1.14374 -0.21641,-15.68218 -2.39524,-52.69508 -0.96781,-16.44071 -1.2686,-18.82879 -2.68509,-21.31774 -2.04751,-3.59774 -6.89422,-6.079 -10.55093,-5.40153 -5.85502,1.08474 -9.00724,6.25805 -8.18525,13.43334 0.48023,4.19191 2.03998,27.21739 3.4378,50.74987 0.42859,7.21525 0.93176,13.85657 1.11819,14.75847 0.32975,1.59536 0.58936,1.63983 9.57297,1.63983 7.78722,0 9.30509,-0.18287 9.68755,-1.16716 z m 39.85604,-0.0111 c 0.25183,-0.64808 0.0229,-16.75409 -0.50878,-35.79113 -0.91197,-32.65538 -1.05395,-34.78107 -2.51051,-37.58833 -1.86126,-3.58724 -4.36106,-5.50434 -7.92136,-6.0749 -3.54785,-0.56858 -7.54343,1.36222 -9.59159,4.63499 -1.54783,2.47329 -1.58404,3.01366 -1.08127,16.13851 1.67263,43.66448 2.38545,58.13527 2.90373,58.94818 0.41197,0.64614 3.14972,0.91101 9.41637,0.91101 7.45667,0 8.907,-0.18389 9.29341,-1.17833 z m 39.90799,-35.13766 c 0.17044,-32.0002 0.059,-36.22719 -1.01348,-38.45927 -1.76742,-3.67824 -5.11683,-5.75864 -9.27131,-5.75864 -4.11141,0 -6.86363,1.75401 -8.93383,5.69357 -1.36689,2.60116 -1.39369,3.92846 -0.76419,37.85699 0.3588,19.33872 0.91623,35.58116 1.23872,36.09431 0.43637,0.69433 2.88421,0.88076 9.56948,0.72881 l 8.98312,-0.2042 0.19149,-35.95159 z m 39.24936,35.62814 c 0.87807,-0.54864 1.16013,-5.18716 1.60585,-26.40833 0.29738,-14.15854 0.56528,-30.593 0.59534,-36.52102 l 0.0546,-10.77823 -2.89902,-3.06923 c -2.65909,-2.81523 -3.20429,-3.06924 -6.58783,-3.06924 -4.246,0 -7.00294,1.63735 -9.332,5.54229 -1.41213,2.36759 -1.48568,4.00057 -1.69996,37.74154 -0.12318,19.39679 -0.0505,35.7131 0.16133,36.25848 0.29382,0.75612 2.36239,0.98894 8.71091,0.98044 4.57908,-0.006 8.80492,-0.31065 9.39075,-0.6767 z m 39.8706,-0.0115 c 1.16276,-0.72623 1.04326,1.00269 3.27013,-47.31391 1.22954,-26.67723 1.15877,-27.43239 -2.86363,-30.55705 -4.95176,-3.84659 -12.25383,-2.02794 -15.09022,3.75839 -1.33394,2.72126 -1.59486,5.30586 -2.2213,22.0028 -1.6904,45.05648 -1.77606,51.47386 -0.69606,52.14939 1.36277,0.85237 16.22647,0.81893 17.60108,-0.0396 z m 23.26826,-0.75827 c 1.22728,0 17.92472,-19.19374 18.9513,-21.78456 0.41448,-1.04604 0.8913,-5.01756 1.05959,-8.82562 0.1683,-3.80805 0.61537,-10.0394 0.9935,-13.84745 0.37812,-3.80805 0.89583,-11.67924 1.15046,-17.49153 0.43394,-9.90506 0.36603,-10.71909 -1.08292,-12.9803 -2.96932,-4.63386 -9.33462,-5.64733 -14.15952,-2.25443 -3.66088,2.57434 -4.84995,6.32692 -5.40476,17.05676 -0.26945,5.21102 -0.94898,16.85382 -1.51007,25.87289 -1.35156,21.72527 -1.93441,36.28903 -1.40734,35.16525 0.235,-0.50106 0.86939,-0.91101 1.40976,-0.91101 z m 96.25311,0.75876 c 0.92367,-0.48819 1.47795,-1.97125 1.83861,-4.9195 0.28398,-2.32134 1.00514,-8.15621 1.6026,-12.96638 0.59745,-4.81017 1.56195,-12.68136 2.14333,-17.49153 0.58138,-4.81017 1.58114,-12.84534 2.22169,-17.85593 2.06662,-16.16577 2.17482,-19.11924 0.79688,-21.75074 -1.42117,-2.71406 -5.13485,-5.20866 -7.75996,-5.21264 -3.03444,-0.004 -8.00775,2.85132 -9.71451,5.57855 -1.76832,2.82562 -2.22433,6.04009 -6.94399,48.94957 -2.07946,18.90576 -2.47732,24.51571 -1.79614,25.32627 1.03096,1.22677 15.40927,1.50625 17.61149,0.34233 z m -344.5867,-38.8523 c 0,-0.10737 -3.57004,-3.633 -7.93343,-7.83474 l -7.93344,-7.63952 7.73575,7.83474 c 7.18513,7.27708 8.13112,8.16588 8.13112,7.63952 z m 302.26027,-23.0085 c 5.69542,-6.56315 9.17334,-11.17681 9.17334,-12.16898 0,-2.20074 -3.34853,-5.31155 -6.30757,-5.85976 -4.56102,-0.84501 -9.56899,1.98107 -12.09356,6.82459 -0.47829,0.91762 -1.17765,5.34516 -1.55416,9.83898 -0.94107,11.23254 -0.91454,11.93613 0.45003,11.93613 0.63723,0 5.28659,-4.75693 10.33192,-10.57096 z m 102.95394,-37.31231 c -0.84222,-4.89716 -1.53131,-9.66339 -1.53131,-10.59161 0,-0.92823 -0.37014,-1.91359 -0.82252,-2.1897 -1.05338,-0.64293 -0.2041,8.82899 1.21357,13.53464 0.54343,1.80381 1.19732,4.54304 1.45308,6.08718 0.25576,1.54413 0.63456,2.6401 0.84176,2.43547 0.20721,-0.20462 -0.31235,-4.37881 -1.15458,-9.27598 z M 266.40684,238.62288 c -0.20473,-0.50106 -0.37224,-0.0911 -0.37224,0.91102 0,1.00212 0.16751,1.41208 0.37224,0.91102 0.20472,-0.50106 0.20472,-1.32098 0,-1.82204 z m 391.59705,-4.93084 c -0.46473,-1.75503 -1.68682,-2.67559 -1.68682,-1.27065 0,0.81251 1.35304,2.73963 1.9235,2.73963 0.0838,0 -0.0227,-0.66104 -0.23668,-1.46898 z M 385.77043,205.34445 c -0.59445,-1.2427 -12.2326,-13.13123 -68.00825,-69.47137 -8.62531,-8.7126 -15.68238,-16.16995 -15.68238,-16.57188 0,-0.75222 4.64457,-2.93679 6.24382,-2.93679 0.49369,0 15.81264,15.16258 34.04212,33.69462 18.22947,18.53204 38.25568,38.86594 44.50269,45.18644 l 11.35819,11.49182 h -5.89496 c -5.07914,0 -5.98716,-0.19276 -6.56123,-1.39284 z m -84.30448,-89.81559 c 0.25453,-1.76766 2.04752,-2.53137 4.10895,-1.75016 1.03271,0.39135 1.0519,0.58697 0.1414,1.44105 -0.57944,0.54352 -1.8279,1.21801 -2.77436,1.49887 -1.49428,0.44343 -1.68861,0.28678 -1.47599,-1.18976 z"
       id="path827"
       inkscape:connector-curvature="0"
       sodipodi:nodetypes="cssscsssccscccsccccsccscscsscssccsccssscsccssscsccscsssccccccsccccsccccscccsssccsccccsccsscccssccscccccccccccccccccscscsscccscscscsssccccsccssscsccsccccscscccsccscscscsccccccccsscsccccscssssssccscccccssscccscccscssssscscscscscccscsscscccscsccccccscccscscccccsccscccsscccccsscscccsssccsccsscsscscccsccsscccccscccssccssssscscccccc" />
    <path
       style="fill:#666666;stroke-width:0.73338962"
       d="m 149.898,399.62909 v 0 0 c 2.1441,-0.6536 23.17235,-2.0308 69.00247,-2.6445 34.70419,-0.4646 64.43554,-1.0162 66.06968,-1.2257 2.65736,-0.3406 3.70965,-1.1867 9.96293,-8.0106 3.84546,-4.1963 9.98063,-10.8676 13.6337,-14.825 3.65308,-3.9575 7.54825,-8.32297 8.65593,-9.70114 l 2.01399,-2.50575 -3.85897,-0.45778 c -2.12243,-0.25178 -5.59616,-0.46063 -7.71938,-0.46411 -3.39284,-0.006 -3.90781,-0.20495 -4.25178,-1.64617 -0.73122,-3.06381 -3.31051,-29.22929 -2.91938,-29.61555 0.21396,-0.2113 5.27433,4.43942 11.24526,10.33493 l 10.85623,10.71911 0.36899,5.28288 0.369,5.28287 4.01515,0.22511 4.01516,0.22511 18.49367,17.94669 c 10.17152,9.8707 23.97328,23.4645 30.67058,30.2085 7.79078,7.8452 12.70856,12.2573 13.6529,12.2491 1.65535,-0.014 8.83914,-3.1526 9.41836,-4.1143 0.20586,-0.3419 0.6013,-1.9772 0.87875,-3.634 l 0.50446,-3.0125 -23.48165,-24.2743 c -12.9149,-13.3508 -24.30547,-24.94987 -25.31236,-25.77564 -3.69664,-3.03167 -12.71589,-11.73907 -13.33508,-12.87402 -0.6085,-1.11531 -1.64463,-12.26532 -4.05647,-43.6528 -0.65637,-8.54187 -1.55611,-15.45264 -2.2552,-17.32186 -3.10613,-8.30516 -14.01032,-9.75941 -18.29105,-2.43941 -1.41819,2.42509 -1.42127,2.72612 -0.17928,17.49153 0.69506,8.26319 1.45988,16.41783 1.69958,18.12143 0.70635,5.01983 0.6669,4.99331 -12.78544,-8.59701 l -9.70599,-9.80553 -0.50616,-5.1017 c -0.73591,-7.41736 -1.63979,-10.27758 -4.13463,-13.08371 -3.33676,-3.75308 -7.76061,-4.79703 -12.55699,-2.96322 -0.83774,0.3203 -1.42015,-0.14627 -1.98335,-1.58879 -1.94948,-4.99335 -1.84109,-6.29095 3.42763,-41.03377 l 0.49737,-3.27966 68.25565,-0.51556 c 37.54061,-0.28356 71.41058,-0.45544 75.2666,-0.38195 9.91959,0.18902 13.29199,0.17848 43.91067,-0.13725 l 27.30579,-0.28156 -14.75989,-0.60022 c -8.11794,-0.33012 -20.48115,-0.80682 -27.4738,-1.05933 l -12.71392,-0.45912 9.9051,-10.7499 9.90508,-10.7499 23.47267,-0.5728 c 29.23152,-0.71335 162.74684,-0.49659 163.51849,0.26546 1.04542,1.03241 6.41791,21.5815 5.99385,22.92571 -0.23036,0.73021 0.0843,1.8781 0.69925,2.55085 1.71384,1.87495 2.93699,7.72228 2.38112,11.383 -0.27183,1.79015 -1.31981,4.7882 -2.32884,6.66232 -1.7252,3.2043 -25.79659,31.64398 -26.78351,31.64398 -0.25158,0 -1.38655,-0.97218 -2.52216,-2.16039 -4.79003,-5.01192 -12.98678,-2.92282 -16.74037,4.26661 -0.50017,0.958 -1.25786,6.6154 -1.68376,12.57202 L 606.85029,309.5 596.124,321.89441 c -5.89946,6.81693 -11.00073,12.1234 -11.33616,11.79215 -0.33541,-0.33125 -0.28327,-4.67885 0.11587,-9.66134 0.39914,-4.9825 1.13055,-15.48575 1.62534,-23.34057 0.86579,-13.74453 0.84505,-14.37479 -0.55149,-16.76271 -2.94051,-5.02793 -9.41584,-6.2913 -14.37427,-2.80451 -3.7035,2.60431 -4.88999,6.32651 -5.44633,17.08599 -0.26945,5.21102 -0.95077,16.85382 -1.51404,25.87289 -0.56326,9.01907 -1.25335,20.93591 -1.53354,26.48188 l -0.50942,10.08358 -22.77489,26.23102 c -12.52619,14.4271 -22.77304,26.4518 -22.77077,26.7216 0.002,0.2697 0.35096,1.7238 0.77488,3.2314 0.65963,2.3456 1.40099,3.0551 5.14081,4.9194 2.40351,1.1982 4.53863,2.1786 4.74471,2.1786 0.20608,0 5.24219,-5.6574 11.19135,-12.5721 5.94917,-6.9146 11.4218,-13.1054 12.16139,-13.7573 1.51684,-1.3371 31.98846,-36.48247 36.31425,-41.88415 5.00854,-6.25425 16.14379,-18.62987 16.47149,-18.30626 0.17548,0.1733 -0.0534,4.99601 -0.50854,10.71715 -0.68329,8.58836 -0.65449,10.5104 0.16514,11.02339 1.76527,1.10485 16.61728,0.77885 17.8016,-0.39075 0.57609,-0.56891 1.27062,-3.27463 1.54339,-6.01271 0.27278,-2.73807 0.9759,-9.8978 1.56247,-15.91052 2.57801,-26.42585 2.49595,-25.87433 4.21004,-28.29411 0.90235,-1.27383 8.46826,-10.18724 16.81313,-19.80758 19.97712,-23.03051 22.38527,-26.1174 25.66225,-32.89519 2.73004,-5.64657 2.77049,-5.85878 2.71593,-14.24937 -0.0322,-4.94841 -0.38992,-8.91851 -0.85375,-9.47458 -0.43911,-0.52642 -2.0132,-5.54866 -3.49798,-11.16053 -1.48478,-5.61186 -2.86989,-10.78794 -3.07802,-11.5024 -0.35932,-1.2334 1.14343,-1.28862 29.75215,-1.09322 l 30.13058,0.20579 4.2199,1.95327 c 4.936,2.28472 11.00923,7.64469 13.59037,11.99427 1.29724,2.18604 6.87192,23.10156 19.43196,72.90643 9.68707,38.41252 18.03397,71.86367 18.54866,74.33587 0.75232,3.6135 0.75409,5.0939 0.009,7.5497 -0.50971,1.6801 -0.0845,6.58779 -0.44739,11.25409 -350.74174,18.8487 -368.2336,-1.89219 -631.72607,11.07611 z m 232.59906,-41.00808 c 0.44443,-1.14374 -0.21641,-15.68218 -2.39524,-52.69508 -0.96781,-16.44071 -1.2686,-18.82879 -2.68509,-21.31774 -2.04751,-3.59774 -6.89422,-6.079 -10.55093,-5.40153 -5.85502,1.08474 -9.00724,6.25805 -8.18525,13.43334 0.48023,4.19191 2.03998,27.21739 3.4378,50.74987 0.42859,7.21525 0.93176,13.85657 1.11819,14.75847 0.32975,1.59536 0.58936,1.63983 9.57297,1.63983 7.78722,0 9.30509,-0.18287 9.68755,-1.16716 z m 39.85604,-0.0111 c 0.25183,-0.64808 0.0229,-16.75409 -0.50878,-35.79113 -0.91197,-32.65538 -1.05395,-34.78107 -2.51051,-37.58833 -1.86126,-3.58724 -4.36106,-5.50434 -7.92136,-6.0749 -3.54785,-0.56858 -7.54343,1.36222 -9.59159,4.63499 -1.54783,2.47329 -1.58404,3.01366 -1.08127,16.13851 1.67263,43.66448 2.38545,58.13527 2.90373,58.94818 0.41197,0.64614 3.14972,0.91101 9.41637,0.91101 7.45667,0 8.907,-0.18389 9.29341,-1.17833 z m 39.90799,-35.13766 c 0.17044,-32.0002 0.059,-36.22719 -1.01348,-38.45927 -1.76742,-3.67824 -5.11683,-5.75864 -9.27131,-5.75864 -4.11141,0 -6.86363,1.75401 -8.93383,5.69357 -1.36689,2.60116 -1.39369,3.92846 -0.76419,37.85699 0.3588,19.33872 0.91623,35.58116 1.23872,36.09431 0.43637,0.69433 2.88421,0.88076 9.56948,0.72881 l 8.98312,-0.2042 0.19149,-35.95159 z m 39.24936,35.62814 c 0.87807,-0.54864 1.16013,-5.18716 1.60585,-26.40833 0.29738,-14.15854 0.56528,-30.593 0.59534,-36.52102 l 0.0546,-10.77823 -2.89902,-3.06923 c -2.65909,-2.81523 -3.20429,-3.06924 -6.58783,-3.06924 -4.246,0 -7.00294,1.63735 -9.332,5.54229 -1.41213,2.36759 -1.48568,4.00057 -1.69996,37.74154 -0.12318,19.39679 -0.0505,35.7131 0.16133,36.25848 0.29382,0.75612 2.36239,0.98894 8.71091,0.98044 4.57908,-0.006 8.80492,-0.31065 9.39075,-0.6767 z m 39.8706,-0.0115 c 1.16276,-0.72623 1.04326,1.00269 3.27013,-47.31391 1.22954,-26.67723 1.15877,-27.43239 -2.86363,-30.55705 -4.95176,-3.84659 -12.25383,-2.02794 -15.09022,3.75839 -1.33394,2.72126 -1.59486,5.30586 -2.2213,22.0028 -1.6904,45.05648 -1.77606,51.47386 -0.69606,52.14939 1.36277,0.85237 16.22647,0.81893 17.60108,-0.0396 z m 119.52137,5.2e-4 c 0.92367,-0.48819 1.47795,-1.97124 1.83861,-4.91949 0.28398,-2.32134 1.00514,-8.15622 1.6026,-12.96639 0.59745,-4.81017 1.56195,-12.68135 2.14333,-17.49152 0.58138,-4.81017 1.58114,-12.84534 2.22169,-17.85594 2.06662,-16.16577 2.17482,-19.11923 0.79688,-21.75074 -1.42117,-2.71405 -5.13485,-5.20865 -7.75996,-5.21263 -3.03444,-0.004 -8.00775,2.85131 -9.71451,5.57855 -1.76832,2.82562 -2.22433,6.04008 -6.94399,48.94957 -2.07946,18.90576 -2.47732,24.5157 -1.79614,25.32627 1.03096,1.22677 15.40927,1.50625 17.61149,0.34232 z m 60.62751,-99.17314 c -0.84222,-4.89716 -1.53131,-9.66339 -1.53131,-10.59161 0,-0.92823 -0.37014,-1.91359 -0.82252,-2.1897 -1.05338,-0.64293 -0.2041,8.82899 1.21357,13.53464 0.54343,1.80381 1.19732,4.54304 1.45308,6.08718 0.25576,1.54413 0.63456,2.6401 0.84176,2.43547 0.20721,-0.20462 -0.31235,-4.37881 -1.15458,-9.27598 z m -544.4444,98.09738 c -6.61144,-2.04197 -10.58265,-7.14641 -10.58265,-13.60251 0,-3.14432 6.89143,-42.40361 11.43738,-65.1568 2.79204,-13.97455 4.07256,-20.93042 4.89718,-26.60169 1.46943,-10.10594 3.50866,-13.91449 9.22022,-17.22005 l 3.307,-1.91392 34.09224,0.13262 c 18.75072,0.0729 34.36433,0.39963 34.69688,0.72598 0.33257,0.32635 -0.094,5.80168 -0.94785,12.16741 -3.15637,23.53102 -3.31281,26.01586 -1.97877,31.43007 1.72453,6.99901 5.70374,14.55804 10.39955,19.75526 2.2243,2.4618 4.369,5.07541 4.76602,5.80801 0.39701,0.7326 1.23004,5.73542 1.85116,11.11737 2.1853,18.93539 3.36244,28.78866 4.08586,34.20064 0.40186,3.00635 0.74091,6.53199 0.75344,7.83474 l 0.0228,2.36865 h -9.61708 c -7.02584,0 -9.70593,-0.24547 -9.94679,-0.91102 -0.28546,-0.78879 -1.51814,-9.71298 -4.05195,-29.33474 -0.36234,-2.80594 -1.35916,-10.34916 -2.21515,-16.76272 -0.856,-6.41356 -1.88067,-14.28474 -2.27706,-17.49152 -0.95903,-7.75856 -3.05909,-11.77782 -7.33381,-14.03603 -4.20189,-2.21973 -8.10165,-1.87389 -11.12496,0.9866 -3.52063,3.33102 -3.53259,4.22929 -0.34827,26.16807 0.58181,4.00848 1.60169,11.05975 2.26641,15.66949 2.72111,18.87055 3.2442,22.47904 4.05195,27.95208 0.46457,3.14779 0.66663,6.18148 0.44901,6.74153 -0.55909,1.43883 -61.2071,1.4135 -65.87275,-0.0275 z"
       id="path825"
       inkscape:connector-curvature="0"
       sodipodi:nodetypes="cccccccccscccscccccsccccccccsssscscscccccscscsscccscscssscsscscssscscccccccsccscccccccscccscscccscccccscscscscccscsscscccscsccccccscccscscccccsccsccccccsscccscccssccccassssccccsccssccssscsccssssca" />
    <path
       style="fill:#ff6600;stroke-width:0.73338962"
       d="m 624.57438,361.2768 c 1.4554,-0.2068 -0.3462,-1.3685 1.89556,-22.8111 1.29913,-12.4263 2.38326,-24.1067 2.40917,-25.9566 0.0463,-3.3082 2.31006,-3.6663 18.10471,-21.8644 20.96566,-24.1559 23.26917,-27.0972 26.52559,-33.869 2.49397,-5.1862 2.74205,-6.264 2.77131,-12.0396 0.0246,-4.8471 0.24121,-6.1738 0.91848,-5.6244 0.53294,0.4323 6.85935,0.6566 15.86688,0.5626 8.23929,-0.086 15.97683,0.094 17.19452,0.4005 3.24639,0.8165 6.82739,3.7123 8.43203,6.8185 1.45431,2.8152 1.63835,3.5623 6.57954,26.708 5.4723,25.6335 7.49726,33.8098 7.49726,30.272 -0.8939,9.98821 8.35202,44.73713 6.89776,55.93648 m -184.50828,0.87326 c -4.39721,-0.01 -8.44124,-0.2905 -8.98672,-0.6319 -0.82869,-0.5187 -0.78941,-4.6217 0.23881,-24.9507 2.51227,-49.6699 2.53594,-49.0138 -1.90099,-52.7008 -5.00875,-4.1622 -12.4529,-2.4759 -15.37367,3.4826 -1.59509,3.254 -2.00379,10.0935 -3.43739,57.5226 l -0.50176,16.6004 -10.04944,-0.2021 -10.04945,-0.2022 0.031,-3.2796 c 0.017,-1.8038 0.29319,-18.2682 0.61369,-36.5874 l 0.58274,-33.3077 -2.95922,-3.133 c -2.72384,-2.8838 -3.25262,-3.133 -6.64803,-3.133 -4.24601,0 -7.00295,1.6374 -9.33201,5.5423 -1.41332,2.3696 -1.48545,3.9994 -1.69899,38.3891 l -0.22302,35.9144 -10.1089,-0.2026 -10.10895,-0.2025 -0.369,-36.4407 c -0.36703,-36.246 -0.37779,-36.4528 -2.01495,-38.7194 -4.63092,-6.4114 -13.44204,-5.7961 -17.31268,1.209 -1.33538,2.4168 -1.37257,3.9628 -0.84988,35.324 0.30064,18.0381 0.56327,34.1085 0.58364,35.7119 l 0.037,2.9152 h -9.96292 l -11.00477,-0.99102 -0.0652,-34.72078 c -0.0625,-33.30823 -1.20699,-35.8796 -2.58298,-38.1866 -4.2783,-7.173 -13.26153,-7.691 -17.44525,-1.0058 -1.78938,2.8593 -1.8201,-1.5574 0.36386,52.311 0.60603,14.9481 0.64652,22.0375 0.12799,22.4117 -0.41715,0.301 -4.90968,0.465 -9.98339,0.3644 l -9.22495,-0.1829 -0.88887,-15.6695 c -3.28966,-57.9918 -3.07642,-55.3911 -4.78851,-58.3995 -3.24181,-5.6963 -10.44394,-7.1547 -15.3204,-3.1025 -4.41111,3.6655 -4.38607,2.6258 -1.13918,47.2902 2.20502,30.3322 2.15401,28.8749 1.03512,29.5745 -0.5709,0.3569 -2.4848,0.6539 -4.25312,0.6601 -2.99689,0.01 -3.59014,-0.3475 -8.73993,-5.2728 -3.03865,-2.9061 -5.81187,-5.81 -6.16271,-6.4531 -0.6085,-1.1153 -1.64463,-12.2653 -4.05647,-43.6528 -0.65637,-8.5419 -1.55611,-15.4526 -2.2552,-17.3219 -2.1539,-5.7591 -8.40454,-8.6982 -13.78072,-6.4798 -6.05562,2.4987 -7.18011,8.1047 -5.34061,26.6252 1.30944,13.1838 1.31103,15.7756 0.009,14.8126 -0.4059,-0.3002 -5.10569,-4.9651 -10.44397,-10.3664 l -9.70596,-9.8205 -0.50616,-5.1017 c -0.73591,-7.4174 -1.63979,-10.2776 -4.13463,-13.0838 -3.33676,-3.753 -7.76061,-4.797 -12.55699,-2.9632 -1.25885,0.4813 -2.36299,-1.5307 -3.22851,-5.883 -0.37395,-1.8805 3.37148,-31.0816 4.43187,-34.5531 0.29593,-0.9688 21.57815,-1.0666 187.00467,-0.859 l 186.67074,0.2342 0.26933,-2.4207 0.26932,-2.4206 1.0168,2.1864 c 0.55924,1.2026 1.04202,4.332 1.07285,6.9542 0.0452,3.8426 -0.33575,5.5135 -1.96302,8.611 -1.82444,3.4728 -25.95286,32.1721 -27.04809,32.1721 -0.25158,0 -1.38655,-0.9721 -2.52216,-2.1604 -4.79003,-5.0119 -12.98678,-2.9228 -16.74037,4.2667 -0.50017,0.958 -1.25786,6.6154 -1.68376,12.572 l -0.77436,10.8302 -10.71496,12.3813 c -5.89322,6.8097 -10.78734,12.3032 -10.87581,12.2076 -0.0885,-0.095 0.59172,-9.652 1.51153,-21.2367 1.77704,-22.3812 1.63032,-25.4039 -1.45919,-30.0604 -2.69991,-4.0693 -9.19735,-4.8467 -13.75014,-1.6452 -3.66088,2.5744 -4.84995,6.327 -5.40476,17.0568 -0.26945,5.211 -0.95077,16.8538 -1.51404,25.8729 -0.56326,9.0191 -0.96275,20.95824 -1.53354,26.4819 l -0.94836,9.17754 m 30.16458,-9.77824 c 4.26192,-5.0511 8.66833,-10.0562 9.79203,-11.1224 l 2.0431,-1.9386 -0.56711,7.6195 c -0.3119,4.1908 -0.5671,9.3414 -0.5671,11.4459 0,2.1044 -0.3321,3.8537 -0.738,3.8872 -0.40589,0.034 -4.39106,0.013 -8.85593,-0.046 l -8.11794,-0.1073 m 73.9544,0.51537 c 0,0 3.48453,-8.20386 8.57655,-52.87583 l 1.28034,-11.23234 1.68839,-9.815 c -2.50143,-4.4815 -6.04716,-7.3984 -8.99335,-7.3984 -3.10568,0 -8.06718,2.8286 -9.78987,5.5812 -1.76832,2.8257 -2.22433,6.0401 -6.94399,48.9496 -2.07946,18.9058 -2.12981,25.79819 -2.12981,25.79819 M 179.62727,358.9493 c -4.29473,-1.3291 -6.50144,-2.9666 -8.33187,-6.1829 -1.99758,-3.51 -2.02901,-6.5823 -0.16207,-15.8397 0.79943,-3.9641 4.46224,-22.4578 8.13956,-41.0972 3.67733,-18.6394 7.30898,-36.0217 8.07034,-38.6272 0.76136,-2.6055 1.78442,-6.2131 2.27348,-8.0169 1.0768,-3.9716 5.11978,-8.0171 9.22423,-9.2298 2.46814,-0.7293 2.99835,-0.6781 3.77427,0.3644 0.83204,1.1179 1.066,1.1215 2.98703,0.046 1.81863,-1.0178 5.73846,-1.1572 30.75467,-1.0933 l 28.6704,0.073 1.03178,-1.822 c 0.95449,-1.6855 0.99943,-1.5217 0.59989,2.1865 -0.23754,2.2046 -1.0538,8.436 -1.81391,13.8474 -2.31906,16.5101 -2.48794,20.2589 -1.1498,25.5223 1.78434,7.0185 5.73896,14.3895 10.69419,19.9329 3.84898,4.3058 4.35886,5.221 4.03876,7.2491 -0.20149,1.2766 0.81925,11.8322 2.2683,23.4567 1.44905,11.6246 2.84351,22.8939 3.09881,25.0429 0.34678,2.9192 0.20677,4.0683 -0.5536,4.544 -1.6669,1.0426 -16.87249,0.8205 -17.26068,-0.2521 -0.28546,-0.7888 -1.51814,-9.713 -4.05195,-29.3348 -0.36234,-2.8059 -1.35916,-10.3491 -2.21515,-16.7627 -0.856,-6.4135 -1.88067,-14.2847 -2.27706,-17.4915 -0.95903,-7.7586 -3.05909,-11.7778 -7.33381,-14.036 -6.20258,-3.2767 -10.92282,-1.2358 -14.52821,6.2815 l -1.87361,3.9065 2.64807,17.5935 c 7.59892,50.4864 7.45809,49.374 6.33912,50.0733 -1.71196,1.07 -59.51351,0.7632 -63.06118,-0.3346 z m 126.21301,0.1047 c -0.60606,-1.7138 -3.30111,-29.2334 -2.90154,-29.628 0.21933,-0.2166 5.3277,4.5163 11.35194,10.5175 l 10.95315,10.9114 -0.39525,4.0085 c -0.21739,2.2046 -0.76419,4.2494 -1.2151,4.5439 -1.49136,0.974 -17.43578,0.6575 -17.7932,-0.3533 z"
       id="path823"
       inkscape:connector-curvature="0"
       sodipodi:nodetypes="cscccccccssccccsccsccccscsscscccsccsccccsccscccscssccccsccscccsccccsccccccsccscscsscscscccccsccccsccscsccscssccsccccccccsccccccscscscccccccccc" />
    <path
       style="fill:#000000;stroke-width:0.73338962"
       d="m 245.294,635.6346 c -4.20505,-2.04622 -3.76653,-0.6186 -11.20696,-36.48486 -2.62106,-12.63463 -3.25274,-15.56533 -8.12928,-37.71611 -2.02969,-9.21949 -4.16981,-18.56652 -4.75582,-20.77118 -0.586,-2.20466 -2.22301,-9.41992 -3.63779,-16.0339 -11.23696,-52.53179 -10.85976,-50.09223 -8.15782,-52.76056 1.72705,-1.70557 5.82615,-2.5695 8.92096,-1.88018 5.78932,1.28946 9.13921,5.37875 10.49149,12.80722 0.50345,2.76563 2.70519,14.37547 4.89274,25.79962 2.18756,11.42415 5.82487,30.61017 8.08292,42.63559 3.43275,18.28138 9.57837,48.76827 14.76506,73.24577 0.63703,3.00636 1.15851,6.34421 1.15885,7.41744 0.001,4.33721 -6.91784,6.42068 -12.42435,3.74115 z m 40.74329,0.0735 c -3.35758,-1.6357 -4.43941,-4.44984 -6.55931,-17.06257 -1.04427,-6.21313 -3.05998,-18.01991 -4.47935,-26.23729 -1.41937,-8.21737 -2.90941,-16.90847 -3.3112,-19.31356 -0.4018,-2.40508 -1.36529,-7.48856 -2.14109,-11.29661 -5.14844,-25.27127 -14.77937,-81.1744 -14.77937,-85.78743 0,-0.95505 0.85242,-2.57827 1.89428,-3.60717 1.71008,-1.6888 2.33972,-1.84269 6.47533,-1.58264 4.94877,0.3112 7.60782,1.71282 9.64582,5.08444 1.21828,2.01548 8.27592,43.09813 13.69141,79.69789 1.66072,11.22373 5.1216,32.86949 7.69086,48.10169 4.98108,29.53116 5.03658,30.73571 1.48953,32.33175 -2.56498,1.15415 -6.87575,1.0069 -9.61691,-0.3285 z m 40.68413,-0.18447 c -4.04767,-2.44396 -3.96537,-2.14074 -7.05375,-25.98827 -0.83059,-6.41356 -1.97749,-14.94068 -2.54868,-18.94915 -0.57118,-4.00848 -1.2402,-9.25593 -1.48672,-11.66102 -0.24652,-2.40508 -0.75303,-6.01271 -1.12559,-8.01695 -0.37255,-2.00424 -1.19764,-7.08771 -1.83354,-11.29661 -0.63589,-4.2089 -1.63832,-10.60424 -2.22762,-14.21186 -0.58931,-3.60763 -1.74042,-11.6428 -2.55802,-17.85594 -0.81761,-6.21313 -2.16882,-16.38008 -3.00268,-22.59322 -2.66744,-19.87519 -3.5407,-29.40246 -2.81734,-30.73724 2.85734,-5.2726 13.50567,-4.56165 17.29851,1.15495 1.2914,1.94642 6.42426,39.65771 10.67271,78.4128 1.2084,11.02331 3.8883,32.95408 5.95532,48.73505 2.06702,15.78097 3.56128,29.46759 3.32057,30.41471 -0.92622,3.64445 -8.32759,5.16828 -12.59317,2.59275 z m 40.38679,-0.11845 c -1.32927,-0.80037 -2.6947,-2.193 -3.03428,-3.09473 -0.62081,-1.64856 -1.45837,-9.23021 -3.40165,-30.79204 -1.3952,-15.48059 -2.78082,-28.71206 -4.80832,-45.91525 -1.48433,-12.59447 -3.72246,-34.16885 -5.14128,-49.55933 -0.84994,-9.21949 -1.83263,-19.71153 -2.18377,-23.31563 -0.92394,-9.48332 0.89181,-12.03183 8.57239,-12.03183 4.16357,0 7.78043,2.05652 9.31317,5.29539 1.10209,2.32883 4.31241,35.16772 6.82095,69.77241 1.7676,24.38366 2.40156,31.97088 4.74726,56.81526 2.29998,24.36023 2.56279,28.94647 1.7749,30.97413 -1.25991,3.24243 -8.573,4.31208 -12.65937,1.85162 z m 40.62789,0.023 c -3.41286,-2.05502 -3.44478,-2.27948 -5.42422,-38.15462 -0.82221,-14.90176 -1.78555,-30.53774 -2.14076,-34.74664 -1.30238,-15.432 -2.96041,-40.12067 -3.71984,-55.38983 -0.42864,-8.61822 -1.08166,-18.91798 -1.45118,-22.88836 -0.54762,-5.88423 -0.47175,-7.60096 0.41033,-9.28551 1.78888,-3.41627 4.15496,-4.48389 9.14699,-4.1273 4.68185,0.33445 6.71572,1.53687 8.56131,5.06145 1.11705,2.13325 3.40453,41.90914 4.73054,82.25667 0.41497,12.6267 0.9271,24.92543 1.13807,27.33051 1.36442,15.5545 2.55174,46.40245 1.8368,47.72172 -1.94189,3.5833 -8.87296,4.75997 -13.08804,2.2219 z m 41.05284,0.22461 c -1.05354,-0.64589 -2.31208,-1.80142 -2.79675,-2.56785 -0.61835,-0.9778 -1.08223,-10.78556 -1.55509,-32.87829 -0.37063,-17.31665 -1.03117,-40.01193 -1.46786,-50.43396 -0.4367,-10.42204 -1.08862,-30.75594 -1.4487,-45.18645 -0.71993,-28.85104 -0.6485,-29.47706 3.72284,-32.6281 2.38975,-1.72263 7.74423,-1.82917 10.90127,-0.21691 5.03208,2.56982 4.71293,-2.29743 5.40343,82.40434 0.3431,42.08898 0.44245,77.27352 0.22077,78.18786 -0.92928,3.83272 -8.84193,5.85621 -12.97991,3.31934 z m 39.45809,-1.28592 -2.71062,-2.67689 0.49556,-8.89084 c 0.27257,-4.88996 0.65489,-35.62008 0.84962,-68.28915 0.40378,-67.74118 0.64853,-76.48051 2.2263,-79.49361 1.4871,-2.83997 4.65071,-4.31995 9.23436,-4.31995 3.33805,0 4.10569,0.30147 6.3096,2.47796 2.48204,2.45116 2.50884,2.54775 2.47793,8.92797 -0.0542,11.18955 -1.38477,59.65756 -2.13779,77.87373 -0.39769,9.62034 -0.76392,22.575 -0.81386,28.78814 -0.05,6.21313 -0.39398,18.66689 -0.76454,27.67501 -0.65697,15.97032 -0.71861,16.4227 -2.4742,18.15645 -1.34738,1.33061 -2.82987,1.86236 -5.8911,2.11307 -3.91679,0.32076 -4.20586,0.22123 -6.80126,-2.34189 z m 42.89882,1.81005 c -0.8118,-0.32813 -2.10842,-1.29101 -2.8814,-2.13973 -1.2789,-1.40425 -1.3641,-2.3468 -0.94657,-10.47162 0.25236,-4.91066 1.11507,-21.55517 1.91715,-36.9878 0.80207,-15.43262 1.82173,-37.40635 2.2659,-48.83051 1.20389,-30.96423 2.89078,-59.47615 3.63085,-61.36876 1.02443,-2.61982 3.86064,-4.80894 7.08398,-5.46773 4.31253,-0.8814 6.67321,-0.38193 9.19642,1.94577 2.61836,2.4155 2.69812,3.63624 1.47777,22.61954 -0.39941,6.21313 -1.23037,19.49576 -1.84657,29.51695 -0.6162,10.02118 -1.42618,21.66398 -1.79997,25.87288 -1.08189,12.18228 -2.10373,27.47211 -4.89442,73.2352 -0.47545,7.79656 -0.55138,8.06873 -2.89742,10.38559 -2.00654,1.98158 -2.94571,2.37149 -5.61946,2.33301 -1.76565,-0.0254 -3.87447,-0.31466 -4.68626,-0.64279 z m 40.44821,-0.0468 c -0.88961,-0.35388 -2.14319,-1.43579 -2.78575,-2.40426 -1.07739,-1.62386 -0.96817,-3.85262 1.40367,-28.64514 1.41458,-14.78636 3.41843,-38.19911 4.453,-52.02835 1.03458,-13.82924 2.19604,-28.25975 2.58103,-32.0678 0.38499,-3.80805 1.4085,-14.9589 2.27447,-24.77966 1.70963,-19.38846 2.29297,-21.64366 6.21813,-24.03936 4.24076,-2.58834 12.66161,-1.4758 13.95128,1.84319 0.67941,1.74851 0.55617,9.41559 -0.25752,16.02037 -0.39377,3.19627 -1.23268,11.5508 -1.86425,18.56563 -1.40642,15.62096 -2.89269,29.99949 -4.4448,43 -0.64606,5.41144 -1.48595,12.46271 -1.8664,15.66949 -0.38045,3.20678 -1.19807,11.24195 -1.81692,17.85594 -0.61886,6.61398 -1.43001,14.64915 -1.80255,17.85593 -0.37256,3.20678 -0.88103,8.61822 -1.12993,12.02542 -0.60796,8.3221 -1.85522,16.84208 -2.69291,18.395 -1.57155,2.91341 -8.09836,4.37338 -12.22055,2.7336 z m 40.43461,-0.18595 c -3.97594,-2.01937 -4.03258,-0.60458 1.76888,-44.18327 1.79363,-13.47317 4.1194,-32.36785 5.16839,-41.98819 3.90166,-35.78253 8.9335,-72.33171 10.22642,-74.28041 3.44173,-5.18739 12.17695,-6.68278 16.14519,-2.76391 1.77106,1.74904 1.85809,6.93859 0.29804,17.7718 -0.59615,4.13971 -1.64213,11.79031 -2.32441,17.00133 -3.08508,23.5626 -7.0073,50.20876 -8.47503,57.57627 -0.39928,2.00424 -1.03816,6.2678 -1.41974,9.47458 -0.38158,3.20678 -1.40726,11.07796 -2.2793,17.49152 -0.87203,6.41356 -2.05394,15.10467 -2.62645,19.31356 -0.57253,4.2089 -1.41078,10.44026 -1.8628,13.84746 -0.45201,3.40721 -1.14091,6.78641 -1.53089,7.50934 -1.89535,3.51361 -9.05231,5.2798 -13.0883,3.22992 z m 39.37671,-0.86715 c -0.99629,-0.9839 -1.8096,-2.37775 -1.80735,-3.09746 0.002,-0.7197 2.14013,-13.77126 4.75085,-29.00346 2.6107,-15.23221 6.11737,-36.87797 7.79257,-48.1017 2.70698,-18.13651 9.06982,-55.54548 12.13267,-71.33145 1.7131,-8.82941 5.60699,-12.84655 12.45235,-12.84655 3.84921,0 6.78531,1.935 7.34815,4.84268 0.20869,1.07812 -0.76545,8.05477 -2.16476,15.50368 -1.3993,7.44891 -3.50173,19.1189 -4.67203,25.93331 -1.17031,6.8144 -2.64676,15.09555 -3.281,18.40254 -1.24377,6.48519 -3.01988,15.83495 -4.11883,21.6822 -0.37668,2.00424 -1.19874,6.2678 -1.8268,9.47458 -0.62805,3.20678 -1.61803,8.61822 -2.19995,12.02542 -8.88935,52.04822 -9.13697,53.33683 -10.54437,54.87266 -3.53627,3.85891 -10.75189,4.71446 -13.8615,1.64352 z m -462.3199,-275.0634 c -1.4443,-0.43708 -1.8,-0.97587 -1.63783,-2.48088 0.49664,-4.60897 8.3447,-41.70052 8.94968,-42.29797 0.80908,-0.79902 1.09214,-0.28415 5.53237,10.06326 1.89212,4.40933 3.82177,8.67288 4.28813,9.47458 2.32815,4.00217 6.48347,12.9367 6.48347,13.94037 0,0.6269 0.48772,2.01033 1.08382,3.0743 2.35396,4.20152 3.29576,7.34295 2.37726,7.92953 -1.17239,0.74872 -24.7303,1.00695 -27.0769,0.29681 z m 514.55215,0.059 c -0.74639,-0.49704 -0.63214,-2.09527 0.56187,-7.86024 0.82432,-3.97999 2.15672,-11.4999 2.96089,-16.71092 0.80417,-5.21101 1.80664,-11.1144 2.22773,-13.11864 0.42109,-2.00424 1.12342,-5.44788 1.56076,-7.65254 1.39086,-7.01159 3.34113,-12.75424 4.33149,-12.75424 1.32266,0 12.86295,56.45607 11.76274,57.54434 -0.94515,0.9349 -22.08196,1.43361 -23.40548,0.55224 z"
       id="path819"
       inkscape:connector-curvature="0" />
  </g>
</svg>
