<?xml version="1.0" encoding="UTF-8" standalone="no"?>
<!-- Created with Inkscape (http://www.inkscape.org/) -->

<svg
   xmlns:dc="http://purl.org/dc/elements/1.1/"
   xmlns:cc="http://creativecommons.org/ns#"
   xmlns:rdf="http://www.w3.org/1999/02/22-rdf-syntax-ns#"
   xmlns:svg="http://www.w3.org/2000/svg"
   xmlns="http://www.w3.org/2000/svg"
   xmlns:sodipodi="http://sodipodi.sourceforge.net/DTD/sodipodi-0.dtd"
   xmlns:inkscape="http://www.inkscape.org/namespaces/inkscape"
   version="1.1"
   id="svg2"
   width="297mm"
   height="210mm"
   viewBox="0 0 1122.5197 793.7008"
   sodipodi:docname="shop.svg"
   inkscape:export-filename="D:\D\aa\PROJECTS\restaurant\png\shop2.png"
   inkscape:export-xdpi="750"
   inkscape:export-ydpi="750"
   inkscape:version="0.92.3 (2405546, 2018-03-11)">
  <metadata
     id="metadata8">
    <rdf:RDF>
      <cc:Work
         rdf:about="">
        <dc:format>image/svg+xml</dc:format>
        <dc:type
           rdf:resource="http://purl.org/dc/dcmitype/StillImage" />
        <dc:title></dc:title>
      </cc:Work>
    </rdf:RDF>
  </metadata>
  <defs
     id="defs6" />
  <sodipodi:namedview
     pagecolor="#ffffff"
     bordercolor="#666666"
     borderopacity="1"
     objecttolerance="10"
     gridtolerance="10"
     guidetolerance="10"
     inkscape:pageopacity="0"
     inkscape:pageshadow="2"
     inkscape:window-width="1280"
     inkscape:window-height="961"
     id="namedview4"
     showgrid="false"
     inkscape:zoom="0.70377385"
     inkscape:cx="558.97556"
     inkscape:cy="396.85039"
     inkscape:window-x="-8"
     inkscape:window-y="-8"
     inkscape:window-maximized="1"
     inkscape:current-layer="g817"
     units="mm" />
  <g
     id="g817"
     transform="translate(17.355933,-65.417868)">
    <path
       style="fill:#ffffff"
       d="m 655.65481,756.11481 c -0.4089,-0.6616 -72.027,-1 -211.6087,-1 -226.3207,0 -215.104,0.243 -217.5202,-4.713 -0.4791,-0.9829 -1.0961,-80.6121 -1.3711,-176.9538 -0.275,-96.3417 -0.7837,-175.4504 -1.1303,-175.797 -0.3467,-0.3466 -2.5967,0.6959 -5,2.3166 -2.4034,1.6206 -6.7444,3.7226 -9.6469,4.6709 -7.0547,2.3051 -19.8102,1.6828 -26.4736,-1.2914 -7.0172,-3.1322 -14.9757,-11.1498 -18.3733,-18.5099 -2.735,-5.9245 -2.8884,-7.0129 -3.2047,-22.7348 l -0.3322,-16.5124 39.9383,-82.7138 c 21.966,-45.4926 40.4916,-83.3806 41.168,-84.1956 0.8199,-0.9879 3.5566,-1.5791 8.2118,-1.7738 l 6.9821,-0.292 c 58.3608,1.4199 514.3608,1.3935 569.7197,0 l 8.9919,0.5 c 4.9455,0.275 9.1862,0.725 9.4238,1 0.2376,0.275 18.5978,38.075 40.8004,84 l 40.3684,83.5 0.3649,11.2722 c 0.4668,14.4204 -1.0176,23.1959 -5.2065,30.7815 -10.8584,19.663 -37.5516,24.6199 -55.6293,10.3303 -2.7628,-2.1839 -5.4619,-3.6996 -5.9979,-3.3683 -0.6269,0.3874 -0.9746,63.4174 -0.9746,176.639 0,162.4467 -0.1286,176.2543 -1.6653,178.8558 -0.9159,1.5505 -2.7371,3.3074 -4.0471,3.9043 -1.4895,0.6787 -10.9048,1.0852 -25.1347,1.0852 -14.7005,0 -23.1283,0.3753 -23.8134,1.0605 -0.5833,0.5832 -3.2608,0.9207 -5.95,0.75 l -4.8895,-0.3105 -0.5,-83.2277 -0.5,-83.2277 -2.7722,-2.7723 -2.7722,-2.7723 -55.2102,-0.2751 c -40.2455,-0.2005 -55.9711,0.04 -58.0176,0.8878 -6.0355,2.5 -5.7278,-2.195 -5.7278,87.4098 0,62.5047 -0.2862,82.3636 -1.2,83.2775 -1.4489,1.4489 -10.4299,1.6078 -11.3,0.2 z m -154.7448,-214.75 0.2553,-91.25 h -91.5053 -91.5052 v 90.8333 c 0,49.9584 0.3023,91.1357 0.6719,91.5053 0.3695,0.3695 41.432,0.557 91.25,0.4166 l 90.5781,-0.2552 z m -211.7552,-137.8684 c 8.2232,-3.92 14.3856,-10.0848 18.3748,-18.3816 3.0339,-6.3101 3.1398,-6.9967 3.6252,-23.5 l 0.5,-17 40.25,-83.1953 c 22.1375,-45.7574 40.25,-83.3324 40.25,-83.5 0,-0.1676 -17.2125,-0.2102 -38.25,-0.095 l -38.25,0.2102 -40.2355,83.2899 c -22.1295,45.8094 -40.2351,84.1899 -40.2347,85.2899 6e-4,1.404 0.2421,1.6198 0.8105,0.724 0.6325,-0.9965 8.7862,-1.2752 37.2347,-1.2727 h 36.425 v 16.2727 c 0,15.5601 -0.1174,16.5231 -2.6801,21.9908 -3.7531,8.0075 -10.5471,14.9205 -18.0856,18.4024 -5.4878,2.5347 -7.3747,2.8795 -15.7578,2.8795 -8.7496,0 -10.0669,-0.2676 -16.2101,-3.293 -11.0678,-5.4504 -18.1949,-15.4448 -20.8276,-29.2067 l -0.8609,-4.5 0.3436,4.5 c 1.0883,14.2492 12.3294,27.8891 26.8645,32.5972 2.4792,0.8031 7.5074,1.2658 12.214,1.124 6.5695,-0.1979 9.1623,-0.7951 14.5,-3.3396 z m 151.2985,-0.2078 c 8.2146,-4.0441 15.6995,-11.976 18.8041,-19.9272 1.8763,-4.8055 2.3149,-8.2493 2.6782,-21.0291 l 0.4344,-15.2825 40.1424,-83.0925 c 22.0783,-45.7009 40.5823,-83.1488 41.1199,-83.2175 0.5377,-0.069 19.1002,37.3946 41.25,83.2519 39.3512,81.4695 40.2735,83.517 40.3161,89.5 0.1029,14.4583 1.6959,26.3743 4.2805,32.0198 3.2642,7.1301 10.5645,14.4204 18.1886,18.1637 5.4131,2.6577 6.9463,2.9396 15.9873,2.9396 8.7386,0 10.7158,-0.3356 15.6751,-2.6604 3.1214,-1.4632 7.7339,-4.5581 10.2501,-6.8774 4.8446,-4.4657 10.1943,-14.0864 11.1,-19.9622 0.3284,-2.1301 -0.2578,-1.0937 -1.4978,2.648 -4.0809,12.3147 -13.389,21.657 -24.9165,25.0081 -7.1838,2.0884 -18.9279,1.4319 -25.3282,-1.4158 -9.0985,-4.0483 -18.3708,-14.7261 -20.6152,-23.7403 -1.3539,-5.4375 -2.4145,-30.6865 -1.3562,-32.2857 0.6736,-1.0179 8.5918,-1.2262 38.0203,-1 20.4432,0.1571 37.1693,0.061 37.1691,-0.2143 -2e-4,-0.275 -18.2482,-38.3 -40.5512,-84.5 l -40.5509,-84 h -77.3726 -77.3726 l -40.0767,83.0516 c -22.0422,45.6784 -40.0767,83.8424 -40.0767,84.809 0,0.9666 0.4259,1.4942 0.9465,1.1724 0.5206,-0.3217 17.2831,-0.5856 37.25,-0.5863 l 36.3035,-10e-4 0.2798,13.1367 c 0.324,15.2152 -1.1408,22.6886 -5.9012,30.107 -3.9531,6.1604 -8.9353,10.4745 -15.833,13.7098 -4.8164,2.259 -6.8606,2.6008 -15.5456,2.5989 -9.2755,0 -10.4374,-0.2307 -16.0367,-3.1566 -9.9108,-5.1791 -16.0313,-12.9141 -19.656,-24.8412 -1.4124,-4.6473 -1.6953,-5.0982 -1.2551,-2 0.8338,5.8682 5.6255,15.4493 9.9003,19.7961 8.5112,8.6544 16.5439,11.8514 28.6743,11.4121 7.3247,-0.2652 9.6147,-0.7987 15.1717,-3.5344 z m 390.2015,0.3142 c 10.2171,-4.8857 19.0434,-16.0742 20.8956,-26.488 0.3424,-1.925 -0.4464,-0.5039 -1.7529,3.1579 -2.791,7.8228 -4.8773,10.9601 -11.1073,16.7026 -7.3712,6.7946 -12.304,8.5601 -24.0354,8.603 -8.3334,0.03 -10.8201,-0.3417 -14.9204,-2.2326 -10.1999,-4.704 -16.6657,-12.0667 -20.775,-23.657 -1.3501,-3.8082 -1.6441,-4.2008 -1.1785,-1.5739 1.4989,8.4573 9.1038,18.9993 17.0763,23.6715 7.1563,4.1939 12.0302,5.3375 21.2976,4.9975 6.8836,-0.2526 9.641,-0.8575 14.5,-3.181 z m -52.5,-57.238 c -10e-5,-0.8697 71.6383,-0.5916 73.0544,0.2836 0.5201,0.3214 0.9456,-0.032 0.9456,-0.7843 0,-0.7528 -18.1125,-38.8283 -40.25,-84.6122 l -40.25,-83.2436 -38.25,-0.1967 c -21.0375,-0.1083 -38.1375,0.137 -38,0.5451 1.2694,3.7671 81.4353,168.7409 82,168.7483 0.4125,0.01 0.75,-0.3277 0.75,-0.7402 z m -92.6217,336.3131 c -10.7754,-4.6897 -7.2044,-20.5631 4.626,-20.5631 4.8083,0 9.9957,5.5411 9.9957,10.6775 0,4.7694 -2.2099,8.0944 -6.5986,9.9281 -4.0067,1.6741 -4.0797,1.6737 -8.0231,-0.043 z"
       id="path829"
       inkscape:connector-curvature="0"
       sodipodi:nodetypes="cscscccccsccccccssscscccsccscccccccscsccccccsssccccscssccsccccsscsccccccccccccscccccscccccccccsscccsscccccccccccccccccccccccccccssccccccssccc" />
    <path
       style="fill:#ff6600"
       d="m 340.10451,405.64021 c -10.329,-2.5955 -20.7946,-11.36432 -25.3603,-21.24864 -2.7298,-5.90992 -2.89,-7.03236 -3.1899,-22.35331 l -0.3158,-16.13095 40.6063,-84.14897 c 22.3335,-46.28194 40.3365,-84.58553 40.0068,-85.11907 -0.3699,-0.59843 -14.7433,-0.97008 -37.5175,-0.97008 h -36.9179 l -1.4385,2.25 c -0.7912,1.2375 -19.2278,39.15001 -40.9703,84.25001 l -39.5318,82 -0.3028,17.5 c -0.2866,16.5678 -0.4456,17.80471 -2.9839,23.22034 -3.311,7.06444 -9.6589,13.36706 -17.4173,17.29321 -5.4362,2.75095 -6.7295,2.98645 -16.4016,2.98645 -8.6994,0 -11.3146,-0.37624 -15.2507,-2.19411 -7.0893,-3.27412 -14.9994,-11.27475 -18.3734,-18.58352 -2.7349,-5.92449 -2.8883,-7.01287 -3.2046,-22.73475 l -0.3322,-16.51238 39.9383,-82.7138 c 21.966,-45.49259 40.4916,-83.38061 41.168,-84.19559 0.8269,-0.99633 3.5763,-1.57745 8.3922,-1.77382 l 7.1624,-0.29204 0.5,-17 0.5,-17 h 283.5 283.5 l 0.5,17 0.5,17 9.1714,0.5 c 5.0442,0.275 9.3657,0.725 9.6033,1 0.2376,0.275 18.5978,38.07501 40.8004,84.00001 l 40.3684,83.5 0.3649,11.27224 c 0.2007,6.19973 -0.1499,14.3239 -0.779,18.05371 -2.2743,13.48361 -11.1992,24.46843 -23.6857,29.15233 -8.1983,3.07534 -20.4994,2.59619 -28.3437,-1.10401 -8.1354,-3.83759 -14.3968,-9.90491 -18.2132,-17.64866 -3.2602,-6.61512 -3.2911,-6.81503 -3.8218,-24.69736 l -0.535,-18.02825 -39.275,-81 c -21.6013,-44.55 -39.9334,-82.01251 -40.738,-83.25001 l -1.4631,-2.25 h -36.9179 c -21.9125,0 -37.1536,0.38134 -37.4978,0.93822 -0.3189,0.51602 17.8796,39.19161 40.441,85.94576 l 41.0208,85.00753 v 13.51674 c 0,11.21475 -0.352,14.4577 -2.0672,19.04187 -4.3827,11.71385 -13.0254,20.66754 -23.4328,24.27582 -6.8941,2.39023 -18.5146,2.30892 -25.239,-0.17661 -11.0098,-4.06959 -19.2101,-12.87642 -23.2259,-24.94391 -1.8356,-5.51616 -2.1202,-8.53833 -2.0026,-21.26763 l 0.1371,-14.83778 -40.3864,-83.5 -40.3864,-83.50001 h -76.8747 -76.8748 l -40.3143,83.50001 -40.3142,83.5 -0.02,15.5 c -0.022,16.66818 -0.9907,21.89816 -5.4749,29.54977 -3.5732,6.09728 -11.7291,13.00327 -18.322,15.51419 -6.4183,2.44441 -16.8163,3.32701 -22.4672,1.90705 z m 160.3739,-0.0526 c -7.0324,-1.38108 -16.6435,-6.40355 -22.2044,-11.60338 -11.4191,-10.67754 -15.904,-21.01203 -15.904,-36.64756 v -10.28686 l 40.3016,-83.44031 c 22.1659,-45.89216 40.7284,-83.3892 41.25,-83.32673 0.5217,0.0625 19.0609,37.58208 41.1984,83.37691 l 40.25,83.26333 -0.017,6.6231 c -0.068,25.95506 -14.3706,45.66221 -37.4427,51.59143 -4.8895,1.25654 -12.8827,1.51198 -44.5,1.42209 -21.1969,-0.0603 -40.5161,-0.49767 -42.9316,-0.97203 z"
       id="path823"
       inkscape:connector-curvature="0"
       sodipodi:nodetypes="ccccscsccsccccsccscccccccccccssscsccccccsccscscscccccccccccccccccccscscsccsccc" />
    <path
       style="fill:#000000"
       d="m 656.07947,754.30601 c -0.27621,-0.7198 -0.37459,-38.1823 -0.21861,-83.25 0.28303,-81.78 0.28784,-81.9491 2.44201,-85.9412 1.18713,-2.2 3.43713,-5.2137 5,-6.697 6.2218,-5.9051 5.03104,-5.803 67.69527,-5.803 h 57.41793 l 5.34875,2.7942 c 3.89369,2.0341 6.16906,4.1209 8.36419,7.671 l 3.01544,4.8767 0.27218,83.8821 0.27218,83.882 -5.27218,-0.303 -5.27218,-0.303 -0.5,-82.5 c -0.36643,-60.4618 -0.81323,-83.0449 -1.67257,-84.5396 -2.85821,-4.9716 -2.71751,-4.9604 -62.40549,-4.9604 -55.06568,0 -55.8112,0.027 -58.59861,2.0964 -1.55283,1.153 -3.3792,3.178 -4.05859,4.5 -0.9503,1.8491 -1.23866,21.2619 -1.25,84.1536 l -0.0147,81.75 h -5.03138 c -3.22304,0 -5.21189,-0.4704 -5.5336,-1.3088 z m 29.42104,-73.2076 c -5.14117,-2.793 -5.7521,-10.8471 -1.10032,-14.5061 5.95934,-4.6877 14.27512,-0.7516 14.21246,6.727 -0.0629,7.5079 -6.53897,11.3499 -13.11214,7.7791 z m -390.85606,-33.1931 c -2.96606,-1.0906 -5,-3.6495 -5,-6.2905 0,-4.3703 3.14716,-6.305 11.2871,-6.9386 l 7.2129,-0.5614 0.25497,-96.7548 0.25498,-96.7548 101.24502,0.2548 101.24503,0.2548 0.25497,96.75 0.25498,96.75 h 5.92992 c 7.56292,0 10.83504,1.2549 11.64061,4.4646 1.0591,4.2198 -0.27042,7.2316 -3.72368,8.4354 -3.27653,1.1422 -227.77962,1.522 -230.8568,0.3905 z m 207.75518,-106.0405 -0.25518,-92.75 h -92.5 -92.5 l -0.25798,91.5 c -0.14189,50.325 -0.0435,92.0625 0.21861,92.75 0.37654,0.9875 19.90477,1.25 93.01316,1.25 h 92.53657 z"
       id="path819"
       inkscape:connector-curvature="0"
       sodipodi:nodetypes="csccsccccccccscsccscsccccsccsccccccccscccccccscscc" />
    <path
       inkscape:connector-curvature="0"
       id="path815"
       d="m 258.81213,174.37889 c -0.27305,-0.7115 -0.37173,-8.2498 -0.21929,-16.7517 l 0.27717,-15.458 h 283.5 283.5 v 16.5 16.5 l -283.28072,0.2517 c -230.98865,0.2053 -283.37235,0.013 -283.77716,-1.042 z"
       style="fill:#ffffff"
       sodipodi:nodetypes="cscccccsc" />
  </g>
</svg>
