<?xml version="1.0" encoding="UTF-8" standalone="no"?>
<!-- Created with Inkscape (http://www.inkscape.org/) -->

<svg
   xmlns:dc="http://purl.org/dc/elements/1.1/"
   xmlns:cc="http://creativecommons.org/ns#"
   xmlns:rdf="http://www.w3.org/1999/02/22-rdf-syntax-ns#"
   xmlns:svg="http://www.w3.org/2000/svg"
   xmlns="http://www.w3.org/2000/svg"
   xmlns:sodipodi="http://sodipodi.sourceforge.net/DTD/sodipodi-0.dtd"
   xmlns:inkscape="http://www.inkscape.org/namespaces/inkscape"
   version="1.1"
   id="svg2"
   width="512"
   height="512"
   viewBox="0 0 512 512"
   sodipodi:docname="user.svg"
   inkscape:version="0.92.3 (2405546, 2018-03-11)">
  <metadata
     id="metadata8">
    <rdf:RDF>
      <cc:Work
         rdf:about="">
        <dc:format>image/svg+xml</dc:format>
        <dc:type
           rdf:resource="http://purl.org/dc/dcmitype/StillImage" />
        <dc:title></dc:title>
      </cc:Work>
    </rdf:RDF>
  </metadata>
  <defs
     id="defs6" />
  <sodipodi:namedview
     pagecolor="#ffffff"
     bordercolor="#666666"
     borderopacity="1"
     objecttolerance="10"
     gridtolerance="10"
     guidetolerance="10"
     inkscape:pageopacity="0"
     inkscape:pageshadow="2"
     inkscape:window-width="1280"
     inkscape:window-height="961"
     id="namedview4"
     showgrid="false"
     inkscape:zoom="1.4882812"
     inkscape:cx="256"
     inkscape:cy="256"
     inkscape:window-x="-8"
     inkscape:window-y="-8"
     inkscape:window-maximized="1"
     inkscape:current-layer="g817" />
  <g
     id="g817"
     transform="translate(-3.0681251,3.0681229)">
    <path
       style="fill:#000000;stroke-width:0.75422537"
       d="m 81.7505,316.91431 c -3.54779,-1.59646 -5.93239,-4.81639 -6.64137,-8.96785 -0.53285,-3.12013 3.34207,-23.30359 8.00343,-41.68785 8.88169,-35.02909 16.54132,-48.69067 31.34411,-55.90482 9.51285,-4.63609 13.57893,-5.19218 38.07421,-5.20716 18.60059,-0.0114 22.03295,0.17093 27.0347,1.43588 11.5683,2.92561 19.13209,8.18208 25.76969,17.90865 3.66346,5.36836 9.70147,17.06925 9.70147,18.80022 0,0.44646 -1.45058,1.53809 -3.22352,2.42584 -6.42768,3.21851 -14.38531,9.26066 -20.12014,15.27704 -9.56233,10.0318 -15.22093,20.84673 -22.96384,43.88935 l -4.41033,13.125 -39.68028,0.17459 c -37.75498,0.16613 -39.83593,0.10456 -42.88813,-1.26889 z m 298.25487,0.56188 c -0.19501,-0.53217 -1.92166,-5.51806 -3.83701,-11.07977 -6.52692,-18.95261 -15.91934,-35.6956 -26.32148,-46.92086 -5.34147,-5.76415 -15.51817,-12.67825 -23.4923,-15.9608 -3.18143,-1.30963 -6.16017,-2.38115 -6.61943,-2.38115 -1.74758,0 -1.51872,-2.15603 0.80112,-7.54705 4.98493,-11.58438 11.67077,-18.90586 21.55918,-23.60886 8.98936,-4.27539 13.15702,-4.81636 37.21933,-4.83107 23.46852,-0.0143 28.08621,0.60732 37.21824,5.01053 11.71322,5.64777 21.30574,19.59025 28.29616,41.12772 3.30475,10.18194 7.89052,29.20668 10.20784,42.34873 2.59717,14.72915 1.67565,18.3675 -5.69882,22.5 l -3.34595,1.875 -32.81615,0.21758 c -26.26441,0.17415 -32.88695,0.0244 -33.17073,-0.75 z M 137.77158,185.22786 c -14.59156,-3.13075 -28.85481,-14.31068 -35.36395,-27.71925 -3.93002,-8.09568 -5.21779,-13.82291 -5.22779,-23.25 -0.0155,-14.65132 4.69112,-25.77309 15.42533,-36.449803 10.55819,-10.50163 22.18512,-15.2485 37.20275,-15.18858 5.02052,0.02 9.78613,0.50885 12.89407,1.32255 10.40122,2.7232 21.88042,9.95246 27.63336,17.402683 l 2.64791,3.42912 -3.6653,7.24202 c -3.87956,7.66535 -6.80151,15.5727 -8.49608,22.99201 -1.49942,6.56492 -1.33626,27.74809 0.26573,34.5 l 1.24565,5.25 -2.19674,1.90143 c -3.32708,2.87982 -11.42811,6.60864 -17.92984,8.25293 -6.8589,1.73461 -17.19725,1.86784 -24.4351,0.31489 z m 227.44313,0.13634 c -4.63226,-0.9924 -12.89407,-4.13038 -12.89407,-4.8974 0,-0.27092 0.86927,-3.85985 1.93172,-7.97539 5.9138,-22.90799 1.34023,-48.5109 -12.28638,-68.77923 l -3.58358,-5.330243 3.45266,-3.06167 c 13.87035,-12.29961 34.13638,-16.12504 52.31271,-9.87456 7.75081,2.66535 13.13605,6.08072 19.61168,12.4379 9.97229,9.789903 15.17819,22.389953 15.15591,36.682473 -0.0141,9.05506 -1.46344,15.22481 -5.4775,23.31753 -2.56105,5.16332 -4.46633,7.6647 -10.02417,13.16045 -5.60366,5.54105 -8.04445,7.35213 -13.30915,9.87543 -3.54587,1.6995 -8.9036,3.62418 -11.90609,4.27706 -6.32793,1.376 -16.98073,1.4537 -22.98374,0.16765 z"
       id="path821"
       inkscape:connector-curvature="0"
       sodipodi:nodetypes="sssscccscsscsscsscsscccssscscsscsccscscccscscscscssccssccc" />
    <path
       style="fill:#ff6600;stroke-width:8.054;stroke:#ffffff;stroke-opacity:1;stroke-miterlimit:4;stroke-dasharray:none"
       d="m 174.42849,411.88553 c -4.82198,-1.49121 -7.83803,-4.01739 -9.819,-8.2242 -2.54412,-5.40276 -2.33831,-9.13451 1.57722,-28.59798 9.569,-47.56591 20.85661,-82.52962 31.09705,-96.32402 6.95771,-9.3724 17.88282,-17.09938 29.60102,-20.93588 11.02635,-3.60998 16.00309,-3.98956 47.7839,-3.64442 23.85197,0.25902 29.67218,0.5313 33.75212,1.57899 8.28212,2.12677 15.07288,4.99384 20.80094,8.78219 18.41277,12.17761 31.76688,39.01629 42.60045,85.61707 3.88071,16.69291 7.89522,39.00117 7.89522,43.87293 0,8.24757 -5.29347,14.72812 -14.26957,17.46958 -4.72276,1.44242 -7.2909,1.48058 -96.358,1.43174 -72.88604,-0.04 -92.14799,-0.24873 -94.66135,-1.026 z m 77.57987,-186.10947 c -26.77541,-5.89625 -48.28789,-25.96773 -55.8563,-52.11481 -2.09401,-7.23434 -2.86525,-23.02097 -1.52577,-31.23158 3.15806,-19.35793 14.68839,-37.12512 31.40989,-48.399781 6.02027,-4.05924 15.83349,-8.52252 23.00836,-10.46473 8.85225,-2.39628 27.57751,-2.37546 36.62202,0.0407 21.84056,5.83453 39.10286,20.131681 48.66268,40.303861 4.23171,8.92935 6.02252,16.35886 6.49047,26.92696 0.48105,10.86398 -0.48489,17.71611 -3.88676,27.57186 -3.53988,10.25558 -8.60074,18.24711 -16.7558,26.45883 -10.14447,10.21497 -19.9142,16.09645 -33.04466,19.89324 -7.53932,2.18005 -27.24807,2.74983 -35.12413,1.01544 z"
       id="path819"
       inkscape:connector-curvature="0"
       sodipodi:nodetypes="ccsssssssscsccssscsssssccc" />
  </g>
</svg>
